<svg width="18" height="18" viewBox="0 0 18 18" fill="none" xmlns="http://www.w3.org/2000/svg">
<path d="M1.47035 0.666776C1.0264 0.663026 0.670148 1.03986 0.666531 1.50011C0.662913 1.96036 1.02648 2.32969 1.47035 2.33344C2.06324 2.33844 2.53757 2.75003 2.9021 3.53136C3.24292 4.26177 3.34244 4.86286 3.35433 4.93761L4.30878 11.3178C4.60113 12.8372 5.99028 14.0001 7.44873 14.0001H13.1755C14.6344 14.0001 16.0299 12.8264 16.316 11.3439L17.2959 4.57302C17.5234 3.39486 16.6842 2.33344 15.4873 2.33344H4.10782C3.50352 1.30103 2.58218 0.676109 1.47035 0.666776ZM4.81116 4.00011H15.4873C15.6698 4.00011 15.7485 4.10036 15.7132 4.28661L14.7333 11.0574C14.6039 11.7216 13.8684 12.3334 13.1755 12.3334H7.44873C6.75664 12.3334 6.02702 11.7349 5.89133 11.0314L4.96197 4.67719C4.93391 4.49994 4.86904 4.21902 4.81116 4.00011ZM6.69515 14.8334C6.02927 14.8334 5.48943 15.3931 5.48943 16.0834C5.48943 16.7738 6.02927 17.3334 6.69515 17.3334C7.36103 17.3334 7.90087 16.7738 7.90087 16.0834C7.90087 15.3931 7.36103 14.8334 6.69515 14.8334ZM13.9295 14.8334C13.2639 14.8334 12.7238 15.3931 12.7238 16.0834C12.7238 16.7738 13.2639 17.3334 13.9295 17.3334C14.5951 17.3334 15.1352 16.7738 15.1352 16.0834C15.1352 15.3931 14.5951 14.8334 13.9295 14.8334Z" fill="#FCFCFC"/>
</svg>
