<svg width="155" height="48" viewBox="0 0 155 48" fill="none" xmlns="http://www.w3.org/2000/svg">
<g clip-path="url(#clip0_359_8196)">
<path d="M35.2572 36.2179C36.9108 37.8919 38.5372 39.5387 40.1976 41.2219C40.0386 41.399 39.9046 41.5626 39.7592 41.7148C37.5923 43.9862 34.9779 45.5558 32.0386 46.612C30.6349 47.1162 29.197 47.4933 27.7183 47.7023C27.1369 47.784 26.5508 47.8363 25.9693 47.9158C24.7836 48.0771 23.6002 47.9703 22.4145 47.9294C21.0835 47.884 19.7819 47.6546 18.5009 47.3184C17.674 47.1026 16.8336 46.9073 16.0386 46.6006C13.7308 45.7125 11.573 44.545 9.61953 43.0163C6.21692 40.3542 3.5866 37.0947 1.85122 33.1219C1.28109 31.8136 0.883589 30.4575 0.551959 29.0788C0.392959 28.42 0.193072 27.7613 0.1272 27.0912C0.0295287 26.0668 0 25.0333 0 24.0044C0 23.064 0.0159001 22.1168 0.129472 21.1878C0.240772 20.2769 0.472459 19.3797 0.667802 18.4802C0.908575 17.3786 1.22203 16.2906 1.66951 15.2593C2.62124 13.0674 3.7933 10.9981 5.29245 9.12191C8.09313 5.62163 11.5571 3.02992 15.7683 1.45581C17.1334 0.944739 18.5349 0.556324 19.975 0.338266C21.8876 0.0497932 23.8137 -0.122836 25.7445 0.104308C26.803 0.226965 27.8546 0.406409 28.9063 0.604024C30.0397 0.815267 31.1278 1.16734 32.1953 1.55576C35.3072 2.69147 38.0625 4.43367 40.4997 6.67557C40.5656 6.7369 40.6474 6.78233 40.7836 6.87773C38.8438 8.42458 36.9699 9.92146 35.0823 11.4274C34.7893 11.1912 34.5258 10.9731 34.2555 10.7619C33.2288 9.94872 32.1158 9.27183 30.9188 8.74031C29.7649 8.22697 28.5679 7.82719 27.3208 7.62503C25.6059 7.34792 23.8796 7.25252 22.1465 7.47966C20.1908 7.73634 18.2828 8.16337 16.5088 9.06058C13.2697 10.6983 10.9529 13.2446 9.27655 16.4132C8.68597 17.5262 8.25667 18.7006 7.94321 19.9271C7.54117 21.4967 7.43896 23.0867 7.49347 24.6949C7.5071 25.1106 7.4594 25.5353 7.52527 25.9419C7.6343 26.6052 7.78876 27.2639 7.96593 27.9112C9.4151 33.2082 12.6087 37.0311 17.64 39.2889C18.5599 39.7023 19.5321 39.9544 20.5088 40.1997C21.8171 40.5291 23.1437 40.5745 24.4793 40.5472C28.0977 40.4746 31.3095 39.2548 34.1806 37.0878C34.5258 36.8266 34.8575 36.5427 35.2572 36.2179Z" fill="#FCFCFC"/>
<path d="M24.0206 29.3038C22.3648 29.272 20.9883 28.6497 19.8843 27.4299C18.4125 25.8013 18.1217 23.4958 19.1757 21.5764C20.032 20.0159 21.3085 18.9484 23.0598 18.5236C23.6527 18.3805 24.2523 18.4305 24.8724 18.544C26.7032 18.8757 27.9184 19.9909 28.7952 21.5196C29.4539 22.6712 29.6515 23.9273 29.2677 25.2266C28.6544 27.2959 27.3347 28.6565 25.2041 29.1607C24.8202 29.2516 24.4159 29.2584 24.0229 29.3038H24.0206Z" fill="#FCFCFC"/>
<path d="M143.818 32.0251C143.609 32.0251 143.448 32.0251 143.284 32.0251C139.605 32.0251 135.925 32.0251 132.245 32.0251C131.539 32.0251 131.7 32.0001 131.466 32.5362C130.978 33.6514 130.471 34.7599 129.987 35.8774C129.74 36.4521 129.533 37.045 129.29 37.6219C128.877 38.61 128.45 39.5912 128.027 40.5748C127.977 40.6883 127.918 40.7996 127.861 40.9155H120.952C121.068 40.5589 121.149 40.2182 121.286 39.8956C122.083 38.0012 122.901 36.1159 123.693 34.2216C124.138 33.1563 124.541 32.0705 124.983 31.0029C125.329 30.167 125.722 29.3516 126.067 28.518C126.546 27.3618 126.991 26.192 127.473 25.0359C128.086 23.5663 128.734 22.1103 129.349 20.6429C129.722 19.7571 130.044 18.8508 130.417 17.9649C130.953 16.6838 131.525 15.4163 132.061 14.133C132.506 13.0654 132.909 11.9819 133.351 10.9144C133.724 10.0194 134.133 9.14036 134.519 8.25223C134.705 7.8252 134.916 7.40271 135.039 6.95751C135.123 6.65541 135.271 6.59862 135.537 6.60089C136.407 6.60771 137.276 6.60317 138.146 6.60317C138.796 6.60317 139.448 6.60317 140.12 6.60317C144.943 18.0285 149.756 29.4311 154.571 40.836C154.156 40.9518 148.509 40.9927 147.523 40.8882C146.303 37.9649 145.072 35.0166 143.823 32.0274L143.818 32.0251ZM134.026 25.8695H141.288C140.095 22.4442 138.921 19.0665 137.747 15.6866C137.708 15.6821 137.672 15.6776 137.633 15.6707C136.447 19.0597 135.194 22.426 134.024 25.8672L134.026 25.8695Z" fill="#FCFCFC"/>
<path d="M81.0674 31.5662C80.0952 33.9989 78.6211 35.9342 76.6994 37.531C74.2781 39.5435 71.5251 40.8836 68.4178 41.4742C67.173 41.7104 65.9169 41.7786 64.6517 41.7831C63.2911 41.7899 61.9532 41.5582 60.6585 41.2243C58.1827 40.5861 55.9726 39.3799 54.0214 37.7172C51.6954 35.7366 49.8351 33.4038 48.6926 30.5509C48.3337 29.6514 48.0543 28.7133 47.8226 27.7706C47.2752 25.556 47.3048 23.3141 47.5728 21.0608C47.7272 19.7615 48.0702 18.5077 48.5222 17.3016C49.0333 15.9364 49.7579 14.6599 50.637 13.4833C52.8993 10.4532 55.7045 8.13178 59.3207 6.87795C60.1679 6.58493 61.031 6.37142 61.9237 6.23967C63.0299 6.07613 64.1338 5.91259 65.2514 5.95574C65.8601 5.97846 66.4666 6.13065 67.0753 6.12837C67.8067 6.1261 68.4973 6.29646 69.19 6.47363C69.8147 6.63263 70.4507 6.76438 71.0594 6.97335C72.4814 7.46171 73.8192 8.13178 75.0821 8.95404C77.6148 10.6054 79.5773 12.761 80.8743 15.5003C81.0038 15.7752 81.0878 16.0705 81.215 16.4112C80.9992 16.4248 80.8425 16.4452 80.6835 16.4452C78.6165 16.4498 76.5495 16.4452 74.4825 16.4611C74.1622 16.4634 73.951 16.3567 73.742 16.1204C72.5427 14.7439 71.0912 13.6968 69.3854 13.0563C68.4609 12.7087 67.5205 12.3498 66.4984 12.3339C65.8897 12.3226 65.2786 12.1908 64.6722 12.2045C61.5308 12.2749 58.9686 13.59 56.8743 15.8933C56.0384 16.8109 55.332 17.8285 54.8255 18.9438C54.3735 19.9364 54.0146 20.9949 53.9351 22.1034C53.8601 23.1301 53.8192 24.1636 53.8238 25.1925C53.8238 25.6491 53.9487 26.1125 54.0623 26.5599C54.4189 27.966 55.0027 29.2743 55.8544 30.4532C57.2037 32.3249 58.8845 33.7922 61.0151 34.7394C62.4257 35.3663 63.8999 35.5457 65.4172 35.5253C68.5381 35.4867 71.1026 34.1852 73.2741 32.0273C73.6262 31.6775 73.9714 31.548 74.4598 31.5526C76.4359 31.5798 78.4121 31.5639 80.3882 31.5639H81.0674V31.5662Z" fill="#FCFCFC"/>
<path d="M107.03 12.8132H100.747V6.6894C101.133 6.58037 118.912 6.54629 119.725 6.65532V12.8177H113.367V40.904H107.034C107.028 40.1363 107.032 39.364 107.03 38.594C107.03 37.8149 107.03 37.0358 107.03 36.259V12.8132Z" fill="#FCFCFC"/>
<path d="M94.2556 40.8995H87.9092V6.6394H94.2079C94.3215 7.00965 94.3737 39.8342 94.2556 40.9018V40.8995Z" fill="#FCFCFC"/>
</g>
<defs>
<clipPath id="clip0_359_8196">
<rect width="154.567" height="48" fill="white"/>
</clipPath>
</defs>
</svg>
