<svg width="20" height="20" viewBox="0 0 20 20" fill="none" xmlns="http://www.w3.org/2000/svg">
<g clip-path="url(#clip0_440_9979)">
<path d="M9.99992 1.66675C6.318 1.66675 3.33325 4.65174 3.33325 8.33341C3.33325 11.2226 5.20642 14.5101 7.73425 17.2401C7.81592 17.3276 7.882 17.3959 7.96867 17.4742C8.68367 18.1151 9.42542 18.3417 9.99992 18.3334C10.0072 18.3334 10.0201 18.3334 10.0259 18.3334C10.6238 18.3334 11.467 18.0642 12.2656 17.2659C14.6906 14.8409 16.6666 11.2651 16.6666 8.33341C16.6666 4.65174 13.6818 1.66675 9.99992 1.66675ZM9.99992 3.33341C12.7613 3.33341 14.9999 5.57174 14.9999 8.33341C14.9999 10.7384 13.2102 13.9251 11.0676 16.0676C10.6162 16.5192 10.2124 16.6667 9.99992 16.6667C9.98225 16.6667 9.96967 16.6667 9.97392 16.6667C9.78442 16.6692 9.45367 16.5776 9.08842 16.2501C9.04008 16.2067 8.97892 16.1442 8.93225 16.0934C6.66492 13.6459 4.99992 10.6942 4.99992 8.33341C4.99992 5.57174 7.2385 3.33341 9.99992 3.33341ZM9.99992 5.83341C8.61917 5.83341 7.49992 6.95258 7.49992 8.33341C7.49992 9.71424 8.61917 10.8334 9.99992 10.8334C11.3807 10.8334 12.4999 9.71424 12.4999 8.33341C12.4999 6.95258 11.3807 5.83341 9.99992 5.83341ZM9.99992 7.50008C10.4602 7.50008 10.8333 7.87341 10.8333 8.33341C10.8333 8.79341 10.4602 9.16674 9.99992 9.16674C9.53967 9.16674 9.16658 8.79341 9.16658 8.33341C9.16658 7.87341 9.53967 7.50008 9.99992 7.50008Z" fill="#FCFCFC"/>
</g>
<defs>
<clipPath id="clip0_440_9979">
<rect width="20" height="20" fill="white"/>
</clipPath>
</defs>
</svg>
