<svg width="25" height="24" viewBox="0 0 25 24" fill="none" xmlns="http://www.w3.org/2000/svg">
<g clip-path="url(#clip0_440_12427)">
<path d="M12.8755 3C12.0015 3 11.1385 3.31547 10.4713 3.94737L3.16791 10.8452C2.77736 11.2156 2.77736 11.837 3.16791 12.2075L4.88488 13.836V17.2105C4.88488 19.3033 6.67378 21 8.88019 21H16.8708C19.0772 21 20.8661 19.3033 20.8661 17.2105V13.836L22.5821 12.2075C22.9726 11.837 22.9726 11.2156 22.5821 10.8452C22.2435 10.524 21.0029 9.3417 19.8673 8.26927V5.84211C19.8673 5.31916 19.4198 4.89474 18.8685 4.89474C18.3161 4.89474 17.8696 5.31916 17.8696 5.84211V6.40484C16.8009 5.39589 15.6023 4.25432 15.2787 3.94737C14.6115 3.31547 13.7485 3 12.8755 3ZM12.8755 4.89474C13.2381 4.89474 13.5976 5.01695 13.8743 5.27937C14.4077 5.78622 16.4203 7.68567 18.1503 9.33599C18.1573 9.34262 18.1433 9.35873 18.1503 9.36536C18.1563 9.37105 18.1753 9.35873 18.1813 9.36536C19.0952 10.236 19.8953 11.0204 20.4286 11.5263L19.1491 12.7399C18.9623 12.918 18.8685 13.17 18.8685 13.4211V17.2105C18.8685 18.2574 17.9735 19.1053 16.8708 19.1053H8.88019C7.77649 19.1053 6.88254 18.2574 6.88254 17.2105V13.4211C6.88254 13.17 6.78865 12.918 6.60087 12.7399L5.32138 11.5263L11.8767 5.27937C12.1533 5.01695 12.5129 4.89474 12.8755 4.89474Z" fill="#0B0A0A"/>
</g>
<defs>
<clipPath id="clip0_440_12427">
<rect width="24" height="24" fill="white" transform="translate(0.875)"/>
</clipPath>
</defs>
</svg>
