<svg width="25" height="24" viewBox="0 0 25 24" fill="none" xmlns="http://www.w3.org/2000/svg">
<path d="M3.33961 2.00003C2.80687 1.99553 2.37937 2.44773 2.37503 3.00003C2.37069 3.55233 2.80697 3.99553 3.33961 4.00003C4.05108 4.00603 4.62028 4.49993 5.05772 5.43753C5.4667 6.31403 5.58612 7.03533 5.6004 7.12503L6.74573 14.7812C7.09655 16.6045 8.76354 18 10.5137 18H17.3858C19.1365 18 20.811 16.5916 21.1544 14.8125L22.3302 6.68753C22.6032 5.27373 21.5962 4.00003 20.1599 4.00003H6.50458C5.77941 2.76113 4.67382 2.01123 3.33961 2.00003ZM7.34859 6.00003H20.1599C20.3789 6.00003 20.4734 6.12033 20.431 6.34383L19.2552 14.4688C19.0999 15.2658 18.2173 16 17.3858 16H10.5137C9.68317 16 8.80762 15.2818 8.6448 14.4375L7.52955 6.81253C7.49589 6.59983 7.41804 6.26273 7.34859 6.00003ZM9.60938 19C8.81032 19 8.16251 19.6716 8.16251 20.5C8.16251 21.3284 8.81032 22 9.60938 22C10.4084 22 11.0562 21.3284 11.0562 20.5C11.0562 19.6716 10.4084 19 9.60938 19ZM18.2906 19C17.4919 19 16.8437 19.6716 16.8437 20.5C16.8437 21.3284 17.4919 22 18.2906 22C19.0893 22 19.7375 21.3284 19.7375 20.5C19.7375 19.6716 19.0893 19 18.2906 19Z" fill="#706F6A"/>
</svg>
