<svg width="25" height="24" viewBox="0 0 25 24" fill="none" xmlns="http://www.w3.org/2000/svg">
<g clip-path="url(#clip0_440_12447)">
<path d="M12.625 2C9.8636 2 7.625 4.2386 7.625 7C7.625 9.7614 9.8636 12 12.625 12C15.3864 12 17.625 9.7614 17.625 7C17.625 4.2386 15.3864 2 12.625 2ZM12.625 4C14.2819 4 15.625 5.3431 15.625 7C15.625 8.6569 14.2819 10 12.625 10C10.9681 10 9.625 8.6569 9.625 7C9.625 5.3431 10.9681 4 12.625 4ZM9.0938 13.3125C6.4795 14.027 4.625 16.3002 4.625 19V21C4.625 21.5523 5.0727 22 5.625 22H19.625C20.1773 22 20.625 21.5523 20.625 21V19C20.625 16.3002 18.7705 14.027 16.1562 13.3125C15.9321 13.2512 15.7119 13.2795 15.5 13.375C14.5845 13.7876 13.6099 14 12.625 14C11.6401 14 10.6655 13.7876 9.75 13.375C9.5381 13.2795 9.3179 13.2512 9.0938 13.3125ZM9.5 15.3125C10.5098 15.6944 11.5447 16 12.625 16C13.7053 16 14.7402 15.6944 15.75 15.3125C17.4534 15.8285 18.625 17.2664 18.625 19V20H6.625V19C6.625 17.2664 7.7966 15.8285 9.5 15.3125Z" fill="#706F6A"/>
</g>
<defs>
<clipPath id="clip0_440_12447">
<rect width="24" height="24" fill="white" transform="translate(0.625)"/>
</clipPath>
</defs>
</svg>
