<svg width="25" height="24" viewBox="0 0 25 24" fill="none" xmlns="http://www.w3.org/2000/svg">
<g clip-path="url(#clip0_440_12434)">
<path d="M10.5409 2C5.89289 2 2.125 5.76822 2.125 10.4159C2.125 15.0636 5.89289 18.8318 10.5409 18.8318C12.4731 18.8318 14.3045 18.168 15.725 17.0739L20.3046 21.6921C20.7155 22.1024 21.406 22.1024 21.8169 21.6921C22.2277 21.2808 22.2277 20.5907 21.8169 20.1794L17.2055 15.5927C18.3004 14.1725 18.9568 12.3484 18.9568 10.4159C18.9568 5.76822 15.1889 2 10.5409 2ZM10.5409 4.10397C14.0268 4.10397 16.8528 6.92961 16.8528 10.4159C16.8528 13.9022 14.0268 16.7278 10.5409 16.7278C7.05492 16.7278 4.22897 13.9022 4.22897 10.4159C4.22897 6.92961 7.05492 4.10397 10.5409 4.10397Z" fill="#706F6A"/>
</g>
<defs>
<clipPath id="clip0_440_12434">
<rect width="24" height="24" fill="white" transform="translate(0.125)"/>
</clipPath>
</defs>
</svg>
