<svg width="21" height="20" viewBox="0 0 21 20" fill="none" xmlns="http://www.w3.org/2000/svg">
<g clip-path="url(#clip0_440_10002)">
<path d="M8.96318 1.66675C5.08986 1.66675 1.94995 4.80693 1.94995 8.68C1.94995 12.5531 5.08986 15.6932 8.96318 15.6932C10.5733 15.6932 12.0995 15.1401 13.2833 14.2284L17.0996 18.0769C17.442 18.4188 18.0174 18.4188 18.3599 18.0769C18.7022 17.7341 18.7022 17.159 18.3599 16.8162L14.517 12.994C15.4295 11.8105 15.9764 10.2904 15.9764 8.68C15.9764 4.80693 12.8365 1.66675 8.96318 1.66675ZM8.96318 3.42006C11.8682 3.42006 14.2231 5.77476 14.2231 8.68C14.2231 11.5852 11.8682 13.9399 8.96318 13.9399C6.05822 13.9399 3.70326 11.5852 3.70326 8.68C3.70326 5.77476 6.05822 3.42006 8.96318 3.42006Z" fill="#FCFCFC"/>
</g>
<defs>
<clipPath id="clip0_440_10002">
<rect width="20" height="20" fill="white" transform="translate(0.283203)"/>
</clipPath>
</defs>
</svg>
