<svg width="20" height="20" viewBox="0 0 20 20" fill="none" xmlns="http://www.w3.org/2000/svg">
<g id="Group">
<path id="Vector" d="M9.99992 1.66675C7.69875 1.66675 5.83325 3.53225 5.83325 5.83342C5.83325 8.13458 7.69875 10.0001 9.99992 10.0001C12.3011 10.0001 14.1666 8.13458 14.1666 5.83342C14.1666 3.53225 12.3011 1.66675 9.99992 1.66675ZM9.99992 3.33341C11.3807 3.33341 12.4999 4.45266 12.4999 5.83342C12.4999 7.21417 11.3807 8.33342 9.99992 8.33342C8.61917 8.33342 7.49992 7.21417 7.49992 5.83342C7.49992 4.45266 8.61917 3.33341 9.99992 3.33341ZM7.05725 11.0938C4.87867 11.6892 3.33325 13.5836 3.33325 15.8334V17.5001C3.33325 17.9603 3.70634 18.3334 4.16659 18.3334H15.8333C16.2935 18.3334 16.6666 17.9603 16.6666 17.5001V15.8334C16.6666 13.5836 15.1212 11.6892 12.9426 11.0938C12.7558 11.0427 12.5723 11.0663 12.3958 11.1459C11.6328 11.4897 10.8207 11.6667 9.99992 11.6667C9.17917 11.6667 8.367 11.4897 7.60408 11.1459C7.4275 11.0663 7.244 11.0427 7.05725 11.0938ZM7.39575 12.7605C8.23725 13.0787 9.09967 13.3334 9.99992 13.3334C10.9002 13.3334 11.7626 13.0787 12.6041 12.7605C14.0236 13.1905 14.9999 14.3887 14.9999 15.8334V16.6667H4.99992V15.8334C4.99992 14.3887 5.97625 13.1905 7.39575 12.7605Z" fill="#FCFCFC"/>
</g>
</svg>
