<svg width="16" height="16" viewBox="0 0 16 16" fill="none" xmlns="http://www.w3.org/2000/svg">
<path d="M3.83193 0.492188C1.99101 0.492188 0.498596 1.98469 0.498596 3.82552V8.82552C0.498596 10.6664 1.99101 12.1589 3.83193 12.1589H4.32676C4.0331 12.3497 3.84201 12.6622 3.9361 13.018C4.03185 13.3805 4.1961 13.7255 4.40485 14.0339C4.66276 14.4147 5.16951 14.5005 5.55068 14.2422C5.93185 13.9847 6.04293 13.4772 5.7851 13.0964C5.68076 12.9422 5.59826 12.7555 5.55068 12.5755C5.5006 12.3864 5.35735 12.263 5.2121 12.1589H8.83193C10.6728 12.1589 12.1653 10.6664 12.1653 8.82552V5.49219C12.3549 5.49219 12.5379 5.53552 12.7121 5.59635C13.1468 5.74719 13.6286 5.51052 13.7798 5.07552C13.9311 4.64052 13.6937 4.15885 13.259 4.00802C12.9093 3.88635 12.542 3.82552 12.1653 3.82552C12.1653 1.98469 10.6728 0.492188 8.83193 0.492188H3.83193ZM3.83193 2.15885H8.83193C9.75243 2.15885 10.4986 2.90469 10.4986 3.82552V8.82552C10.4986 9.74636 9.75243 10.4922 8.83193 10.4922H3.83193C2.91143 10.4922 2.16526 9.74636 2.16526 8.82552V3.82552C2.16526 2.90469 2.91143 2.15885 3.83193 2.15885ZM14.4309 5.83053C13.9808 5.92719 13.7097 6.37052 13.8059 6.82052C13.8287 6.92718 13.8304 7.02135 13.8319 7.13302V7.49719C13.8322 7.95803 14.205 8.33136 14.6653 8.33053C15.1255 8.33053 15.4988 7.95719 15.4986 7.49719V7.13302C15.4955 6.90135 15.4661 6.66969 15.4204 6.45553C15.3243 6.00553 14.881 5.73469 14.4309 5.83053ZM14.6653 9.16386C14.205 9.16386 13.8319 9.53719 13.8319 9.99719V10.8305C13.8319 11.2914 14.205 11.6639 14.6653 11.6639C15.1255 11.6639 15.4986 11.2914 15.4986 10.8305V9.99719C15.4986 9.53719 15.1255 9.16386 14.6653 9.16386ZM14.1444 12.4972C13.9414 12.563 13.7548 12.7097 13.6496 12.9139C13.5645 13.0797 13.4463 13.228 13.3111 13.3572C12.9783 13.6747 12.9672 14.2222 13.2851 14.5547C13.6029 14.8872 14.1241 14.8989 14.4569 14.5805C14.7262 14.3239 14.9637 14.0005 15.134 13.6689C15.3443 13.2597 15.1788 12.7597 14.7694 12.5497C14.5648 12.4447 14.3474 12.4322 14.1444 12.4972ZM7.32151 13.8255C6.86126 13.8255 6.48818 14.1989 6.48818 14.6589C6.48818 15.1189 6.86126 15.4922 7.32151 15.4922H8.15485C8.6151 15.4922 8.98818 15.1189 8.98818 14.6589C8.98818 14.1989 8.6151 13.8255 8.15485 13.8255H7.32151ZM10.6548 13.8255C10.1946 13.8255 9.82151 14.1989 9.82151 14.6589C9.82151 15.1189 10.1946 15.4922 10.6548 15.4922H11.4882C11.9484 15.4922 12.3215 15.1189 12.3215 14.6589C12.3215 14.1989 11.9484 13.8255 11.4882 13.8255H10.6548Z" fill="#5A5955"/>
</svg>
