<svg width="18" height="18" viewBox="0 0 18 18" fill="none" xmlns="http://www.w3.org/2000/svg">
<path id="Vector" d="M1.47059 0.666532C1.02664 0.662782 0.670392 1.03961 0.666775 1.49986C0.663158 1.96011 1.02672 2.32945 1.47059 2.3332C2.06349 2.3382 2.53781 2.74978 2.90235 3.53111C3.24316 4.26153 3.34268 4.86261 3.35458 4.93736L4.30902 11.3175C4.60137 12.8369 5.99053 13.9999 7.44897 13.9999H13.1758C14.6347 13.9999 16.0301 12.8262 16.3163 11.3436L17.2961 4.57278C17.5236 3.39461 16.6844 2.3332 15.4875 2.3332H4.10807C3.50376 1.30078 2.58243 0.675865 1.47059 0.666532ZM4.81141 3.99986H15.4875C15.67 3.99986 15.7488 4.10011 15.7134 4.28636L14.7336 11.0572C14.6041 11.7214 13.8686 12.3332 13.1758 12.3332H7.44897C6.75689 12.3332 6.02726 11.7347 5.89158 11.0311L4.96221 4.67695C4.93416 4.4997 4.86928 4.21878 4.81141 3.99986ZM6.69539 14.8332C6.02951 14.8332 5.48967 15.3929 5.48967 16.0832C5.48967 16.7735 6.02951 17.3332 6.69539 17.3332C7.36128 17.3332 7.90112 16.7735 7.90112 16.0832C7.90112 15.3929 7.36128 14.8332 6.69539 14.8332ZM13.9297 14.8332C13.2642 14.8332 12.724 15.3929 12.724 16.0832C12.724 16.7735 13.2642 17.3332 13.9297 17.3332C14.5953 17.3332 15.1355 16.7735 15.1355 16.0832C15.1355 15.3929 14.5953 14.8332 13.9297 14.8332Z" fill="#FCFCFC"/>
</svg>
