<svg width="20" height="20" viewBox="0 0 20 20" fill="none" xmlns="http://www.w3.org/2000/svg">
<g id="Group">
<path id="Vector" d="M9.99984 1.66675C7.19567 1.66675 4.74484 3.48175 3.80401 5.86258C2.60734 6.00674 1.6665 7.09591 1.6665 8.3334V11.6667C1.6665 13.0476 2.78567 14.1667 4.1665 14.1667C5.54734 14.1667 6.6665 13.0476 6.6665 11.6667V8.3334C6.6665 7.44924 6.16318 6.63506 5.47151 6.1909C6.22401 4.55756 7.97984 3.33341 9.99984 3.33341C12.0248 3.33341 13.7348 4.50675 14.5157 6.19674C13.809 6.64758 13.3332 7.46174 13.3332 8.3334V11.6667C13.3332 12.1967 13.539 12.7842 13.8482 13.1926C13.3257 13.8067 12.7757 14.2259 12.1323 14.5342C11.664 13.7851 10.8715 13.3334 9.99984 13.3334C8.619 13.3334 7.49984 14.4526 7.49984 15.8334C7.49984 17.2142 8.619 18.3334 9.99984 18.3334C11.2582 18.3334 12.2923 17.4001 12.4673 16.1901C13.4432 15.8234 14.509 15.0959 15.2573 14.0934C15.4565 14.1434 15.619 14.1667 15.8332 14.1667C17.214 14.1667 18.3332 13.0476 18.3332 11.6667V8.3334C18.3332 7.08341 17.3898 6.04091 16.1915 5.85592C15.2082 3.40175 12.7882 1.66675 9.99984 1.66675ZM4.1665 7.50007C4.6265 7.50007 4.99984 7.87341 4.99984 8.3334V11.6667C4.99984 12.1267 4.6265 12.5001 4.1665 12.5001C3.7065 12.5001 3.33317 12.1267 3.33317 11.6667V8.3334C3.33317 7.87341 3.7065 7.50007 4.1665 7.50007ZM15.8332 7.50007C16.2932 7.50007 16.6665 7.87341 16.6665 8.3334V11.6667C16.6665 12.1267 16.2932 12.5001 15.8332 12.5001C15.3732 12.5001 14.9998 12.1267 14.9998 11.6667V8.3334C14.9998 7.87341 15.3732 7.50007 15.8332 7.50007ZM9.99984 15.0001C10.4598 15.0001 10.8332 15.3734 10.8332 15.8334C10.8332 16.2934 10.4598 16.6667 9.99984 16.6667C9.53984 16.6667 9.1665 16.2934 9.1665 15.8334C9.1665 15.3734 9.53984 15.0001 9.99984 15.0001Z" fill="#FCFCFC"/>
</g>
</svg>
