<svg width="20" height="20" viewBox="0 0 20 20" fill="none" xmlns="http://www.w3.org/2000/svg">
<g id="Base-search-2" clip-path="url(#clip0_573_9015)">
<path id="Vector" d="M8.67974 1.66675C4.80642 1.66675 1.6665 4.80693 1.6665 8.68C1.6665 12.5531 4.80642 15.6932 8.67974 15.6932C10.2899 15.6932 11.8161 15.1401 12.9998 14.2284L16.8161 18.0769C17.1586 18.4188 17.734 18.4188 18.0764 18.0769C18.4188 17.7341 18.4188 17.159 18.0764 16.8162L14.2336 12.994C15.146 11.8105 15.693 10.2904 15.693 8.68C15.693 4.80693 12.5531 1.66675 8.67974 1.66675ZM8.67974 3.42006C11.5847 3.42006 13.9397 5.77476 13.9397 8.68C13.9397 11.5852 11.5847 13.9399 8.67974 13.9399C5.77477 13.9399 3.41981 11.5852 3.41981 8.68C3.41981 5.77476 5.77477 3.42006 8.67974 3.42006Z" fill="#5A5955"/>
</g>
<defs>
<clipPath id="clip0_573_9015">
<rect width="20" height="20" fill="white"/>
</clipPath>
</defs>
</svg>
