<svg width="40" height="40" viewBox="0 0 40 40" fill="none" xmlns="http://www.w3.org/2000/svg">
<rect width="40" height="40" rx="20" fill="#FFE2D0"/>
<path d="M27.7779 11.4443H24.6668C22.9486 11.4443 21.5557 12.8372 21.5557 14.5554V20.7777C21.5557 22.4959 22.9486 23.8888 24.6668 23.8888H27.7779C29.4961 23.8888 30.889 22.4959 30.889 20.7777V14.5554C30.889 12.8372 29.4961 11.4443 27.7779 11.4443Z" fill="#98430D"/>
<path d="M21.5558 8.33325H12.2224C10.5042 8.33325 9.11133 9.72614 9.11133 11.4444V20.7777C9.11133 22.4959 10.5042 23.8888 12.2224 23.8888H21.5558C23.274 23.8888 24.6669 22.4959 24.6669 20.7777V11.4444C24.6669 9.72614 23.274 8.33325 21.5558 8.33325Z" fill="#FD7016"/>
<path d="M18.7712 12.7759L16.889 11.8333L15.0068 12.7759C14.8014 12.8786 14.5557 12.7293 14.5557 12.499V8.33325H19.2223V12.4959C19.2223 12.7261 18.9797 12.8786 18.7712 12.7728V12.7759Z" fill="#CA5A12"/>
<path d="M26.7823 31.6666H13.2179C11.7339 31.6666 10.4583 30.6213 10.1659 29.1653L7.55566 16.1111H32.4446L29.8343 29.1653C29.545 30.6182 28.2663 31.6666 26.7823 31.6666Z" fill="#FEA973"/>
<path d="M20.9335 21.5556C20.9335 21.1261 20.5853 20.7778 20.1557 20.7778C19.7262 20.7778 19.3779 21.1261 19.3779 21.5556V29.3334C19.3779 29.7629 19.7262 30.1112 20.1557 30.1112C20.5853 30.1112 20.9335 29.7629 20.9335 29.3334V21.5556Z" fill="#CA5A12"/>
<path d="M14.7113 21.5556C14.7113 21.1261 14.3631 20.7778 13.9335 20.7778C13.504 20.7778 13.1558 21.1261 13.1558 21.5556V29.3334C13.1558 29.7629 13.504 30.1112 13.9335 30.1112C14.3631 30.1112 14.7113 29.7629 14.7113 29.3334V21.5556Z" fill="#CA5A12"/>
<path d="M27.1557 21.5556C27.1557 21.1261 26.8074 20.7778 26.3779 20.7778C25.9483 20.7778 25.6001 21.1261 25.6001 21.5556V29.3334C25.6001 29.7629 25.9483 30.1112 26.3779 30.1112C26.8074 30.1112 27.1557 29.7629 27.1557 29.3334V21.5556Z" fill="#CA5A12"/>
<path d="M32.4444 16.1111H7.55556C6.69645 16.1111 6 16.8075 6 17.6666C6 18.5257 6.69645 19.2222 7.55556 19.2222H32.4444C33.3036 19.2222 34 18.5257 34 17.6666C34 16.8075 33.3036 16.1111 32.4444 16.1111Z" fill="#CA5A12"/>
<path fill-rule="evenodd" clip-rule="evenodd" d="M13.9335 17.0444C14.3631 17.0444 14.7113 17.3927 14.7113 17.8222V20.7778C14.7113 23.786 17.1475 26.2222 20.1558 26.2222C23.164 26.2222 25.6002 23.786 25.6002 20.7778V17.8222C25.6002 17.3927 25.9484 17.0444 26.378 17.0444C26.8075 17.0444 27.1558 17.3927 27.1558 17.8222V20.7778C27.1558 24.6451 24.0231 27.7778 20.1558 27.7778C16.2884 27.7778 13.1558 24.6451 13.1558 20.7778V17.8222C13.1558 17.3927 13.504 17.0444 13.9335 17.0444Z" fill="#FCFCFC"/>
</svg>
