<svg width="20" height="22" viewBox="0 0 20 22" fill="none" xmlns="http://www.w3.org/2000/svg">
<g id="Group 820">
<path id="Vector" d="M10.0078 21.4627H9.98649V21.4653C4.63716 20.7 0.666504 16.1187 0.666504 10.716V7.012C0.666504 6.05467 1.17851 5.172 2.01051 4.69734L8.67718 0.886668C9.49585 0.417335 10.5038 0.417335 11.3225 0.886668L17.9892 4.69734C18.8212 5.172 19.3332 6.05467 19.3332 7.012V10.7133C19.3332 16.1187 15.3598 20.7 10.0078 21.4627Z" fill="#276EF1"/>
<path id="Vector_2" d="M9.2665 0.641402C9.06384 0.700069 8.86385 0.780064 8.67718 0.886731L2.01051 4.6974C1.17851 5.17207 0.666504 6.05473 0.666504 7.01206V10.7161C0.666504 10.7427 0.666504 10.7721 0.666504 10.7987C1.78117 11.6361 3.16517 12.1294 4.66383 12.1294C8.3465 12.1294 11.3305 9.1454 11.3305 5.46273C11.3305 3.56407 10.5358 1.85473 9.26383 0.638733L9.2665 0.641402Z" fill="#1F58C1"/>
<path id="Vector_3" d="M10.005 18.46H9.989C6.16766 17.9133 3.33301 14.6413 3.33301 10.7826V7.67597C3.33301 7.27597 3.54633 6.90797 3.893 6.71064L9.44769 3.5373C9.78902 3.34263 10.2077 3.34263 10.549 3.5373L16.1037 6.71064C16.4503 6.90797 16.6637 7.27597 16.6637 7.67597V10.78C16.6637 14.6413 13.8237 17.9133 10.0023 18.4573L10.005 18.46Z" fill="#7DA8F7"/>
<path id="Vector (Stroke)" fill-rule="evenodd" clip-rule="evenodd" d="M13.1262 8.44923C13.3929 8.70312 13.4032 9.12511 13.1493 9.39176L9.59467 13.1251C9.46887 13.2572 9.29441 13.332 9.11198 13.332C8.92954 13.3321 8.75506 13.2574 8.62921 13.1253L6.85053 11.2586C6.59654 10.9921 6.60672 10.5701 6.87328 10.3161C7.13984 10.0621 7.56182 10.0723 7.81581 10.3388L9.11167 11.6988L12.1837 8.47234C12.4376 8.20569 12.8596 8.19534 13.1262 8.44923Z" fill="#FCFCFC"/>
<path id="Vector_4" d="M16.6663 16.132C15.9303 16.132 15.333 16.7293 15.333 17.4653C15.333 17.9373 15.581 18.3507 15.949 18.5853C16.589 17.9773 17.1543 17.292 17.629 16.5453C17.3863 16.2893 17.045 16.1293 16.6663 16.1293V16.132Z" fill="#1F58C1"/>
</g>
</svg>
