<svg width="24" height="20" viewBox="0 0 24 20" fill="none" xmlns="http://www.w3.org/2000/svg">
<g id="Group 796">
<path id="Vector" d="M18.6668 2.66663H16.0002C14.5274 2.66663 13.3335 3.86053 13.3335 5.33329V10.6666C13.3335 12.1394 14.5274 13.3333 16.0002 13.3333H18.6668C20.1396 13.3333 21.3335 12.1394 21.3335 10.6666V5.33329C21.3335 3.86053 20.1396 2.66663 18.6668 2.66663Z" fill="#E06153"/>
<g id="Group">
<path id="Vector_2" d="M13.3332 0H5.33317C3.86041 0 2.6665 1.19391 2.6665 2.66667V10.6667C2.6665 12.1394 3.86041 13.3333 5.33317 13.3333H13.3332C14.8059 13.3333 15.9998 12.1394 15.9998 10.6667V2.66667C15.9998 1.19391 14.8059 0 13.3332 0Z" fill="#CC4536"/>
<path id="Vector_3" d="M10.9463 3.808L9.33301 3L7.71968 3.808C7.54368 3.896 7.33301 3.768 7.33301 3.57067V0H11.333V3.568C11.333 3.76533 11.125 3.896 10.9463 3.80533V3.808Z" fill="#F5B3AC"/>
</g>
<g id="Group_2">
<path id="Vector_4" d="M17.8135 20H6.18683C4.91483 20 3.8215 19.104 3.57083 17.856L1.3335 6.66663H22.6668L20.4295 17.856C20.1815 19.1013 19.0855 20 17.8135 20Z" fill="#CC4536"/>
<path id="Vector_5" d="M12.8001 11.3333C12.8001 10.9651 12.5017 10.6666 12.1335 10.6666C11.7653 10.6666 11.4668 10.9651 11.4668 11.3333V18C11.4668 18.3681 11.7653 18.6666 12.1335 18.6666C12.5017 18.6666 12.8001 18.3681 12.8001 18V11.3333Z" fill="#F5B3AC"/>
<path id="Vector_6" d="M7.46663 11.3333C7.46663 10.9651 7.16816 10.6666 6.79997 10.6666C6.43178 10.6666 6.1333 10.9651 6.1333 11.3333V18C6.1333 18.3681 6.43178 18.6666 6.79997 18.6666C7.16816 18.6666 7.46663 18.3681 7.46663 18V11.3333Z" fill="#AE372A"/>
<path id="Vector_7" d="M18.1331 11.3333C18.1331 10.9651 17.8347 10.6666 17.4665 10.6666C17.0983 10.6666 16.7998 10.9651 16.7998 11.3333V18C16.7998 18.3681 17.0983 18.6666 17.4665 18.6666C17.8347 18.6666 18.1331 18.3681 18.1331 18V11.3333Z" fill="#CC4536"/>
<path id="Vector_8" d="M22.6667 6.66663H1.33333C0.596954 6.66663 0 7.26358 0 7.99996C0 8.73634 0.596954 9.33329 1.33333 9.33329H22.6667C23.403 9.33329 24 8.73634 24 7.99996C24 7.26358 23.403 6.66663 22.6667 6.66663Z" fill="#CA5A12"/>
<path id="Vector (Stroke)" fill-rule="evenodd" clip-rule="evenodd" d="M6.79997 7.46667C7.16816 7.46667 7.46663 7.76515 7.46663 8.13334V10.6667C7.46663 13.2452 9.55482 15.3333 12.1333 15.3333C14.7118 15.3333 16.8 13.2452 16.8 10.6667V8.13334C16.8 7.76515 17.0984 7.46667 17.4666 7.46667C17.8348 7.46667 18.1333 7.76515 18.1333 8.13334V10.6667C18.1333 13.9815 15.4482 16.6667 12.1333 16.6667C8.81844 16.6667 6.1333 13.9815 6.1333 10.6667V8.13334C6.1333 7.76515 6.43178 7.46667 6.79997 7.46667Z" fill="#FCFCFC"/>
</g>
</g>
</svg>
