<svg width="483" height="378" viewBox="0 0 483 378" fill="none" xmlns="http://www.w3.org/2000/svg">
<g clip-path="url(#clip0_225_11544)">
<path opacity="0.1" d="M241.497 378.006C374.871 378.006 482.993 376.219 482.993 374.015C482.993 371.81 374.871 370.023 241.497 370.023C108.122 370.023 0 371.81 0 374.015C0 376.219 108.122 378.006 241.497 378.006Z" fill="#98430D"/>
<path opacity="0.5" d="M88.1821 64.1973H168.04V371.332H88.1821V64.1973Z" stroke="#FEA973" stroke-width="2"/>
<path d="M165.612 54.1309H173.741V372.031H165.612V54.1309Z" fill="#CA5A12"/>
<path d="M173.44 61.541H331.567V370.074H173.44V61.541Z" fill="#FEC6A2"/>
<path opacity="0.2" d="M323.439 214.315C323.439 219.145 319.522 223.059 314.688 223.059C309.854 223.059 305.937 219.145 305.937 214.315C305.937 209.485 309.861 205.57 314.688 205.57C319.515 205.57 323.439 209.485 323.439 214.315Z" fill="#98430D"/>
<path d="M323.439 210.19C323.439 215.02 319.522 218.934 314.688 218.934C309.854 218.934 305.937 215.02 305.937 210.19C305.937 205.36 309.861 201.445 314.688 201.445C319.515 201.445 323.439 205.36 323.439 210.19Z" fill="#FCFCFC"/>
<path d="M38.6625 331.054L102.375 362.586C117.289 369.967 135.309 362.788 141.052 347.18L167.424 275.532V248.18L144.249 256.959C133.203 261.146 125.019 270.618 122.486 282.151L110.294 337.68L33.493 306.519C29.6876 304.974 25.3715 307.029 24.1683 310.95L13.4097 346.11L21.0834 335.429C25.0777 329.865 32.5137 328.013 38.6555 331.054H38.6625Z" fill="#FD7016"/>
<path opacity="0.3" d="M115.079 315.919C136.939 310.914 156.413 293.328 164.22 284.268L164.556 283.36L125.047 274.615C125.047 274.615 125.005 274.664 124.984 274.685C123.921 276.957 123.102 279.361 122.557 281.864L115.079 315.919Z" fill="#98430D"/>
<path d="M37.7463 330.626L43.6363 310.628L33.3882 306.469C29.6388 304.945 25.3927 306.965 24.2105 310.831L13.4238 346.109L21.2025 335.282C24.973 330.032 31.8633 328.138 37.7463 330.626Z" fill="#98430D"/>
<path d="M309.518 249.816L258.935 209.05C247.701 199.998 232.053 198.768 219.545 205.954L214.047 209.113L207.017 213.153L199.986 217.193L150.607 245.559L119.359 276.161C128.005 291.616 148.222 296.062 162.562 285.661L238.117 230.88L304.432 270.576C307.16 272.205 310.644 271.8 312.918 269.577L337.499 245.552L324.11 251.654C319.29 253.849 313.645 253.136 309.525 249.816H309.518Z" fill="#FD7016"/>
<path d="M308.308 248.844L309.616 249.899C313.68 253.171 319.234 253.87 323.977 251.71L337.492 245.559L312.848 269.639C310.609 271.827 307.182 272.233 304.495 270.625L295.318 265.131L308.308 248.851V248.844Z" fill="#98430D"/>
<path d="M132.783 87.0389C137.162 115.768 130.818 158.218 129.985 182.474C129.985 182.474 134.05 185.906 138.736 189.345C143.423 192.777 148.425 192.155 148.425 192.155C155.924 158.114 151.223 94.8468 151.223 84.8581C151.223 74.8693 149.663 71.1157 141.22 73.6181C132.783 76.1135 130.279 73.9326 132.783 87.0459V87.0389Z" fill="#FEC6A2"/>
<path opacity="0.3" d="M152.678 136.99C149.159 138.381 146.669 141.806 146.669 145.819C146.669 149.831 149.019 153.06 152.384 154.521C152.587 148.678 152.678 142.771 152.678 136.99Z" fill="#FD7016"/>
<path opacity="0.3" d="M139.639 88.2198C134.714 89.6318 133.658 84.9415 133.742 82.4181C133 86.7659 133.483 94.8603 141.346 92.4628C149.208 90.0652 148.95 80.8943 147.837 76.6094C149.117 86.4513 145.788 86.4513 139.632 88.2198H139.639Z" fill="#FD7016"/>
<path d="M129.363 84.1029C129.678 80.0417 140.611 76.6096 139.989 79.4196C139.366 82.2296 129.363 89.7229 129.363 84.1029Z" fill="#FEC6A2"/>
<path d="M102.795 158.743C108.733 139.38 115.918 133.761 129.048 139.38C134.798 142.379 137.071 149.376 137.484 152.494C140.296 168.424 137.484 179.349 123.109 206.834C106.943 237.744 69.3573 229.943 59.3541 222.45C49.3509 214.957 58.7316 208.4 72.1694 206.834C85.6072 205.276 96.8556 178.105 102.795 158.743Z" fill="#98430D"/>
<path d="M110.609 236.5C104.11 217.011 102.69 209.224 102.795 207.771C107.482 197.572 122.423 171.227 133.105 178.727C144.668 186.849 154.979 193.714 156.546 197.467C158.106 201.214 152.167 207.771 152.167 212.146C152.167 215.641 158.421 232.55 161.541 240.561C143.29 251.304 127.894 272.1 122.479 281.159C114.981 277.098 118.73 260.86 110.602 236.5H110.609Z" fill="#CA5A12"/>
<path opacity="0.2" d="M109.44 233.633C120.689 220.639 120.381 196.991 118.814 186.793L103.187 210.839C103.438 214.334 107.461 227.496 109.433 233.633H109.44Z" fill="#98430D"/>
<path d="M64.356 100.97C72.6034 137.696 93.8339 190.806 103.417 212.769C104.145 212.769 109.042 213.083 114.666 205.59C120.29 198.096 118.73 185.605 118.73 185.605C101.543 150.005 84.0406 100.662 84.0406 88.1712C84.0406 78.4131 79.039 78.1755 70.2879 81.9291C61.5369 85.6758 60.5995 86.6125 64.349 100.977L64.356 100.97Z" fill="#FEC6A2"/>
<path opacity="0.3" d="M86.4399 170.276H86.4889C91.7353 170.276 95.9814 166.026 95.9814 160.79C95.9814 155.555 91.7283 151.305 86.4889 151.305C84.2224 151.305 82.1379 152.102 80.501 153.423C82.4247 159.092 84.4253 164.747 86.4399 170.276Z" fill="#FD7016"/>
<path opacity="0.3" d="M71.8551 98.468C65.8532 100.216 64.566 94.4068 64.664 91.2893C63.8875 95.679 63.9295 104.598 70.2881 105.157C78.2417 105.863 86.699 95.8817 81.8513 84.1035C83.4112 96.2802 79.354 96.2802 71.8481 98.468H71.8551Z" fill="#FD7016"/>
<path d="M87.4821 87.2276C85.9222 83.4809 79.0459 84.7321 77.1711 88.7863C75.2964 92.8476 89.0491 90.9742 87.4821 87.2276Z" fill="#FEC6A2"/>
<path d="M117.17 165.922L118.73 183.719C119.877 186.012 122.92 191.212 125.914 193.715C129.664 196.839 134.98 194.966 134.98 189.968C134.98 185.97 133.315 174.149 132.483 168.732C134.232 168.229 134.882 167.9 134.98 167.796C140.982 165.048 133.105 151.663 128.418 145.309C127.796 152.487 119.667 157.59 115.918 159.359C114.148 159.254 110.79 159.918 111.546 163.42C112.294 166.915 115.61 166.544 117.17 165.915V165.922Z" fill="#FEC6A2"/>
<path d="M123.501 162.574C124.103 163.476 125.397 164.58 128.649 163.93" stroke="#FD7016" stroke-linecap="round" stroke-linejoin="round"/>
<path d="M122.794 168.111C127.292 169.362 131.126 169.047 132.483 168.733L133.42 175.911L122.794 168.104V168.111Z" fill="#FEA973"/>
<path d="M326.244 64.2873C326.244 99.7967 297.437 128.575 261.902 128.575C226.366 128.575 197.566 99.7897 197.566 64.2873C197.566 28.785 226.373 0 261.902 0C297.43 0 326.244 28.785 326.244 64.2873Z" fill="#FFE2D0"/>
<path d="M302.845 64.2865C302.845 86.8783 284.517 105.199 261.902 105.199C239.286 105.199 220.966 86.8853 220.966 64.2865C220.966 41.6878 239.293 23.3809 261.902 23.3809C284.51 23.3809 302.845 41.6947 302.845 64.2865Z" fill="#FEA973"/>
<path d="M246.666 60.5759L262.118 43.7159C263.14 42.5975 264.958 43.7159 264.427 45.1279L261.223 53.7047C260.677 55.1796 261.468 56.8152 262.972 57.2906L272.849 60.4221C274.794 61.0372 275.416 63.4837 274.003 64.9516L256.767 82.8881C255.704 83.9995 253.892 82.7902 254.515 81.3782L258.929 71.3615C259.607 69.8237 258.754 68.0412 257.131 67.6009L247.974 65.0914C245.987 64.5462 245.274 62.0997 246.666 60.5759Z" fill="#FCFCFC"/>
<path d="M413.684 368.284C398.183 309.323 398.267 227.756 399.001 194.344H361.185C363.934 259.295 377.953 337.367 384.619 368.284H413.684Z" fill="#CA5A12"/>
<path d="M426.814 368.284C411.313 309.323 411.397 227.756 412.124 194.344H374.308C377.057 259.295 391.083 337.367 397.749 368.284H426.814Z" fill="#CA5A12"/>
<path opacity="0.4" d="M402.282 197.846C403.317 234.473 408.403 319.018 420.484 364.208" stroke="#FCFCFC" stroke-width="2"/>
<path d="M408.997 372.031L407.123 364.615C404.122 364.615 395.713 363.056 386.032 364.615C376.344 366.173 366.886 370.207 363.375 372.031H408.997Z" fill="#98430D"/>
<path d="M427.752 372.031L425.884 362.664C422.89 362.664 414.468 363.055 404.779 364.614C395.098 366.173 385.64 370.206 382.122 372.031H427.752Z" fill="#98430D"/>
<path d="M434.313 126.575C435.251 114.399 419.938 115.335 391.188 117.516C385.458 116.894 372.37 117.202 365.872 123.451C357.743 131.259 355.869 191.219 357.743 196.21C359.625 201.208 368.999 195.895 380.87 196.21C392.747 196.525 408.997 204.64 414.314 198.083C418.56 192.834 418.476 167.481 415.559 154.675L424.94 158.422C429.689 149.929 434.208 133.754 434.313 126.568V126.575Z" fill="#98430D"/>
<path d="M406.5 134.068L400.561 150.313L392.125 174.666H377.75L406.5 134.068Z" fill="#98430D"/>
<path d="M431.291 194.175L423.429 194.559C415.454 194.951 409.48 202.004 410.417 209.923L413.495 235.905C414.321 242.832 420.197 248.012 427.178 247.949C427.808 247.949 428.43 247.935 429.06 247.935C436.384 247.879 442.645 242.343 443.316 235.053L445.68 209.175C446.443 200.843 439.658 193.769 431.291 194.175Z" fill="#FD7016"/>
<path d="M421.498 209.959L378.05 118.627C377.183 116.81 378.512 114.713 380.527 114.713C381.513 114.713 382.415 115.223 382.898 116.083C399.834 146.245 427.01 204.57 428.031 206.772C428.066 206.842 428.08 206.876 428.115 206.946C430.466 212.182 423.673 214.922 421.498 209.959Z" fill="#FCFCFC"/>
<path d="M315.247 122.584C315.247 120.305 317.094 118.453 319.374 118.453H379.24C381.52 118.453 383.374 120.298 383.374 122.584V180.532C383.374 182.81 381.52 184.663 379.24 184.663H319.374C317.094 184.663 315.247 182.817 315.247 180.532V122.584Z" fill="#FFE2D0"/>
<path d="M362.745 122.584C362.745 120.305 364.599 118.453 366.879 118.453H379.24C381.52 118.453 383.374 120.298 383.374 122.584V180.532C383.374 182.81 381.52 184.663 379.24 184.663H366.879C364.599 184.663 362.745 182.817 362.745 180.532V122.584Z" fill="#FEA973"/>
<path opacity="0.3" d="M355.316 140.248C355.316 144.323 352.014 147.622 347.936 147.622C343.858 147.622 340.556 144.323 340.556 140.248C340.556 136.172 343.858 132.873 347.936 132.873C352.014 132.873 355.316 136.172 355.316 140.248Z" fill="#FEA973"/>
<path d="M401.31 149.559L424.751 157.366L412.355 180.923C408.333 188.563 400.037 192.96 391.446 192.002L355.372 187.969C355.372 187.969 332.868 185.781 332.868 183.908C332.868 182.405 337.038 182.034 339.122 182.034C336.828 181.72 332.372 180.783 332.868 179.539C333.372 178.288 336.828 178.183 338.493 178.288C336.618 178.078 332.868 177.288 332.868 175.792C332.868 173.919 340.059 174.233 342.557 174.233C345.054 174.233 345.998 173.919 345.054 169.55C344.117 165.181 347.244 164.245 348.811 167.991C350.056 170.99 352.455 171.948 353.497 172.053C360.059 172.989 390.999 172.053 390.999 172.053L401.31 149.566V149.559Z" fill="#FEC6A2"/>
<path opacity="0.3" d="M409.935 184.606C405.563 189.94 398.715 192.819 391.67 192.03L391.146 191.974C390.992 191.268 390.908 190.534 390.908 189.779C390.908 184.138 395.483 179.566 401.128 179.566C404.877 179.566 408.165 181.594 409.935 184.606Z" fill="#FD7016"/>
<path d="M403.373 87.228C403.87 92.7222 402.331 98.6777 401.499 100.97L394.308 96.9092L393.062 87.228C396.287 84.9353 402.877 81.7338 403.373 87.228Z" fill="#FD7016"/>
<path d="M401.813 116.895L388.998 123.144L387.438 117.524L388.376 107.528C387.536 107.738 385.934 108.213 382.437 108.465C374.938 109.213 378.058 95.2466 380.562 88.1657C385.459 85.7681 395.189 82.1682 394.937 86.9144C394.685 91.6607 397.749 96.1762 399.309 97.8469C400.142 97.015 402.184 96.0994 403.688 99.0981C405.185 102.097 403.059 103.054 401.813 103.159V116.902V116.895Z" fill="#FEC6A2"/>
<path d="M387.648 114.517L388.271 108.268L396.084 104.207L387.648 114.517Z" fill="#FEC6A2"/>
<path d="M370.874 88.7947H403.688C404.73 84.6287 404.248 76.1777 394 75.6814C383.745 75.1851 380.352 82.7623 379.932 86.6139L370.874 88.8017V88.7947Z" fill="#CA5A12"/>
<path d="M34.8994 199.376C50.0206 199.376 62.2787 187.127 62.2787 172.017C62.2787 156.907 50.0206 144.658 34.8994 144.658C19.7782 144.658 7.52002 156.907 7.52002 172.017C7.52002 187.127 19.7782 199.376 34.8994 199.376Z" fill="#FEA973"/>
<path opacity="0.5" d="M40.4676 165.732H28.8975C26.596 165.732 24.6024 167.34 24.1197 169.584L22.4059 177.504C21.7483 180.551 24.0708 183.424 27.1836 183.424H42.4333C45.6091 183.424 47.9455 180.446 47.183 177.364L45.2244 169.451C44.6857 167.27 42.7271 165.739 40.4746 165.739L40.4676 165.732Z" fill="#FCFCFC"/>
<path fill-rule="evenodd" clip-rule="evenodd" d="M25.3859 166.601C25.3579 166.314 25.3439 166.028 25.3439 165.734C25.3439 160.429 29.646 156.137 34.9484 156.137C40.2508 156.137 44.5528 160.436 44.5528 165.734C44.5528 166.223 44.5179 166.706 44.4479 167.181C44.4829 167.237 44.5178 167.293 44.5528 167.349C43.8603 172.004 39.838 175.583 34.9833 175.583C29.8838 175.583 25.7007 171.641 25.3369 166.636C25.3509 166.622 25.3649 166.615 25.3789 166.601H25.3859ZM28.2539 165.734H41.6498C41.6498 162.036 38.6488 159.045 34.9554 159.045C31.2619 159.045 28.2609 162.043 28.2609 165.734H28.2539Z" fill="#FCFCFC"/>
<path d="M264.679 324.078C264.679 327.622 261.804 330.502 258.257 330.502C254.71 330.502 251.828 327.629 251.828 324.078C251.828 320.527 254.703 317.654 258.257 317.654C261.811 317.654 264.679 320.527 264.679 324.078Z" fill="#CA5A12"/>
<path d="M59.5646 270.165C59.5646 271.898 58.1586 273.296 56.4307 273.296C54.7029 273.296 53.2969 271.891 53.2969 270.165C53.2969 268.438 54.7029 267.033 56.4307 267.033C58.1586 267.033 59.5646 268.438 59.5646 270.165Z" fill="#FEA973"/>
<path d="M161.548 38.4949C161.548 40.6898 159.764 42.4722 157.568 42.4722C155.371 42.4722 153.587 40.6898 153.587 38.4949C153.587 36.3 155.371 34.5176 157.568 34.5176C159.764 34.5176 161.548 36.3 161.548 38.4949Z" fill="#FEA973"/>
<path d="M356.365 273.296C356.365 275.491 354.588 277.273 352.385 277.273C350.181 277.273 348.412 275.491 348.412 273.296C348.412 271.101 350.188 269.318 352.385 269.318C354.581 269.318 356.365 271.101 356.365 273.296Z" fill="#FEA973"/>
<path d="M365.522 72.648C365.522 77.7018 361.423 81.798 356.365 81.798C351.308 81.798 347.208 77.7018 347.208 72.648C347.208 67.5942 351.308 63.498 356.365 63.498C361.423 63.498 365.522 67.5942 365.522 72.648Z" fill="#FEA973"/>
</g>
<defs>
<clipPath id="clip0_225_11544">
<rect width="483" height="378" fill="white"/>
</clipPath>
</defs>
</svg>
