<svg width="17" height="16" viewBox="0 0 17 16" fill="none" xmlns="http://www.w3.org/2000/svg">
<g clip-path="url(#clip0_124_44677)">
<path d="M1.87939 6.33333V2.66667C1.87939 2.48986 1.94963 2.32029 2.07466 2.19526C2.19968 2.07024 2.36925 2 2.54606 2H14.5461C14.7229 2 14.8924 2.07024 15.0175 2.19526C15.1425 2.32029 15.2127 2.48986 15.2127 2.66667V6.33333C14.7707 6.33333 14.3468 6.50893 14.0342 6.82149C13.7217 7.13405 13.5461 7.55797 13.5461 8C13.5461 8.44203 13.7217 8.86595 14.0342 9.17851C14.3468 9.49107 14.7707 9.66667 15.2127 9.66667V13.3333C15.2127 13.5101 15.1425 13.6797 15.0175 13.8047C14.8924 13.9298 14.7229 14 14.5461 14H2.54606C2.36925 14 2.19968 13.9298 2.07466 13.8047C1.94963 13.6797 1.87939 13.5101 1.87939 13.3333V9.66667C2.32142 9.66667 2.74535 9.49107 3.05791 9.17851C3.37047 8.86595 3.54606 8.44203 3.54606 8C3.54606 7.55797 3.37047 7.13405 3.05791 6.82149C2.74535 6.50893 2.32142 6.33333 1.87939 6.33333ZM3.21273 5.312C3.71353 5.5602 4.13504 5.94337 4.42973 6.41831C4.72442 6.89324 4.88057 7.44107 4.88057 8C4.88057 8.55894 4.72442 9.10676 4.42973 9.58169C4.13504 10.0566 3.71353 10.4398 3.21273 10.688V12.6667H13.8794V10.688C13.3786 10.4398 12.9571 10.0566 12.6624 9.58169C12.3677 9.10676 12.2116 8.55894 12.2116 8C12.2116 7.44107 12.3677 6.89324 12.6624 6.41831C12.9571 5.94337 13.3786 5.5602 13.8794 5.312V3.33333H3.21273V5.312ZM6.54606 6H10.5461V7.33333H6.54606V6ZM6.54606 8.66667H10.5461V10H6.54606V8.66667Z" fill="#0B0A0A"/>
</g>
<defs>
<clipPath id="clip0_124_44677">
<rect width="16" height="16" fill="white" transform="translate(0.545898)"/>
</clipPath>
</defs>
</svg>
