<svg width="20" height="20" viewBox="0 0 20 20" fill="none" xmlns="http://www.w3.org/2000/svg">
<path d="M16.6669 2.77783H3.33355C2.10625 2.77783 1.11133 3.77275 1.11133 5.00005V12.7778C1.11133 14.0051 2.10625 15.0001 3.33355 15.0001H16.6669C17.8942 15.0001 18.8891 14.0051 18.8891 12.7778V5.00005C18.8891 3.77275 17.8942 2.77783 16.6669 2.77783Z" fill="#F98707"/>
<path d="M1.11133 12.7778H18.8891C18.8891 14.0045 17.8936 15.0001 16.6669 15.0001H3.33355C2.10688 15.0001 1.11133 14.0045 1.11133 12.7778Z" fill="#FFAB20"/>
<path d="M12.2223 15H7.77789C7.77789 16.2267 6.78233 17.2222 5.55566 17.2222H14.4446C13.2179 17.2222 12.2223 16.2267 12.2223 15Z" fill="#FFC043"/>
<path d="M14.9999 17.2222H4.99989C4.69307 17.2222 4.44434 17.4709 4.44434 17.7777C4.44434 18.0845 4.69307 18.3333 4.99989 18.3333H14.9999C15.3067 18.3333 15.5554 18.0845 15.5554 17.7777C15.5554 17.4709 15.3067 17.2222 14.9999 17.2222Z" fill="#DD6102"/>
<path d="M0 3.88867H2.22222V4.99978C2.22222 5.61312 1.72444 6.11089 1.11111 6.11089C0.497778 6.11089 0 5.61312 0 4.99978V3.88867Z" fill="#FFC043"/>
<path d="M2.22217 3.88867H4.44439V4.99978C4.44439 5.61312 3.94661 6.11089 3.33328 6.11089C2.71995 6.11089 2.22217 5.61312 2.22217 4.99978V3.88867Z" fill="#B74106"/>
<path d="M4.44434 3.88867H6.66656V4.99978C6.66656 5.61312 6.16878 6.11089 5.55545 6.11089C4.94211 6.11089 4.44434 5.61312 4.44434 4.99978V3.88867Z" fill="#DD6102"/>
<path d="M6.6665 3.88867H8.88873V4.99978C8.88873 5.61312 8.39095 6.11089 7.77762 6.11089C7.16428 6.11089 6.6665 5.61312 6.6665 4.99978V3.88867Z" fill="#DD6102"/>
<path d="M8.88867 3.88867H11.1109V4.99978C11.1109 5.61312 10.6131 6.11089 9.99978 6.11089C9.38645 6.11089 8.88867 5.61312 8.88867 4.99978V3.88867Z" fill="#98430D"/>
<path d="M11.1113 3.88867H13.3336V4.99978C13.3336 5.61312 12.8358 6.11089 12.2224 6.11089C11.6091 6.11089 11.1113 5.61312 11.1113 4.99978V3.88867Z" fill="#CA5A12"/>
<path d="M13.3335 3.88867H15.5557V4.99978C15.5557 5.61312 15.0579 6.11089 14.4446 6.11089C13.8313 6.11089 13.3335 5.61312 13.3335 4.99978V3.88867Z" fill="#98430D"/>
<path d="M15.5557 3.88867H17.7779V4.99978C17.7779 5.61312 17.2801 6.11089 16.6668 6.11089C16.0534 6.11089 15.5557 5.61312 15.5557 4.99978V3.88867Z" fill="#CA5A12"/>
<path d="M17.7778 3.88867H20.0001V4.99978C20.0001 5.61312 19.5023 6.11089 18.8889 6.11089C18.2756 6.11089 17.7778 5.61312 17.7778 4.99978V3.88867Z" fill="#98430D"/>
<path d="M4.44439 1.6665H2.22217V3.88873H4.44439V1.6665Z" fill="#FEA973"/>
<path d="M6.66656 1.6665H4.44434V3.88873H6.66656V1.6665Z" fill="#FD7016"/>
<path d="M8.88873 1.6665H6.6665V3.88873H8.88873V1.6665Z" fill="#FEA973"/>
<path d="M11.1109 1.6665H8.88867V3.88873H11.1109V1.6665Z" fill="#FD7016"/>
<path d="M13.3336 1.6665H11.1113V3.88873H13.3336V1.6665Z" fill="#FEA973"/>
<path d="M15.5557 1.6665H13.3335V3.88873H15.5557V1.6665Z" fill="#FD7016"/>
<path d="M17.7779 1.6665H15.5557V3.88873H17.7779V1.6665Z" fill="#FEA973"/>
<path d="M0 3.88873L0.804443 2.27984C0.993332 1.90428 1.37778 1.6665 1.79778 1.6665H2.22222V3.88873H0Z" fill="#FD7016"/>
<path d="M20.0001 3.88873L19.1956 2.27984C19.0067 1.90428 18.6223 1.6665 18.2023 1.6665H17.7778V3.88873H20.0001Z" fill="#FD7016"/>
<path d="M10.9867 7.39746C10.5801 7.39746 10.2245 7.59524 10.0001 7.89746C9.77561 7.59524 9.41783 7.39746 9.01339 7.39746C8.33116 7.39746 7.77783 7.95079 7.77783 8.63302C7.77783 9.31524 8.33116 9.86857 9.01339 9.86857C9.42005 9.86857 9.77561 9.67079 10.0001 9.36857C10.2245 9.67079 10.5823 9.86857 10.9867 9.86857C11.6689 9.86857 12.2223 9.31524 12.2223 8.63302C12.2223 7.95079 11.6689 7.39746 10.9867 7.39746Z" fill="#FCFCFC"/>
<path d="M8.07986 9.44177L9.67986 11.0929C9.85542 11.2729 10.1443 11.2729 10.3176 11.0929L11.9176 9.44177L9.99764 9.36621L8.07764 9.44177H8.07986Z" fill="#FCFCFC"/>
</svg>
