<svg width="24" height="22" viewBox="0 0 24 22" fill="none" xmlns="http://www.w3.org/2000/svg">
<path d="M19.7647 0.333496H2.82353C1.26414 0.333496 0 1.5274 0 3.00016V12.3335C0 13.8063 1.26414 15.0002 2.82353 15.0002H19.7647C21.3241 15.0002 22.5882 13.8063 22.5882 12.3335V3.00016C22.5882 1.5274 21.3241 0.333496 19.7647 0.333496Z" fill="#F98707"/>
<path d="M0 12.3335H22.5882C22.5882 13.8055 21.3233 15.0002 19.7647 15.0002H2.82353C1.26494 15.0002 0 13.8055 0 12.3335Z" fill="#FFAB20"/>
<path d="M14.1176 15H8.4705C8.4705 16.472 7.20556 17.6667 5.64697 17.6667H16.9411C15.3825 17.6667 14.1176 16.472 14.1176 15Z" fill="#FFC043"/>
<path d="M17.6471 17.667H4.94123C4.55139 17.667 4.23535 17.9655 4.23535 18.3337C4.23535 18.7018 4.55139 19.0003 4.94123 19.0003H17.6471C18.037 19.0003 18.353 18.7018 18.353 18.3337C18.353 17.9655 18.037 17.667 17.6471 17.667Z" fill="#DD6102"/>
<path d="M15.5295 12.3335H4.23535L5.56806 4.77883C5.61323 4.52283 5.85041 4.3335 6.12429 4.3335H13.6377C13.9144 4.3335 14.1488 4.52283 14.1939 4.77883L15.5266 12.3335H15.5295Z" fill="#FFC043"/>
<path fill-rule="evenodd" clip-rule="evenodd" d="M10.0235 2.60023C9.01053 2.60023 8.18824 3.37684 8.18824 4.33356V6.46689C8.18824 6.61417 8.06183 6.73356 7.90589 6.73356C7.74995 6.73356 7.62354 6.61417 7.62354 6.46689V4.33356C7.62354 3.08229 8.69865 2.06689 10.0235 2.06689C11.3484 2.06689 12.4235 3.08229 12.4235 4.33356V6.46689C12.4235 6.61417 12.2971 6.73356 12.1412 6.73356C11.9852 6.73356 11.8588 6.61417 11.8588 6.46689V4.33356C11.8588 3.37684 11.0365 2.60023 10.0235 2.60023Z" fill="#FCFCFC"/>
<path d="M18.3529 12.3333H9.88232L10.8536 7.43467C10.9044 7.18133 11.136 7 11.4099 7H16.8254C17.0964 7 17.3308 7.184 17.3816 7.43467L18.3529 12.3333Z" fill="#B74106"/>
<path fill-rule="evenodd" clip-rule="evenodd" d="M12.7057 8.06689C12.8616 8.06689 12.988 8.18629 12.988 8.33356V9.66689C12.988 10.2556 13.4941 10.7336 14.1175 10.7336C14.7408 10.7336 15.2469 10.2556 15.2469 9.66689V8.33356C15.2469 8.18629 15.3733 8.06689 15.5292 8.06689C15.6852 8.06689 15.8116 8.18629 15.8116 8.33356V9.66689C15.8116 10.5502 15.0527 11.2669 14.1175 11.2669C13.1822 11.2669 12.4233 10.5502 12.4233 9.66689V8.33356C12.4233 8.18629 12.5498 8.06689 12.7057 8.06689Z" fill="#FCFCFC"/>
<path d="M19.7646 21.667C22.1037 21.667 23.9999 19.8761 23.9999 17.667C23.9999 15.4579 22.1037 13.667 19.7646 13.667C17.4255 13.667 15.5293 15.4579 15.5293 17.667C15.5293 19.8761 17.4255 21.667 19.7646 21.667Z" fill="#DD6102"/>
<path fill-rule="evenodd" clip-rule="evenodd" d="M21.4606 16.5345C21.571 16.6386 21.5711 16.8074 21.4609 16.9116L19.4647 18.7996C19.4117 18.8498 19.3398 18.8779 19.2648 18.8779C19.1898 18.8779 19.1179 18.8497 19.065 18.7995L18.0683 17.8555C17.9581 17.7512 17.9584 17.5824 18.0688 17.4784C18.1792 17.3744 18.358 17.3746 18.4681 17.4789L19.265 18.2337L21.0613 16.5348C21.1715 16.4306 21.3503 16.4304 21.4606 16.5345Z" fill="#FCFCFC"/>
</svg>
