<svg width="20" height="20" viewBox="0 0 20 20" fill="none" xmlns="http://www.w3.org/2000/svg">
<g id="Group 837">
<path id="Vector" d="M4.16577 3.25586C2.78502 3.25586 1.66577 4.37511 1.66577 5.75586V13.8809C1.66577 15.3766 2.87836 16.5892 4.37411 16.5892H15.6241C17.1199 16.5892 18.3324 15.3766 18.3324 13.8809V7.42252C18.3324 6.96228 17.9594 6.58919 17.4991 6.58919H16.6658V4.08919C16.6658 3.62894 16.2927 3.25586 15.8324 3.25586H4.16577ZM4.16577 4.92253H14.9991V6.58919H4.16577C3.70552 6.58919 3.33244 6.21611 3.33244 5.75586C3.33244 5.29561 3.70552 4.92253 4.16577 4.92253ZM4.16577 8.25586H16.6658V13.8809C16.6658 14.4562 16.1994 14.9225 15.6241 14.9225H4.37411C3.79877 14.9225 3.33244 14.4562 3.33244 13.8809L3.33727 8.10928C3.33727 8.10928 3.63561 8.25844 4.16577 8.25586ZM14.1658 10.7559C13.7055 10.7559 13.3324 11.1289 13.3324 11.5892C13.3324 12.0494 13.7055 12.4225 14.1658 12.4225C14.626 12.4225 14.9991 12.0494 14.9991 11.5892C14.9991 11.1289 14.626 10.7559 14.1658 10.7559Z" fill="#0B0A0A"/>
</g>
</svg>
