<svg width="24" height="24" viewBox="0 0 24 24" fill="none" xmlns="http://www.w3.org/2000/svg">
<g clip-path="url(#clip0_191_19517)">
<path d="M12.0005 3C11.1265 3 10.2635 3.31547 9.59632 3.94737L2.29291 10.8452C1.90236 11.2156 1.90236 11.837 2.29291 12.2075L4.00988 13.836V17.2105C4.00988 19.3033 5.79878 21 8.00519 21H15.9958C18.2022 21 19.9911 19.3033 19.9911 17.2105V13.836L21.7071 12.2075C22.0976 11.837 22.0976 11.2156 21.7071 10.8452C21.3685 10.524 20.1279 9.3417 18.9923 8.26927V5.84211C18.9923 5.31916 18.5448 4.89474 17.9935 4.89474C17.4411 4.89474 16.9946 5.31916 16.9946 5.84211V6.40484C15.9259 5.39589 14.7273 4.25432 14.4037 3.94737C13.7365 3.31547 12.8735 3 12.0005 3ZM12.0005 4.89474C12.3631 4.89474 12.7226 5.01695 12.9993 5.27937C13.5327 5.78622 15.5453 7.68567 17.2753 9.33599C17.2823 9.34262 17.2683 9.35873 17.2753 9.36536C17.2813 9.37105 17.3003 9.35873 17.3063 9.36536C18.2202 10.236 19.0203 11.0204 19.5536 11.5263L18.2741 12.7399C18.0873 12.918 17.9935 13.17 17.9935 13.4211V17.2105C17.9935 18.2574 17.0985 19.1053 15.9958 19.1053H8.00519C6.90149 19.1053 6.00754 18.2574 6.00754 17.2105V13.4211C6.00754 13.17 5.91365 12.918 5.72587 12.7399L4.44638 11.5263L11.0017 5.27937C11.2783 5.01695 11.6379 4.89474 12.0005 4.89474Z" fill="#0B0A0A"/>
</g>
<defs>
<clipPath id="clip0_191_19517">
<rect width="24" height="24" fill="white"/>
</clipPath>
</defs>
</svg>
