<svg width="20" height="20" viewBox="0 0 20 20" fill="none" xmlns="http://www.w3.org/2000/svg">
<path d="M5.0118 3.25586C3.17088 3.25586 1.67847 4.74836 1.67847 6.58919V11.5892C1.67847 12.8525 2.30505 13.8775 3.38813 14.4867C3.57305 15.685 4.59513 16.5892 5.84513 16.5892C6.90163 16.5892 7.84447 15.9275 8.1943 14.9217L10.9921 14.9208C11.3699 15.9158 12.2886 16.5892 13.3451 16.5892C14.4312 16.5892 15.3458 15.9125 15.7191 14.8767C17.3243 14.6517 18.3451 13.52 18.3451 11.5892C18.3451 11.5892 18.3451 11.5892 18.3451 10.7559C18.3451 8.62919 16.3054 6.58919 14.1785 6.58919C14.1785 4.74836 12.6861 3.25586 10.8451 3.25586C10.116 3.25586 5.74097 3.25586 5.0118 3.25586ZM5.0118 4.92253C5.74097 4.92253 10.116 4.92253 10.8451 4.92253C11.7656 4.92253 12.5119 5.66836 12.5118 6.58919C12.5118 6.58919 12.5118 7.23919 12.5118 7.42253C12.5118 8.41586 12.5161 10.92 12.5161 11.7308C11.8652 11.9492 11.2397 12.5092 10.9852 13.2509C10.9852 13.2509 8.3918 13.2534 8.19972 13.2625C7.78363 12.0692 6.67238 11.5792 5.84513 11.5892C5.01788 11.5992 4.25797 11.9909 3.76863 12.7042C3.53547 12.5259 3.34513 12.0675 3.34513 11.5892V6.58919C3.34513 5.66836 4.0913 4.92253 5.0118 4.92253ZM14.1785 8.25586C15.3849 8.25586 16.6785 9.54919 16.6785 10.7559C16.6785 11.5892 16.6785 11.5892 16.6785 11.5892C16.6785 12.5867 16.3819 13.02 15.6787 13.1867C15.4657 12.5692 14.8265 11.94 14.1837 11.7417L14.1785 8.25586ZM5.84513 13.2559C6.28955 13.2492 6.6778 13.6259 6.67847 14.0892C6.67847 14.5492 6.30538 14.9225 5.84513 14.9225C5.38488 14.9225 5.0118 14.5492 5.0118 14.0892C5.08072 13.63 5.4128 13.2625 5.84513 13.2559ZM13.3451 13.2559C13.8054 13.2559 14.1785 13.6292 14.1785 14.0892C14.1785 14.5492 13.8054 14.9225 13.3451 14.9225C12.8849 14.9225 12.5118 14.5492 12.5118 14.0892C12.5118 13.8592 12.5954 13.6409 12.7461 13.49C12.897 13.3392 13.1151 13.2559 13.3451 13.2559Z" fill="#0B0A0A"/>
</svg>
