<svg width="488" height="395" viewBox="0 0 488 395" fill="none" xmlns="http://www.w3.org/2000/svg">
<path opacity="0.3" d="M339.602 155.968C343.653 155.968 346.937 152.684 346.937 148.634C346.937 144.583 343.653 141.299 339.602 141.299C335.551 141.299 332.267 144.583 332.267 148.634C332.267 152.684 335.551 155.968 339.602 155.968Z" fill="#FCFCFC"/>
<path d="M28.0527 76.5391H138.895V220.224H28.0527V76.5391Z" fill="#FEA973"/>
<path opacity="0.1" d="M479.859 383.785C479.859 385.974 372.437 394.014 239.933 394.014C107.428 394.014 0 385.981 0 383.785C0 381.589 107.421 379.816 239.933 379.816C372.444 379.816 479.859 381.595 479.859 383.785Z" fill="#FD7016"/>
<path d="M39.5957 254.42C39.5957 253.462 40.3757 252.682 41.3336 252.682H102.694C103.652 252.682 104.432 253.462 104.432 254.42V380.034C104.432 380.992 103.652 381.772 102.694 381.772H41.3336C40.3757 381.772 39.5957 380.992 39.5957 380.034V254.42Z" fill="#FEA973"/>
<path d="M42.4897 257.896C42.4897 256.938 43.2698 256.158 44.2277 256.158H99.2178C100.176 256.158 100.956 256.938 100.956 257.896V307.098C100.956 308.056 100.176 308.836 99.2178 308.836H44.2277C43.2698 308.836 42.4897 308.056 42.4897 307.098V257.896Z" fill="#FD7016"/>
<path d="M43.0649 317.517C43.0649 316.559 43.8449 315.779 44.8028 315.779H99.793C100.751 315.779 101.531 316.559 101.531 317.517V366.719C101.531 367.677 100.751 368.457 99.793 368.457H44.8028C43.8449 368.457 43.0649 367.677 43.0649 366.719V317.517Z" fill="#FEA973"/>
<path d="M19.0488 257.792C19.0488 257.519 19.2404 257.279 19.5073 257.225L40.6289 252.839C40.9915 252.763 41.3268 253.037 41.3268 253.407L40.752 380.978C40.752 381.272 40.5331 381.512 40.2457 381.546L20.5541 384.009C20.212 384.05 19.9041 383.783 19.9041 383.441L19.042 257.799L19.0488 257.792Z" fill="#FEA973"/>
<path d="M63.9327 277.341C63.9532 276.397 64.7263 275.645 65.6705 275.645H73.3406C74.2848 275.645 75.0579 276.404 75.0785 277.348L75.5985 306.872C75.619 307.844 74.8322 308.637 73.8606 308.637H64.959C63.9806 308.637 63.2006 307.837 63.2211 306.858L63.9327 277.335V277.341Z" fill="#FCFCFC"/>
<path d="M54.3955 277.382C54.3955 276.425 55.1755 275.645 56.1334 275.645H64.556C65.5003 275.645 66.2734 276.404 66.294 277.348L66.814 306.872C66.8277 307.844 66.0476 308.637 65.0761 308.637H56.1334C55.1755 308.637 54.3955 307.857 54.3955 306.899V277.376V277.382Z" fill="#FEA973"/>
<path d="M43.106 277.382C43.106 276.425 43.8859 275.645 44.8438 275.645H53.8481C54.7923 275.645 55.5655 276.404 55.586 277.348L56.106 306.872C56.1265 307.844 55.3397 308.637 54.3681 308.637H44.8438C43.8859 308.637 43.106 307.857 43.106 306.899V277.376V277.382Z" fill="#FD7016"/>
<path d="M407.749 235.03C429.89 292.73 405.156 383.067 324.316 383.067C234.684 383.067 137.239 398.27 118.026 348.199C95.8852 290.493 149.993 217.357 228.561 187.211C307.122 157.064 385.608 177.324 407.749 235.03Z" fill="#FD7016"/>
<path opacity="0.5" d="M109.816 356.383C171.621 368.583 292.158 380.331 349.29 339.962C411.129 296.269 408.132 215.436 372.553 171.988" stroke="#FCFCFC" stroke-linecap="round"/>
<path d="M276.347 299.286C270.558 309.474 252.906 310.863 244.798 310.281L280.11 227.793L360.861 204.352C362.407 205.125 363.871 209.907 357.385 222.873C349.284 239.082 314.553 250.946 305.289 254.71C296.032 258.473 283.586 286.546 276.347 299.279V299.286Z" fill="#98430D"/>
<path d="M237.51 188.419L235.539 209.273V217.374H249.484C249.785 217.374 250.031 217.149 250.058 216.854L252.843 189.602C252.877 189.281 252.638 188.993 252.309 188.966L238.126 187.899C237.818 187.871 237.537 188.111 237.51 188.419Z" fill="#FEA973"/>
<path d="M236.504 245.148L244.222 240.236L251.454 249.787L246.535 265.996C238.235 267.734 219.905 271.265 212.96 271.497C204.278 271.785 200.802 265.996 202.253 257.608C203.635 249.602 230.326 218.532 230.038 217.376C229.751 216.22 230.62 205.512 231.195 203.487C231.776 201.461 244.222 200.305 246.535 201.461C247.944 202.166 244.017 204.657 240.657 206.566C240.096 206.887 240.391 207.797 241.034 207.736C243.346 207.51 245.939 207.38 246.535 207.824C247.369 208.447 244.674 212.238 242.792 214.612C242.525 214.954 242.717 215.392 243.134 215.289C244.544 214.947 246.35 213.873 246.535 215.358C246.754 217.109 241.383 232.894 235.656 244.396C235.389 244.929 236.005 245.477 236.504 245.162V245.148Z" fill="#FCFCFC"/>
<path d="M235.3 268.211C229.224 269.347 222.526 270.496 217.579 271.091C224.353 268.163 241.492 256.566 250.708 248.807L251.003 249.197L235.3 268.218V268.211Z" fill="#CA5A12"/>
<path d="M366.074 207.826C364.22 216.16 335.681 225.096 322.366 228.373L317.447 206.663C317.447 206.663 296.031 209.557 288.792 210.426C281.56 211.295 273.165 212.219 272.008 211.295C271.112 210.577 271.372 208.948 271.981 207.669C272.186 207.238 271.885 206.649 271.413 206.574C270.099 206.369 268.532 205.719 268.532 203.769C268.532 201.025 272.296 201.743 271.139 200.293C269.005 197.624 269.88 197.111 271.139 195.373C283.387 194.894 314.785 190.912 336.55 189.298C363.754 187.272 368.386 197.399 366.074 207.819V207.826Z" fill="#FCFCFC"/>
<path d="M275.039 195.154C281.396 194.709 290.503 193.778 300.396 192.752L294.581 200.586C293.588 202.871 293.061 205.957 292.63 208.523C292.541 209.036 292.459 209.522 292.377 209.98C290.981 210.158 289.764 210.309 288.792 210.425C284.454 210.945 279.699 211.486 276.333 211.636C277.81 208.968 279.5 205.704 278.371 206.08C275.525 207.031 273.076 201.948 275.039 195.147V195.154Z" fill="#CA5A12"/>
<path d="M317.502 206.908L317.447 206.662C317.447 206.662 304.153 208.462 294.97 209.645C302.627 207.038 328.155 202.324 328.155 202.324L317.502 206.908Z" fill="#CA5A12"/>
<path d="M354.271 217.445C344.33 222.248 330.502 226.367 322.366 228.372L321.128 222.905C322.373 224.062 323.885 225.184 326.417 225.184C328.47 225.184 335.907 222.885 342.735 220.777C347.634 219.265 352.219 217.849 354.271 217.445Z" fill="#CA5A12"/>
<path d="M364.5 210.644C365.321 209.699 365.862 208.762 366.074 207.825C367.292 202.337 366.58 196.932 361.668 193.34C358.185 194.544 355.674 197.856 355.674 201.749C355.674 206.634 359.622 210.603 364.5 210.644Z" fill="#CA5A12"/>
<path d="M254.944 279.504C248.457 274.181 234.876 274.968 228.896 276.028C210.463 275.446 172.106 274.639 166.085 276.028C158.559 277.766 129.617 288.187 123.828 292.812C118.04 297.444 62.1806 363.724 60.1553 364.305C58.13 364.887 47.2579 363.621 47.7095 364.305C54.6542 374.726 74.0448 385.721 78.3896 385.434C81.8654 385.201 83.3091 380.801 83.3091 378.776C85.3343 376.751 89.7338 370.901 106.175 353.31C126.722 331.312 171.005 312.497 174.768 311.053C178.531 309.602 224.264 312.791 243.654 311.053C251.263 310.369 264.687 298.799 268.546 294.269C267.581 290.992 261.423 284.834 254.944 279.511V279.504Z" fill="#FCFCFC"/>
<path d="M83.6441 378.44L61.0651 363.545C60.5862 364.01 60.2783 364.277 60.162 364.311C59.1357 364.605 55.8446 364.428 52.9025 364.263C50.0288 364.106 47.4904 363.969 47.7162 364.311C54.6609 374.732 74.0515 385.727 78.3962 385.44C81.872 385.207 83.3157 380.808 83.3157 378.782C83.4184 378.68 83.5278 378.563 83.6441 378.44Z" fill="#FCFCFC"/>
<path d="M202.553 311.141C201.445 311.114 200.35 311.08 199.269 311.052C186.734 310.697 176.464 310.402 174.767 311.052C173.159 311.668 164.155 315.459 152.763 321.316L121.542 295.035C122.589 293.947 123.369 293.188 123.828 292.818C129.616 288.186 158.558 277.765 166.085 276.034C166.564 275.925 167.248 275.829 168.11 275.74L202.553 311.141Z" fill="#98430D"/>
<path d="M243.641 238.211C243.408 239.6 247.404 247.277 249.142 249.5C243.737 255.775 230.326 269.589 229.17 275.836C259.562 278.148 265.549 295.787 267.951 294.939C272.87 293.201 298.925 239.08 300.95 237.055C302.976 235.029 321.21 230.979 322.079 229.241C322.948 227.503 318.603 208.112 318.022 206.662C317.447 205.211 274.321 217.082 269.401 217.082C264.482 217.082 243.928 236.473 243.641 238.211Z" fill="#FEA973"/>
<path d="M248.95 249.248L260.719 232.998L247.465 246.908C248.013 247.852 248.533 248.673 248.95 249.241V249.248Z" fill="#FEA973"/>
<path d="M275.772 202.323C274.068 198.929 275.19 186.401 279.24 180.038C283.291 173.668 285.61 173.093 289.661 172.512C289.661 172.512 293.219 172.135 296.031 173.668C299.213 175.406 300.369 179.997 300.369 189.295C300.369 198.594 294.868 198.847 293.712 199.716C292.788 200.407 291.974 208.884 291.686 213.031L273.527 219.708C273.014 219.893 272.549 219.339 272.829 218.874L280.219 206.305C280.438 205.935 280.198 205.45 279.788 205.34C278.652 205.053 276.75 204.286 275.772 202.323Z" fill="#FCFCFC"/>
<path d="M298.303 175.934C299.787 178.452 300.369 182.687 300.369 189.303C300.369 194.421 298.693 196.795 296.996 198.047C296.838 197.671 296.948 196.905 297.071 196.043C297.256 194.756 297.468 193.251 296.9 192.492C296.387 191.814 295.251 191.814 294.266 191.821C293.383 191.821 292.624 191.821 292.555 191.335C292.446 190.569 292.507 190.049 292.569 189.597C292.658 188.845 292.733 188.256 291.974 186.997C291.105 185.554 285.357 183.426 280.397 185.259C280.178 185.342 279.966 185.424 279.767 185.499C278.242 186.081 277.516 186.354 276.805 185.574C277.441 183.515 278.255 181.599 279.24 180.053C282.579 174.812 284.735 173.491 287.656 172.868C287.752 172.855 287.841 172.834 287.923 172.82C289.367 172.533 295.668 172.82 298.303 175.954V175.934Z" fill="#CA5A12"/>
<path d="M279.062 208.268L280.219 206.298C280.349 206.085 280.321 205.832 280.191 205.634C280.321 205.552 280.397 205.504 280.397 205.504C280.397 205.504 283.585 205.217 287.054 203.479C288.587 202.712 289.613 202.062 290.578 201.447C291.803 200.667 292.931 199.948 294.868 199.141C295.066 199.059 295.189 199.024 295.265 199.018C295.046 199.113 294.84 199.195 294.649 199.271C294.238 199.435 293.91 199.565 293.712 199.715C293.54 199.845 293.376 200.235 293.212 200.817C289.127 203.759 280.445 209.199 279.24 208.398C279.179 208.357 279.117 208.309 279.062 208.268Z" fill="#FCFCFC"/>
<path d="M279.391 200.47C279.254 200.34 279.035 200.347 278.905 200.484C278.782 200.62 278.789 200.839 278.926 200.969L279.391 200.47ZM284.564 199.902C284.68 199.751 284.646 199.539 284.495 199.423C284.345 199.307 284.132 199.341 284.016 199.491L284.564 199.902ZM279.158 200.723L278.926 200.976C278.926 200.976 278.933 200.983 278.939 200.99C278.946 200.997 278.96 201.01 278.98 201.024C279.015 201.051 279.069 201.093 279.131 201.14C279.261 201.236 279.453 201.359 279.685 201.476C280.157 201.701 280.835 201.9 281.615 201.743L281.478 201.072C280.889 201.188 280.369 201.045 279.986 200.86C279.795 200.771 279.637 200.668 279.535 200.593C279.48 200.552 279.446 200.525 279.418 200.504C279.405 200.49 279.398 200.484 279.391 200.484C279.384 200.484 279.384 200.484 279.384 200.484L279.151 200.73L279.158 200.723ZM281.621 201.743C282.545 201.558 283.284 201.093 283.777 200.689C284.03 200.484 284.221 200.292 284.351 200.148C284.42 200.08 284.475 200.018 284.509 199.977C284.522 199.957 284.536 199.936 284.55 199.929L284.557 199.916H284.564C284.564 199.916 284.564 199.916 284.29 199.71L284.016 199.505C284.016 199.505 284.016 199.505 284.016 199.512C284.009 199.519 284.003 199.533 283.982 199.553C283.955 199.587 283.914 199.635 283.859 199.697C283.742 199.82 283.571 199.991 283.353 200.169C282.908 200.531 282.278 200.921 281.491 201.079L281.628 201.749L281.621 201.743Z" fill="#FD7016"/>
<path d="M276.059 183.802C275.73 183.145 274.903 180.326 278.666 176.563C282.422 172.8 286.48 172.513 287.923 172.225C289.374 171.938 294.868 171.644 298.056 174.832C301.388 178.164 302.394 185.827 301.238 190.754C300.082 195.673 297.475 197.698 297.475 197.698C296.004 198.013 297.762 193.648 296.9 192.492C295.935 191.205 292.706 192.375 292.555 191.335C292.268 189.31 293.192 187.859 291.974 185.834C291.105 184.391 286.479 181.202 281.519 183.036C278.953 183.98 277.215 186.122 276.059 183.809V183.802Z" fill="#FD7016"/>
<path d="M127.476 252.728C141.126 251.736 198.675 266.234 229.642 276.169L166.401 279.289C165.901 279.317 165.655 279.905 166.011 280.261C182.541 296.867 215.192 329.12 215.192 330.715C215.192 332.74 199.551 366.471 197.231 364.734C195.425 363.379 196.609 351.918 198.1 346.26C198.162 346.02 198.08 345.781 197.881 345.637C170.875 326.575 119.635 290.893 112.717 282.82C104.035 272.693 111.561 253.877 127.476 252.721V252.728Z" fill="#FCFCFC"/>
<path d="M208.11 322.702C212.428 327.211 215.185 330.263 215.185 330.721C215.185 332.746 199.544 366.478 197.224 364.74C195.418 363.385 196.602 351.925 198.093 346.266C198.148 346.061 198.093 345.856 197.95 345.712L208.103 322.695L208.11 322.702Z" fill="#FCFCFC"/>
<path d="M427.428 294.524C428.728 307.155 437.369 341.509 444.506 357.041H464.19C464.957 356.753 469.281 351.252 480.399 331.568C494.289 306.963 486.215 298.294 479.236 302.338C473.742 305.52 462.452 333.887 461.583 333.6C460.133 333.114 461.871 263.557 460.133 252.267C458.402 240.978 449.658 236.927 446.243 243.003C441.037 252.267 443.445 287.19 444.506 308.414C442.48 301.565 437.499 286.82 433.798 282.653C429.166 277.439 426.271 283.235 427.428 294.517V294.524Z" fill="#FEA973"/>
<path d="M450.185 240.212L451.43 296.057L443.13 277.898C443.151 278.48 443.164 279.061 443.178 279.65L451.471 297.788L452.785 356.808L439.682 316.645V294.271C439.456 293.69 439.23 293.115 438.998 292.554V314.544L428.488 282.318C428.338 282.592 428.194 282.906 428.071 283.249L438.662 315.714L429.918 308.729C429.993 309.078 430.069 309.433 430.151 309.789L439.046 316.898L447.208 341.913L436.822 335.488C436.918 335.817 437.02 336.152 437.116 336.48L447.537 342.926L452.141 357.041H453.476L452.743 324.315L460.947 310.268V308.913L452.716 323.008L452.148 297.754L460.851 266.786C460.831 265.979 460.817 265.185 460.803 264.419L452.1 295.407L450.869 240.191C450.636 240.177 450.41 240.191 450.185 240.212Z" fill="#CA5A12"/>
<path d="M475.788 306.216L474.378 321.385L453.975 357.047H454.762L469.267 331.69L483.088 326.462C483.232 326.161 483.375 325.867 483.512 325.566L469.801 330.752L485.825 302.754C485.661 302.59 485.483 302.44 485.298 302.303L475.199 319.955L476.574 305.094C476.314 305.443 476.054 305.826 475.788 306.223V306.216Z" fill="#CA5A12"/>
<path d="M477.799 351.594H437.054C436.712 351.594 436.446 351.881 436.48 352.223C436.945 356.527 439.696 381.549 440.756 381.986C441.912 382.465 473.461 382.472 474.618 381.986C475.754 381.514 478.271 361.426 478.374 352.169C478.374 351.847 478.121 351.594 477.799 351.594Z" fill="#FCFCFC"/>
<path d="M87.6411 126.393C87.6411 122.616 90.7064 119.551 94.4832 119.551H174.577C178.354 119.551 181.419 122.616 181.419 126.393V201.855C181.419 205.632 178.354 208.697 174.577 208.697H94.4832C90.7064 208.697 87.6411 205.632 87.6411 201.855V126.393Z" fill="#FD8D45"/>
<path d="M119.6 145.078C119.86 143.06 121.584 141.541 123.616 141.541H145.99C148.036 141.541 149.76 143.067 150.013 145.099L154.522 181.855C154.817 184.27 152.935 186.398 150.499 186.398H118.875C116.432 186.398 114.544 184.25 114.859 181.827L119.6 145.072V145.078Z" fill="#FCFCFC"/>
<path d="M153.065 170.018L154.516 181.862C154.81 184.277 152.928 186.405 150.493 186.405H138.368C137.821 185.009 137.52 183.497 137.52 181.91C137.52 175.109 143.035 169.594 149.836 169.594C150.951 169.594 152.032 169.744 153.058 170.018H153.065Z" fill="#FEA973"/>
<path d="M129.275 150.463C129.248 149.662 128.571 149.039 127.777 149.074C126.977 149.101 126.354 149.778 126.388 150.572L129.282 150.463H129.275ZM144.027 150.702C144.13 149.908 143.562 149.183 142.775 149.087C141.981 148.985 141.256 149.546 141.16 150.339L144.034 150.702H144.027ZM127.832 150.524C126.869 150.561 126.388 150.579 126.388 150.579C126.388 150.579 126.388 150.606 126.388 150.62C126.388 150.64 126.388 150.675 126.388 150.709C126.388 150.784 126.402 150.88 126.415 151.01C126.443 151.256 126.491 151.605 126.58 152.016C126.751 152.83 127.072 153.932 127.688 155.033C128.311 156.142 129.248 157.27 130.644 158.085C132.047 158.899 133.825 159.344 136.022 159.207L135.844 156.319C134.14 156.422 132.95 156.08 132.101 155.587C131.246 155.088 130.644 154.383 130.213 153.617C129.782 152.85 129.542 152.05 129.412 151.427C129.351 151.119 129.31 150.866 129.296 150.695C129.289 150.613 129.282 150.545 129.275 150.504C129.275 150.483 129.275 150.469 129.275 150.463C129.275 150.463 129.275 150.463 127.832 150.524ZM136.022 159.207C139.6 158.988 141.632 156.709 142.707 154.691C143.247 153.685 143.569 152.7 143.76 151.975C143.856 151.612 143.918 151.304 143.959 151.085C143.979 150.976 143.993 150.887 144.007 150.825C144.007 150.791 144.013 150.764 144.02 150.75C144.02 150.743 144.02 150.729 144.02 150.723C144.02 150.723 144.02 150.723 144.02 150.716C144.02 150.716 143.541 150.654 142.583 150.531C141.626 150.412 141.147 150.351 141.147 150.346C141.147 150.346 141.147 150.367 141.147 150.387C141.147 150.421 141.133 150.483 141.119 150.558C141.092 150.716 141.037 150.948 140.962 151.236C140.811 151.81 140.558 152.57 140.154 153.329C139.354 154.835 138.054 156.183 135.844 156.319L136.022 159.207Z" fill="#98430D"/>
<path d="M201.671 77.1898C201.671 73.4129 204.737 70.3477 208.514 70.3477H275.293C279.069 70.3477 282.135 73.4129 282.135 77.1898V139.918C282.135 143.695 279.069 146.76 275.293 146.76H208.514C204.737 146.76 201.671 143.695 201.671 139.918V77.1898Z" fill="#FEA973"/>
<path d="M219.618 98.4474C219.194 97.3116 220.035 96.1074 221.247 96.1074H255.19C255.519 96.1074 255.786 96.3811 255.772 96.7164L254.766 118.242C254.698 119.788 253.425 120.999 251.879 120.999H230.025C228.814 120.999 227.733 120.246 227.309 119.117L219.625 98.4543L219.618 98.4474Z" fill="#FCFCFC"/>
<path d="M237.565 123.019C237.565 124.935 236.005 126.495 234.089 126.495C232.173 126.495 230.62 124.941 230.62 123.019C230.62 121.096 232.173 119.543 234.089 119.543C236.005 119.543 237.565 121.096 237.565 123.019Z" fill="#FCFCFC"/>
<path d="M251.454 123.019C251.454 124.935 249.901 126.495 247.985 126.495C246.069 126.495 244.51 124.941 244.51 123.019C244.51 121.096 246.063 119.543 247.985 119.543C249.908 119.543 251.454 121.096 251.454 123.019Z" fill="#FCFCFC"/>
<path d="M263.031 88.8691H254.061L252.939 119.392H229.122" stroke="#FCFCFC" stroke-width="4.23" stroke-linecap="round" stroke-linejoin="round"/>
<path d="M173.885 70.3477C173.885 88.2535 159.373 102.766 141.467 102.766C123.561 102.766 109.049 88.2535 109.049 70.3477C109.049 52.4418 123.561 37.9297 141.467 37.9297C159.373 37.9297 173.885 52.4418 173.885 70.3477Z" fill="#FD7016"/>
<path d="M136.555 74.9733L139.593 72.2296L140.831 71.0664" stroke="#FCFCFC" stroke-width="2.54"/>
<path d="M157.683 63.6898C157.683 69.2867 153.147 73.823 147.55 73.823C141.953 73.823 137.417 69.2867 137.417 63.6898C137.417 58.093 141.953 53.5566 147.55 53.5566C153.147 53.5566 157.683 58.093 157.683 63.6898Z" fill="#FEA973"/>
<path d="M138.477 75.1019L135.72 72.7551C134.933 72.0846 133.736 72.2488 133.154 73.1109L126.175 83.4699C125.662 84.2293 125.826 85.2488 126.552 85.8099L126.757 85.9672C127.407 86.4736 128.324 86.453 128.953 85.9125L138.491 77.743C139.298 77.052 139.298 75.793 138.491 75.1019H138.477Z" fill="#FCFCFC"/>
<path d="M371.863 0.59375V113.475" stroke="#FCFCFC" stroke-width="2.54"/>
<path d="M377.651 127.946C377.651 130.984 375.188 133.447 372.15 133.447C369.112 133.447 366.649 130.984 366.649 127.946C366.649 124.908 369.112 122.445 372.15 122.445C375.188 122.445 377.651 124.908 377.651 127.946Z" fill="#FD7016"/>
<path d="M357.029 125.051L370.487 112.461C371.11 111.879 372.068 111.832 372.738 112.358L387.504 123.867C388.776 124.859 388.119 126.912 386.498 126.973L358.281 128.061C356.673 128.123 355.852 126.159 357.029 125.057V125.051Z" fill="#FEA973"/>
</svg>
