<svg width="20" height="20" viewBox="0 0 20 20" fill="none" xmlns="http://www.w3.org/2000/svg">
<g id="Group 823">
<path id="Vector" d="M8.33235 1.62891C6.9516 1.62891 5.83236 2.74807 5.83236 4.12891V4.96224H4.99902C3.61827 4.96224 2.49902 6.0814 2.49902 7.46224V15.7956C2.49902 17.1764 3.61827 18.2956 4.99902 18.2956H14.999C16.3976 18.2989 17.5167 17.1656 17.499 15.7956V6.6289V4.12891C17.499 2.74807 16.3797 1.62891 14.999 1.62891H8.33235ZM8.33235 3.29557H14.999C15.4592 3.29557 15.8323 3.66891 15.8323 4.12891V6.6289V15.7956C15.8323 16.2556 15.4592 16.6289 14.999 16.6289C14.5388 16.6289 14.1656 16.2556 14.1657 15.7956V9.96224V7.46224C14.1657 6.0814 13.0464 4.96224 11.6657 4.96224H7.49902V4.12891C7.49902 3.66891 7.8721 3.29557 8.33235 3.29557ZM4.99902 6.6289H11.6657C12.1259 6.6289 12.499 7.00224 12.499 7.46224V9.96224V15.7956C12.499 16.1197 12.5273 16.3431 12.6396 16.6272L4.99902 16.6289C4.53877 16.6289 4.16561 16.2556 4.16569 15.7956V7.46224C4.16569 7.00224 4.53877 6.6289 4.99902 6.6289ZM5.83236 7.46224C5.37211 7.46224 4.99902 7.83557 4.99902 8.29557V9.96224C4.99894 10.4222 5.37211 10.7956 5.83236 10.7956H6.66569C7.12585 10.7956 7.49902 10.4222 7.49902 9.96224V8.29557C7.49902 7.83557 7.12585 7.46224 6.66569 7.46224H5.83236ZM9.16569 9.1289C8.70544 9.1289 8.33227 9.50224 8.33235 9.96224C8.33235 10.4222 8.70544 10.7956 9.16569 10.7956H10.8324C11.2925 10.7956 11.6657 10.4222 11.6657 9.96224C11.6657 9.50224 11.2925 9.1289 10.8324 9.1289H9.16569ZM5.83236 11.6289C5.37211 11.6289 4.99894 12.0022 4.99902 12.4622C4.99902 12.9222 5.37211 13.2956 5.83236 13.2956H10.8324C11.2925 13.2956 11.6657 12.9222 11.6657 12.4622C11.6657 12.0022 11.2925 11.6289 10.8324 11.6289H5.83236ZM5.83236 14.1289C5.37211 14.1289 4.99894 14.5022 4.99902 14.9622C4.99902 15.4222 5.37211 15.7956 5.83236 15.7956H10.8324C11.2925 15.7956 11.6657 15.4222 11.6657 14.9622C11.6657 14.5022 11.2925 14.1289 10.8324 14.1289H5.83236Z" fill="#0B0A0A"/>
</g>
</svg>
