<svg width="40" height="40" viewBox="0 0 40 40" fill="none" xmlns="http://www.w3.org/2000/svg">
<rect width="40" height="40" rx="20" fill="#FCE6E4"/>
<path d="M13.3319 12.4922C12.8716 12.4922 12.4985 12.8655 12.4985 13.3255V24.1589C12.4985 25.9997 13.991 27.4922 15.8319 27.4922H26.6652C27.1252 27.4922 27.4985 27.1189 27.4985 26.6589C27.4985 26.1989 27.1252 25.8255 26.6652 25.8255H15.8319C14.9114 25.8255 14.1652 25.0797 14.1652 24.1589V13.3255C14.1652 12.8655 13.7921 12.4922 13.3319 12.4922ZM21.6652 14.1589V15.8255H24.6335L22.316 18.143C22.241 18.2189 22.0069 18.3255 21.8994 18.3255H20.5977C20.0485 18.3255 19.371 18.588 18.9827 18.9764L16.0662 21.893C15.7408 22.2189 15.7408 22.7655 16.0662 23.0913C16.2289 23.2538 16.452 23.3255 16.6652 23.3255C16.8784 23.3255 17.1015 23.2538 17.2642 23.0913L20.181 20.1747C20.256 20.0988 20.4902 19.9922 20.5977 19.9922H21.8994C22.4485 19.9922 23.126 19.7297 23.5144 19.3413L25.8319 17.0238V19.9922H27.4985V14.9922C27.4985 14.5322 27.1252 14.1589 26.6652 14.1589H21.6652Z" fill="#E06153"/>
</svg>
