<svg width="40" height="40" viewBox="0 0 40 40" fill="none" xmlns="http://www.w3.org/2000/svg">
<rect width="40" height="40" rx="20" fill="#FCE6E4"/>
<path d="M16.6718 11.6797C16.2118 11.6797 15.8385 12.053 15.8385 12.513C13.9976 12.513 12.5051 14.0055 12.5051 15.8464V17.513V24.1797C12.5051 26.0197 13.9976 27.513 15.8385 27.513H24.1718C26.0126 27.513 27.5051 26.0205 27.5051 24.1797V17.513V15.8464C27.5051 14.0055 26.0126 12.513 24.1718 12.513C24.1718 12.053 23.7985 11.6797 23.3385 11.6797C22.8785 11.6797 22.5051 12.053 22.5051 12.513H17.5051C17.5051 12.053 17.1318 11.6797 16.6718 11.6797ZM15.8385 14.1797C15.8385 14.6397 16.2118 15.013 16.6718 15.013C17.1318 15.013 17.5051 14.6397 17.5051 14.1797H22.5051C22.5051 14.6397 22.8785 15.013 23.3385 15.013C23.7985 15.013 24.1718 14.6397 24.1718 14.1797C25.0926 14.1797 25.8385 14.9255 25.8385 15.8464V16.6797C24.2351 16.6797 15.7751 16.6797 14.1718 16.6797V15.8464C14.1718 14.9255 14.9176 14.1797 15.8385 14.1797ZM14.1718 18.3464C15.7751 18.3464 24.2351 18.3464 25.8385 18.3464V24.1797C25.8385 25.0989 25.0926 25.8464 24.1718 25.8464H15.8385C14.9176 25.8464 14.1718 25.1005 14.1718 24.1797V18.3464ZM22.5051 20.013C22.0451 20.013 21.6718 20.3864 21.6718 20.8464V21.6797C21.6718 22.1397 22.0451 22.513 22.5051 22.513H23.3385C23.7985 22.513 24.1718 22.1397 24.1718 21.6797V20.8464C24.1718 20.3864 23.7985 20.013 23.3385 20.013H22.5051Z" fill="#3AA76D"/>
</svg>
