<svg width="40" height="40" viewBox="0 0 40 40" fill="none" xmlns="http://www.w3.org/2000/svg">
<rect width="40" height="40" rx="20" fill="#FFE2D0"/>
<path d="M14.1471 14.1641C12.3062 14.1641 10.8137 15.6565 10.8137 17.4974V22.4974C10.8137 24.3382 12.3062 25.8307 14.1471 25.8307H25.8137C27.6546 25.8307 29.1471 24.3382 29.1471 22.4974V17.4974C29.1471 15.6565 27.6546 14.1641 25.8137 14.1641H14.1471ZM14.8237 15.8307H25.1371C25.4412 16.9884 26.3229 17.87 27.4804 18.1745V21.8207C26.3229 22.1249 25.4412 23.0066 25.1371 24.1641H14.8237C14.5196 23.0066 13.6379 22.1249 12.4804 21.8207V18.1745C13.6379 17.87 14.5196 16.9884 14.8237 15.8307ZM19.9804 17.4974C18.5996 17.4974 17.4804 18.6166 17.4804 19.9974C17.4804 21.3782 18.5996 22.4974 19.9804 22.4974C21.3612 22.4974 22.4804 21.3782 22.4804 19.9974C22.4804 18.6166 21.3612 17.4974 19.9804 17.4974ZM19.9804 19.1641C20.4404 19.1641 20.8137 19.5374 20.8137 19.9974C20.8137 20.4574 20.4404 20.8307 19.9804 20.8307C19.5204 20.8307 19.1471 20.4574 19.1471 19.9974C19.1471 19.5374 19.5204 19.1641 19.9804 19.1641Z" fill="#FD7016"/>
</svg>
