<svg width="40" height="40" viewBox="0 0 40 40" fill="none" xmlns="http://www.w3.org/2000/svg">
<rect width="40" height="40" rx="20" fill="#D4E2FC"/>
<path d="M14.1658 13.2539C12.785 13.2539 11.6658 14.3732 11.6658 15.7539V23.8789C11.6658 25.3747 12.8784 26.5872 14.3741 26.5872H25.6241C27.1199 26.5872 28.3324 25.3747 28.3324 23.8789V17.4206C28.3324 16.9603 27.9594 16.5872 27.4991 16.5872H26.6658V14.0872C26.6658 13.627 26.2927 13.2539 25.8324 13.2539H14.1658ZM14.1658 14.9206H24.9991V16.5872H14.1658C13.7055 16.5872 13.3324 16.2142 13.3324 15.7539C13.3324 15.2937 13.7055 14.9206 14.1658 14.9206ZM14.1658 18.2539H26.6658V23.8789C26.6658 24.4542 26.1994 24.9206 25.6241 24.9206H14.3741C13.7988 24.9206 13.3324 24.4542 13.3324 23.8789L13.3373 18.1073C13.3373 18.1073 13.6356 18.2565 14.1658 18.2539ZM24.1658 20.7539C23.7055 20.7539 23.3324 21.127 23.3324 21.5872C23.3324 22.0475 23.7055 22.4206 24.1658 22.4206C24.626 22.4206 24.9991 22.0475 24.9991 21.5872C24.9991 21.127 24.626 20.7539 24.1658 20.7539Z" fill="#276EF1"/>
</svg>
