<svg width="21" height="24" viewBox="0 0 21 24" fill="none" xmlns="http://www.w3.org/2000/svg">
<g id="Logo" clip-path="url(#clip0_70_9514)">
<path id="Vector" d="M17.7165 18.1088C18.5474 18.9458 19.3646 19.7692 20.199 20.6108C20.1191 20.6994 20.0517 20.7812 19.9787 20.8573C18.8898 21.993 17.5761 22.7778 16.0991 23.3059C15.3938 23.558 14.6713 23.7465 13.9282 23.851C13.636 23.8919 13.3416 23.918 13.0494 23.9578C12.4536 24.0384 11.8589 23.985 11.2631 23.9646C10.5943 23.9419 9.94026 23.8272 9.29653 23.6591C8.88107 23.5512 8.45876 23.4535 8.05927 23.3002C6.89963 22.8561 5.81532 22.2724 4.83374 21.508C3.12395 20.177 1.80224 18.5472 0.930223 16.5608C0.643737 15.9067 0.443996 15.2286 0.277355 14.5393C0.197458 14.2099 0.0970172 13.8805 0.0639172 13.5455C0.0148379 13.0333 0 12.5165 0 12.0021C0 11.5319 0.00798965 11.0583 0.0650586 10.5938C0.120986 10.1383 0.237407 9.68974 0.335565 9.23999C0.456551 8.68917 0.614062 8.14516 0.838913 7.62954C1.31715 6.53358 1.9061 5.49894 2.65941 4.56083C4.06673 2.81069 5.80733 1.51484 7.92345 0.727784C8.60942 0.472248 9.31365 0.27804 10.0373 0.169011C10.9983 0.0247745 11.9662 -0.0615401 12.9364 0.0520318C13.4683 0.113361 13.9967 0.203082 14.5252 0.30189C15.0947 0.407512 15.6415 0.583548 16.1779 0.777756C17.7416 1.34562 19.1261 2.21671 20.3508 3.33767C20.3839 3.36833 20.425 3.39104 20.4935 3.43874C19.5187 4.21217 18.5771 4.96061 17.6286 5.71359C17.4814 5.59547 17.349 5.48644 17.2131 5.38082C16.6972 4.97424 16.1379 4.63579 15.5364 4.37003C14.9566 4.11336 14.3551 3.91347 13.7285 3.8124C12.8668 3.67384 11.9993 3.62614 11.1284 3.73971C10.1457 3.86805 9.18696 4.08156 8.29554 4.53017C6.66793 5.34902 5.50373 6.62216 4.66139 8.20649C4.36463 8.76299 4.14891 9.35016 3.9914 9.96345C3.78938 10.7482 3.73801 11.5432 3.76541 12.3473C3.77226 12.5552 3.74829 12.7675 3.78139 12.9708C3.83617 13.3025 3.91379 13.6318 4.00281 13.9555C4.73101 16.604 6.33579 18.5154 8.86395 19.6443C9.3262 19.851 9.81471 19.9771 10.3055 20.0997C10.9629 20.2644 11.6295 20.2871 12.3006 20.2735C14.1189 20.2372 15.7328 19.6273 17.1755 18.5438C17.349 18.4132 17.5156 18.2712 17.7165 18.1088Z" fill="#FD7016"/>
<path id="Vector_2" d="M12.0699 14.6519C11.2378 14.636 10.5461 14.3248 9.99141 13.7149C9.2518 12.9006 9.1057 11.7479 9.6353 10.7882C10.0656 10.008 10.7071 9.47418 11.5871 9.2618C11.885 9.19025 12.1863 9.21523 12.4979 9.27202C13.4178 9.43783 14.0285 9.99547 14.469 10.7598C14.8 11.3356 14.8993 11.9637 14.7064 12.6133C14.3983 13.6479 13.7351 14.3282 12.6645 14.5804C12.4716 14.6258 12.2685 14.6292 12.071 14.6519H12.0699Z" fill="#FD7016"/>
</g>
<defs>
<clipPath id="clip0_70_9514">
<rect width="20.4923" height="24" fill="white"/>
</clipPath>
</defs>
</svg>
