<svg width="207" height="64" viewBox="0 0 207 64" fill="none" xmlns="http://www.w3.org/2000/svg">
<g clip-path="url(#clip0_43_2061)">
<path d="M47.0097 48.2903C49.2145 50.5224 51.3829 52.7181 53.5968 54.9623C53.3848 55.1985 53.2061 55.4166 53.0123 55.6195C50.123 58.6481 46.6371 60.7408 42.7182 62.1491C40.8465 62.8215 38.9294 63.3242 36.9578 63.6029C36.1825 63.7119 35.4011 63.7815 34.6258 63.8875C33.0449 64.1026 31.467 63.9602 29.8861 63.9057C28.1113 63.8451 26.3759 63.5393 24.6678 63.091C23.5654 62.8033 22.4448 62.5429 21.3848 62.134C18.3078 60.9498 15.4306 59.3931 12.826 57.3549C8.28923 53.8054 4.78213 49.4594 2.46829 44.1624C1.70812 42.4179 1.17812 40.6099 0.735946 38.7715C0.523945 37.8932 0.25743 37.0149 0.169601 36.1215C0.0393716 34.7556 0 33.3776 0 32.0057C0 30.7518 0.0212001 29.4889 0.172629 28.2502C0.32103 27.0358 0.629945 25.8395 0.890403 24.6401C1.21143 23.1713 1.62938 21.7206 2.22601 20.3456C3.49498 17.423 5.05773 14.664 7.0566 12.1624C10.7908 7.49534 15.4094 4.03973 21.0244 1.94092C22.8446 1.25949 24.7132 0.741602 26.6334 0.450858C29.1834 0.0662282 31.7517 -0.163944 34.326 0.138914C35.7373 0.302458 37.1395 0.541716 38.5417 0.805202C40.053 1.08686 41.5037 1.55629 42.9271 2.07418C47.0763 3.58847 50.75 5.91139 53.9996 8.9006C54.0875 8.98237 54.1965 9.04295 54.3782 9.17015C51.7918 11.2326 49.2932 13.2284 46.7765 15.2364C46.3858 14.9214 46.0345 14.6307 45.674 14.349C44.3051 13.2648 42.8211 12.3623 41.2251 11.6536C39.6865 10.9691 38.0905 10.4361 36.4278 10.1666C34.1412 9.79706 31.8395 9.66986 29.5287 9.97272C26.9211 10.315 24.3771 10.8843 22.0117 12.0806C17.693 14.2642 14.6038 17.6593 12.3687 21.8841C11.5813 23.3681 11.0089 24.9339 10.591 26.5694C10.0549 28.6621 9.91861 30.7821 9.99129 32.9263C10.0095 33.4806 9.94586 34.0469 10.0337 34.589C10.1791 35.4734 10.385 36.3517 10.6212 37.2148C12.5535 44.2775 16.8117 49.3746 23.52 52.385C24.7465 52.9362 26.0428 53.2724 27.3451 53.5994C29.0895 54.0386 30.8582 54.0992 32.639 54.0628C37.4636 53.9659 41.746 52.3396 45.5741 49.4503C46.0345 49.102 46.4766 48.7234 47.0097 48.2903Z" fill="#FD7016"/>
<path d="M32.0272 39.0718C29.8194 39.0294 27.9841 38.1995 26.5122 36.5732C24.5497 34.4017 24.162 31.3277 25.5673 28.7685C26.7091 26.6879 28.4111 25.2645 30.7462 24.6981C31.5366 24.5073 32.3362 24.574 33.163 24.7254C35.604 25.1676 37.2243 26.6546 38.3933 28.6928C39.2716 30.2283 39.5351 31.9031 39.0233 33.6355C38.2056 36.3945 36.4459 38.2086 33.6051 38.881C33.0933 39.0021 32.5542 39.0112 32.0303 39.0718H32.0272Z" fill="#FD7016"/>
<path d="M191.758 42.6998C191.479 42.6998 191.264 42.6998 191.046 42.6998C186.14 42.6998 181.233 42.6998 176.327 42.6998C175.385 42.6998 175.6 42.6665 175.288 43.3812C174.637 44.8683 173.962 46.3462 173.317 47.8363C172.987 48.6025 172.711 49.393 172.387 50.1622C171.836 51.4796 171.266 52.788 170.703 54.0994C170.636 54.2508 170.558 54.3992 170.482 54.5537H161.269C161.423 54.0782 161.532 53.6239 161.714 53.1938C162.777 50.668 163.868 48.1543 164.924 45.6284C165.518 44.208 166.054 42.7604 166.645 41.3369C167.105 40.2224 167.629 39.1351 168.089 38.0237C168.728 36.4821 169.322 34.9224 169.964 33.3808C170.782 31.4213 171.645 29.48 172.466 27.5236C172.962 26.3424 173.392 25.134 173.889 23.9529C174.604 22.2447 175.367 20.5548 176.082 18.8436C176.675 17.4202 177.211 15.9756 177.802 14.5521C178.299 13.3589 178.844 12.1868 179.359 11.0026C179.607 10.4333 179.889 9.86996 180.052 9.27635C180.164 8.87355 180.361 8.79784 180.716 8.80087C181.875 8.80995 183.035 8.8039 184.195 8.8039C185.062 8.8039 185.931 8.8039 186.827 8.8039C193.257 24.0377 199.674 39.2411 206.095 54.4477C205.541 54.6021 198.012 54.6566 196.697 54.5173C195.071 50.6195 193.429 46.6884 191.764 42.7028L191.758 42.6998ZM178.702 34.4923H188.384C186.794 29.9252 185.228 25.4217 183.662 20.9152C183.611 20.9091 183.562 20.9031 183.511 20.894C181.93 25.4126 180.258 29.901 178.698 34.4893L178.702 34.4923Z" fill="#FD7016"/>
<path d="M108.09 42.0883C106.794 45.3319 104.828 47.9122 102.266 50.0413C99.0377 52.7246 95.367 54.5115 91.2239 55.2989C89.5643 55.6139 87.8895 55.7048 86.2025 55.7108C84.3884 55.7199 82.6046 55.411 80.8783 54.9658C77.5771 54.1148 74.6303 52.5066 72.0288 50.2897C68.9275 47.6487 66.4471 44.5384 64.9237 40.7345C64.4452 39.5352 64.0727 38.2844 63.7638 37.0275C63.0339 34.0746 63.0733 31.0854 63.4306 28.0811C63.6366 26.3487 64.0939 24.6769 64.6966 23.0688C65.378 21.2486 66.3441 19.5465 67.5162 17.9777C70.5326 13.9376 74.2729 10.8424 79.0944 9.1706C80.2241 8.77991 81.375 8.49522 82.5652 8.31957C84.0401 8.10151 85.512 7.88345 87.0021 7.94099C87.8137 7.97128 88.6224 8.17419 89.434 8.17116C90.4092 8.16814 91.3299 8.39528 92.2536 8.63151C93.0865 8.84351 93.9345 9.01917 94.7462 9.2978C96.6421 9.94894 98.4259 10.8424 100.11 11.9387C103.487 14.1405 106.103 17.0146 107.833 20.6671C108.005 21.0336 108.117 21.4273 108.287 21.8816C107.999 21.8997 107.79 21.927 107.578 21.927C104.822 21.933 102.066 21.927 99.3102 21.9482C98.8832 21.9512 98.6015 21.8089 98.3229 21.4939C96.7238 19.6586 94.7886 18.2624 92.5141 17.4083C91.2815 16.945 90.0276 16.4665 88.6648 16.4453C87.8531 16.4301 87.0384 16.2545 86.2298 16.2726C82.0413 16.3665 78.625 18.1201 75.8327 21.191C74.7181 22.4146 73.7763 23.7714 73.1009 25.2584C72.4982 26.5819 72.0197 27.9932 71.9137 29.4712C71.8137 30.8401 71.7592 32.2181 71.7653 33.5901C71.7653 34.1988 71.9319 34.8166 72.0833 35.4133C72.5588 37.288 73.3371 39.0324 74.4728 40.6043C76.2718 43.0998 78.513 45.0563 81.3538 46.3192C83.2345 47.1551 85.2001 47.3943 87.2232 47.3671C91.3844 47.3156 94.8037 45.5802 97.699 42.7031C98.1685 42.2367 98.6288 42.064 99.2799 42.0701C101.915 42.1064 104.55 42.0852 107.185 42.0852H108.09V42.0883Z" fill="#FD7016"/>
<path d="M142.707 17.0841H134.33V8.91903C134.845 8.77366 158.549 8.72823 159.634 8.8736V17.0901H151.157V54.5386H142.713C142.704 53.5149 142.71 52.4852 142.707 51.4585C142.707 50.4197 142.707 49.3809 142.707 48.3451V17.0841Z" fill="#FD7016"/>
<path d="M125.674 54.5326H117.212V8.85254H125.61C125.762 9.3462 125.832 53.1122 125.674 54.5357V54.5326Z" fill="#FD7016"/>
</g>
<defs>
<clipPath id="clip0_43_2061">
<rect width="206.089" height="64" fill="white"/>
</clipPath>
</defs>
</svg>
