<svg width="41" height="48" viewBox="0 0 41 48" fill="none" xmlns="http://www.w3.org/2000/svg">
<g id="Group">
<path id="Vector" d="M35.2572 36.2179C36.9108 37.8919 38.5372 39.5387 40.1976 41.2219C40.0386 41.399 39.9046 41.5626 39.7592 41.7148C37.5923 43.9862 34.9779 45.5558 32.0386 46.612C30.6349 47.1162 29.197 47.4933 27.7183 47.7023C27.1369 47.784 26.5508 47.8363 25.9693 47.9158C24.7836 48.0771 23.6002 47.9703 22.4145 47.9294C21.0835 47.884 19.7819 47.6546 18.5009 47.3184C17.674 47.1026 16.8336 46.9073 16.0386 46.6006C13.7308 45.7125 11.573 44.545 9.61953 43.0163C6.21692 40.3542 3.5866 37.0947 1.85122 33.1219C1.28109 31.8136 0.883589 30.4575 0.551959 29.0788C0.392959 28.42 0.193072 27.7613 0.1272 27.0912C0.0295287 26.0668 0 25.0333 0 24.0044C0 23.064 0.0159001 22.1168 0.129472 21.1878C0.240772 20.2769 0.472459 19.3797 0.667802 18.4802C0.908575 17.3786 1.22203 16.2906 1.66951 15.2593C2.62124 13.0674 3.7933 10.9981 5.29245 9.12191C8.09313 5.62163 11.5571 3.02992 15.7683 1.45581C17.1334 0.944739 18.5349 0.556324 19.975 0.338266C21.8876 0.0497932 23.8137 -0.122836 25.7445 0.104308C26.803 0.226965 27.8546 0.406409 28.9063 0.604024C30.0397 0.815267 31.1278 1.16734 32.1953 1.55576C35.3072 2.69147 38.0625 4.43367 40.4997 6.67557C40.5656 6.7369 40.6474 6.78233 40.7836 6.87773C38.8438 8.42458 36.9699 9.92146 35.0823 11.4274C34.7893 11.1912 34.5258 10.9731 34.2555 10.7619C33.2288 9.94872 32.1158 9.27183 30.9188 8.74031C29.7649 8.22697 28.5679 7.82719 27.3208 7.62503C25.6059 7.34792 23.8796 7.25252 22.1465 7.47966C20.1908 7.73634 18.2828 8.16337 16.5088 9.06058C13.2697 10.6983 10.9529 13.2446 9.27655 16.4132C8.68597 17.5262 8.25667 18.7006 7.94321 19.9271C7.54117 21.4967 7.43896 23.0867 7.49347 24.6949C7.5071 25.1106 7.4594 25.5353 7.52527 25.9419C7.6343 26.6052 7.78876 27.2639 7.96593 27.9112C9.4151 33.2082 12.6087 37.0311 17.64 39.2889C18.5599 39.7023 19.5321 39.9544 20.5088 40.1997C21.8171 40.5291 23.1437 40.5745 24.4793 40.5472C28.0977 40.4746 31.3095 39.2548 34.1806 37.0878C34.5258 36.8266 34.8575 36.5427 35.2572 36.2179Z" fill="#FCFCFC"/>
<path id="Vector_2" d="M24.0206 29.3038C22.3648 29.272 20.9883 28.6497 19.8843 27.4299C18.4125 25.8013 18.1217 23.4958 19.1757 21.5764C20.032 20.0159 21.3085 18.9484 23.0598 18.5236C23.6527 18.3805 24.2523 18.4305 24.8724 18.544C26.7032 18.8757 27.9184 19.9909 28.7952 21.5196C29.4539 22.6712 29.6515 23.9273 29.2677 25.2266C28.6544 27.2959 27.3347 28.6565 25.2041 29.1607C24.8202 29.2516 24.4159 29.2584 24.0229 29.3038H24.0206Z" fill="#FCFCFC"/>
</g>
</svg>
