<svg width="124" height="36" viewBox="0 0 124 36" fill="none" xmlns="http://www.w3.org/2000/svg">
<rect x="0.5" y="0.5" width="123" height="35" rx="7.5" fill="#0B0A0A"/>
<g clip-path="url(#clip0_468_1349)">
<path d="M18.1713 15.3519C16.4807 18.2859 17.5552 22.7388 19.4251 25.4381C20.3583 26.7881 21.3033 27.9996 22.5972 27.9996C22.6214 27.9996 22.6464 27.9996 22.6713 27.9982C23.2791 27.974 23.7188 27.7871 24.1438 27.6057C24.6208 27.4022 25.1144 27.1924 25.8884 27.1924C26.6624 27.1924 27.0944 27.3959 27.5486 27.5918C27.9965 27.7857 28.4576 27.9865 29.1388 27.9733C30.5968 27.9463 31.492 26.6385 32.2812 25.4852C33.105 24.2812 33.519 23.1119 33.6582 22.6647L33.6637 22.6467C33.69 22.5671 33.6526 22.4806 33.5765 22.4459C33.5765 22.4459 33.5668 22.4418 33.5647 22.4411C33.3079 22.3359 31.0558 21.3369 31.0323 18.614C31.0101 16.4014 32.7215 15.2307 33.0649 15.0182L33.0808 15.0078C33.1182 14.9843 33.1438 14.9462 33.1528 14.9026C33.1618 14.859 33.1528 14.814 33.1272 14.7773C31.9461 13.0486 30.1357 12.7883 29.4067 12.7571C29.3015 12.7467 29.1921 12.7412 29.0827 12.7412C28.2263 12.7412 27.4067 13.0645 26.7476 13.3241C26.2927 13.5034 25.8995 13.6585 25.6295 13.6585C25.3249 13.6585 24.9296 13.5014 24.4727 13.3207C23.8607 13.0777 23.167 12.8028 22.4331 12.8028C22.4158 12.8028 22.3985 12.8028 22.3812 12.8035C20.674 12.8284 19.0609 13.8053 18.172 15.3512L18.1713 15.3519Z" fill="#FCFCFC"/>
<path d="M29.4082 7.99989C28.3746 8.04212 27.1347 8.67835 26.3939 9.5465C25.7639 10.2755 25.1484 11.4926 25.3104 12.7186C25.3208 12.7955 25.3831 12.8543 25.4607 12.8606C25.5306 12.8661 25.6012 12.8689 25.6725 12.8689C26.6833 12.8689 27.7737 12.3095 28.5179 11.4095C29.3016 10.459 29.6976 9.23912 29.5778 8.14597C29.5681 8.06012 29.4926 7.99643 29.4082 7.99989Z" fill="#FCFCFC"/>
</g>
<path d="M46 13.5H44.2045V7.68182H46.0795C46.6439 7.68182 47.1269 7.7983 47.5284 8.03125C47.9299 8.26231 48.2377 8.5947 48.4517 9.02841C48.6657 9.46023 48.7727 9.97727 48.7727 10.5795C48.7727 11.1856 48.6648 11.7074 48.4489 12.1449C48.233 12.5805 47.9186 12.9157 47.5057 13.1506C47.0928 13.3835 46.5909 13.5 46 13.5ZM44.9091 12.875H45.9545C46.4356 12.875 46.8343 12.7822 47.1506 12.5966C47.4669 12.411 47.7027 12.1468 47.858 11.804C48.0133 11.4612 48.0909 11.053 48.0909 10.5795C48.0909 10.1098 48.0142 9.70549 47.8608 9.36648C47.7074 9.02557 47.4782 8.7642 47.1733 8.58239C46.8684 8.39867 46.4886 8.30682 46.0341 8.30682H44.9091V12.875ZM51.6364 13.5909C51.2424 13.5909 50.8968 13.4972 50.5994 13.3097C50.304 13.1222 50.0729 12.8598 49.9062 12.5227C49.7415 12.1856 49.6591 11.7917 49.6591 11.3409C49.6591 10.8864 49.7415 10.4896 49.9062 10.1506C50.0729 9.81155 50.304 9.5483 50.5994 9.3608C50.8968 9.1733 51.2424 9.07955 51.6364 9.07955C52.0303 9.07955 52.375 9.1733 52.6705 9.3608C52.9678 9.5483 53.1989 9.81155 53.3636 10.1506C53.5303 10.4896 53.6136 10.8864 53.6136 11.3409C53.6136 11.7917 53.5303 12.1856 53.3636 12.5227C53.1989 12.8598 52.9678 13.1222 52.6705 13.3097C52.375 13.4972 52.0303 13.5909 51.6364 13.5909ZM51.6364 12.9886C51.9356 12.9886 52.1818 12.9119 52.375 12.7585C52.5682 12.6051 52.7112 12.4034 52.804 12.1534C52.8968 11.9034 52.9432 11.6326 52.9432 11.3409C52.9432 11.0492 52.8968 10.7775 52.804 10.5256C52.7112 10.2737 52.5682 10.0701 52.375 9.91477C52.1818 9.75947 51.9356 9.68182 51.6364 9.68182C51.3371 9.68182 51.0909 9.75947 50.8977 9.91477C50.7045 10.0701 50.5616 10.2737 50.4688 10.5256C50.3759 10.7775 50.3295 11.0492 50.3295 11.3409C50.3295 11.6326 50.3759 11.9034 50.4688 12.1534C50.5616 12.4034 50.7045 12.6051 50.8977 12.7585C51.0909 12.9119 51.3371 12.9886 51.6364 12.9886ZM55.4773 13.5L54.1477 9.13636H54.8523L55.7955 12.4773H55.8409L56.7727 9.13636H57.4886L58.4091 12.4659H58.4545L59.3977 9.13636H60.1023L58.7727 13.5H58.1136L57.1591 10.1477H57.0909L56.1364 13.5H55.4773ZM61.6591 10.875V13.5H60.9886V9.13636H61.6364V9.81818H61.6932C61.7955 9.59659 61.9508 9.41856 62.1591 9.28409C62.3674 9.14773 62.6364 9.07955 62.9659 9.07955C63.2614 9.07955 63.5199 9.14015 63.7415 9.26136C63.9631 9.38068 64.1354 9.5625 64.2585 9.80682C64.3816 10.0492 64.4432 10.3561 64.4432 10.7273V13.5H63.7727V10.7727C63.7727 10.4299 63.6837 10.1629 63.5057 9.97159C63.3277 9.77841 63.0833 9.68182 62.7727 9.68182C62.5587 9.68182 62.3674 9.72822 62.1989 9.82102C62.0322 9.91383 61.9006 10.0492 61.804 10.2273C61.7074 10.4053 61.6591 10.6212 61.6591 10.875ZM66.3388 7.68182V13.5H65.6683V7.68182H66.3388ZM69.3395 13.5909C68.9455 13.5909 68.5999 13.4972 68.3026 13.3097C68.0071 13.1222 67.776 12.8598 67.6094 12.5227C67.4446 12.1856 67.3622 11.7917 67.3622 11.3409C67.3622 10.8864 67.4446 10.4896 67.6094 10.1506C67.776 9.81155 68.0071 9.5483 68.3026 9.3608C68.5999 9.1733 68.9455 9.07955 69.3395 9.07955C69.7334 9.07955 70.0781 9.1733 70.3736 9.3608C70.6709 9.5483 70.902 9.81155 71.0668 10.1506C71.2334 10.4896 71.3168 10.8864 71.3168 11.3409C71.3168 11.7917 71.2334 12.1856 71.0668 12.5227C70.902 12.8598 70.6709 13.1222 70.3736 13.3097C70.0781 13.4972 69.7334 13.5909 69.3395 13.5909ZM69.3395 12.9886C69.6387 12.9886 69.8849 12.9119 70.0781 12.7585C70.2713 12.6051 70.4143 12.4034 70.5071 12.1534C70.5999 11.9034 70.6463 11.6326 70.6463 11.3409C70.6463 11.0492 70.5999 10.7775 70.5071 10.5256C70.4143 10.2737 70.2713 10.0701 70.0781 9.91477C69.8849 9.75947 69.6387 9.68182 69.3395 9.68182C69.0402 9.68182 68.794 9.75947 68.6009 9.91477C68.4077 10.0701 68.2647 10.2737 68.1719 10.5256C68.0791 10.7775 68.0327 11.0492 68.0327 11.3409C68.0327 11.6326 68.0791 11.9034 68.1719 12.1534C68.2647 12.4034 68.4077 12.6051 68.6009 12.7585C68.794 12.9119 69.0402 12.9886 69.3395 12.9886ZM73.6243 13.6023C73.3478 13.6023 73.0968 13.5502 72.8714 13.446C72.6461 13.34 72.4671 13.1875 72.3345 12.9886C72.2019 12.7879 72.1357 12.5455 72.1357 12.2614C72.1357 12.0114 72.1849 11.8087 72.2834 11.6534C72.3819 11.4962 72.5135 11.3731 72.6783 11.2841C72.843 11.1951 73.0249 11.1288 73.2237 11.0852C73.4245 11.0398 73.6262 11.0038 73.8288 10.9773C74.094 10.9432 74.3089 10.9176 74.4737 10.9006C74.6404 10.8816 74.7616 10.8504 74.8374 10.8068C74.915 10.7633 74.9538 10.6875 74.9538 10.5795V10.5568C74.9538 10.2765 74.8771 10.0587 74.7237 9.90341C74.5722 9.74811 74.3421 9.67045 74.0334 9.67045C73.7133 9.67045 73.4624 9.74053 73.2805 9.88068C73.0987 10.0208 72.9709 10.1705 72.897 10.3295L72.2607 10.1023C72.3743 9.83712 72.5258 9.63068 72.7152 9.48295C72.9065 9.33333 73.1148 9.22917 73.3402 9.17045C73.5675 9.10985 73.791 9.07955 74.0107 9.07955C74.1508 9.07955 74.3118 9.09659 74.4936 9.13068C74.6773 9.16288 74.8544 9.23011 75.0249 9.33239C75.1972 9.43466 75.3402 9.58902 75.4538 9.79545C75.5675 10.0019 75.6243 10.2784 75.6243 10.625V13.5H74.9538V12.9091H74.9197C74.8743 13.0038 74.7985 13.1051 74.6925 13.2131C74.5864 13.321 74.4453 13.4129 74.2692 13.4886C74.093 13.5644 73.8781 13.6023 73.6243 13.6023ZM73.7266 13C73.9917 13 74.2152 12.9479 74.397 12.8438C74.5807 12.7396 74.719 12.6051 74.8118 12.4403C74.9065 12.2756 74.9538 12.1023 74.9538 11.9205V11.3068C74.9254 11.3409 74.8629 11.3722 74.7663 11.4006C74.6716 11.4271 74.5618 11.4508 74.4368 11.4716C74.3137 11.4905 74.1934 11.5076 74.076 11.5227C73.9605 11.536 73.8667 11.5473 73.7947 11.5568C73.6205 11.5795 73.4576 11.6165 73.3061 11.6676C73.1565 11.7169 73.0353 11.7917 72.9425 11.892C72.8516 11.9905 72.8061 12.125 72.8061 12.2955C72.8061 12.5284 72.8923 12.7045 73.0646 12.8239C73.2389 12.9413 73.4595 13 73.7266 13ZM78.4957 13.5909C78.1321 13.5909 77.8111 13.4991 77.5327 13.3153C77.2543 13.1297 77.0365 12.8684 76.8793 12.5312C76.7221 12.1922 76.6435 11.7917 76.6435 11.3295C76.6435 10.8712 76.7221 10.4735 76.8793 10.1364C77.0365 9.79924 77.2552 9.53883 77.5355 9.35511C77.8158 9.1714 78.1397 9.07955 78.5071 9.07955C78.7912 9.07955 79.0156 9.12689 79.1804 9.22159C79.3471 9.31439 79.474 9.42045 79.5611 9.53977C79.6501 9.6572 79.7192 9.75379 79.7685 9.82955H79.8253V7.68182H80.4957V13.5H79.848V12.8295H79.7685C79.7192 12.9091 79.6491 13.0095 79.5582 13.1307C79.4673 13.25 79.3376 13.357 79.169 13.4517C79.0005 13.5445 78.776 13.5909 78.4957 13.5909ZM78.5866 12.9886C78.8556 12.9886 79.0829 12.9186 79.2685 12.7784C79.4541 12.6364 79.5952 12.4403 79.6918 12.1903C79.7884 11.9384 79.8366 11.6477 79.8366 11.3182C79.8366 10.9924 79.7893 10.7074 79.6946 10.4631C79.5999 10.2169 79.4598 10.0256 79.2741 9.8892C79.0885 9.75095 78.8594 9.68182 78.5866 9.68182C78.3026 9.68182 78.0658 9.75473 77.8764 9.90057C77.6889 10.0445 77.5478 10.2405 77.4531 10.4886C77.3603 10.7348 77.3139 11.0114 77.3139 11.3182C77.3139 11.6288 77.3613 11.911 77.456 12.1648C77.5526 12.4167 77.6946 12.6174 77.8821 12.767C78.0715 12.9148 78.3063 12.9886 78.5866 12.9886ZM85.8395 13.5909C85.4455 13.5909 85.0999 13.4972 84.8026 13.3097C84.5071 13.1222 84.276 12.8598 84.1094 12.5227C83.9446 12.1856 83.8622 11.7917 83.8622 11.3409C83.8622 10.8864 83.9446 10.4896 84.1094 10.1506C84.276 9.81155 84.5071 9.5483 84.8026 9.3608C85.0999 9.1733 85.4455 9.07955 85.8395 9.07955C86.2334 9.07955 86.5781 9.1733 86.8736 9.3608C87.1709 9.5483 87.402 9.81155 87.5668 10.1506C87.7334 10.4896 87.8168 10.8864 87.8168 11.3409C87.8168 11.7917 87.7334 12.1856 87.5668 12.5227C87.402 12.8598 87.1709 13.1222 86.8736 13.3097C86.5781 13.4972 86.2334 13.5909 85.8395 13.5909ZM85.8395 12.9886C86.1387 12.9886 86.3849 12.9119 86.5781 12.7585C86.7713 12.6051 86.9143 12.4034 87.0071 12.1534C87.0999 11.9034 87.1463 11.6326 87.1463 11.3409C87.1463 11.0492 87.0999 10.7775 87.0071 10.5256C86.9143 10.2737 86.7713 10.0701 86.5781 9.91477C86.3849 9.75947 86.1387 9.68182 85.8395 9.68182C85.5402 9.68182 85.294 9.75947 85.1009 9.91477C84.9077 10.0701 84.7647 10.2737 84.6719 10.5256C84.5791 10.7775 84.5327 11.0492 84.5327 11.3409C84.5327 11.6326 84.5791 11.9034 84.6719 12.1534C84.7647 12.4034 84.9077 12.6051 85.1009 12.7585C85.294 12.9119 85.5402 12.9886 85.8395 12.9886ZM89.5107 10.875V13.5H88.8402V9.13636H89.4879V9.81818H89.5447C89.647 9.59659 89.8023 9.41856 90.0107 9.28409C90.219 9.14773 90.4879 9.07955 90.8175 9.07955C91.1129 9.07955 91.3714 9.14015 91.593 9.26136C91.8146 9.38068 91.987 9.5625 92.1101 9.80682C92.2332 10.0492 92.2947 10.3561 92.2947 10.7273V13.5H91.6243V10.7727C91.6243 10.4299 91.5353 10.1629 91.3572 9.97159C91.1792 9.77841 90.9349 9.68182 90.6243 9.68182C90.4103 9.68182 90.219 9.72822 90.0504 9.82102C89.8838 9.91383 89.7521 10.0492 89.6555 10.2273C89.5589 10.4053 89.5107 10.6212 89.5107 10.875ZM97.6676 9.13636V9.70455H95.4062V9.13636H97.6676ZM96.0653 8.09091H96.7358V12.25C96.7358 12.4394 96.7633 12.5814 96.8182 12.6761C96.875 12.7689 96.947 12.8314 97.0341 12.8636C97.1231 12.8939 97.2169 12.9091 97.3153 12.9091C97.3892 12.9091 97.4498 12.9053 97.4972 12.8977C97.5445 12.8883 97.5824 12.8807 97.6108 12.875L97.7472 13.4773C97.7017 13.4943 97.6383 13.5114 97.5568 13.5284C97.4754 13.5473 97.3722 13.5568 97.2472 13.5568C97.0578 13.5568 96.8722 13.5161 96.6903 13.4347C96.5104 13.3532 96.3608 13.2292 96.2415 13.0625C96.1241 12.8958 96.0653 12.6856 96.0653 12.4318V8.09091ZM99.4403 10.875V13.5H98.7699V7.68182H99.4403V9.81818H99.4972C99.5994 9.5928 99.7528 9.41383 99.9574 9.28125C100.164 9.14678 100.438 9.07955 100.781 9.07955C101.079 9.07955 101.339 9.1392 101.562 9.25852C101.786 9.37595 101.959 9.55682 102.082 9.80114C102.207 10.0436 102.27 10.3523 102.27 10.7273V13.5H101.599V10.7727C101.599 10.4261 101.509 10.1581 101.33 9.96875C101.152 9.77746 100.904 9.68182 100.588 9.68182C100.368 9.68182 100.171 9.72822 99.9972 9.82102C99.8248 9.91383 99.6884 10.0492 99.5881 10.2273C99.4896 10.4053 99.4403 10.6212 99.4403 10.875ZM105.326 13.5909C104.906 13.5909 104.543 13.4981 104.238 13.3125C103.935 13.125 103.701 12.8636 103.536 12.5284C103.373 12.1913 103.292 11.7992 103.292 11.3523C103.292 10.9053 103.373 10.5114 103.536 10.1705C103.701 9.82765 103.93 9.56061 104.224 9.36932C104.519 9.17614 104.864 9.07955 105.258 9.07955C105.485 9.07955 105.71 9.11742 105.931 9.19318C106.153 9.26894 106.354 9.39205 106.536 9.5625C106.718 9.73106 106.863 9.95455 106.971 10.233C107.079 10.5114 107.133 10.8542 107.133 11.2614V11.5455H103.769V10.9659H106.451C106.451 10.7197 106.402 10.5 106.303 10.3068C106.207 10.1136 106.068 9.96117 105.888 9.84943C105.71 9.73769 105.5 9.68182 105.258 9.68182C104.991 9.68182 104.76 9.74811 104.565 9.88068C104.371 10.0114 104.223 10.1818 104.119 10.392C104.014 10.6023 103.962 10.8277 103.962 11.0682V11.4545C103.962 11.7841 104.019 12.0634 104.133 12.2926C104.248 12.5199 104.408 12.6932 104.613 12.8125C104.817 12.9299 105.055 12.9886 105.326 12.9886C105.502 12.9886 105.661 12.964 105.803 12.9148C105.947 12.8636 106.071 12.7879 106.175 12.6875C106.28 12.5852 106.36 12.4583 106.417 12.3068L107.065 12.4886C106.996 12.7083 106.882 12.9015 106.721 13.0682C106.56 13.233 106.361 13.3617 106.124 13.4545C105.888 13.5455 105.621 13.5909 105.326 13.5909Z" fill="#FCFCFC"/>
<path d="M45.4815 27.5H43.794L46.8665 18.7727H48.8182L51.8949 27.5H50.2074L47.8764 20.5625H47.8082L45.4815 27.5ZM45.5369 24.0781H50.1392V25.348H45.5369V24.0781ZM52.9762 29.9545V20.9545H54.4933V22.0369H54.5827C54.6623 21.8778 54.7745 21.7088 54.9194 21.5298C55.0643 21.348 55.2603 21.1932 55.5075 21.0653C55.7546 20.9347 56.07 20.8693 56.4535 20.8693C56.9592 20.8693 57.4151 20.9986 57.8214 21.2571C58.2305 21.5128 58.5543 21.892 58.793 22.3949C59.0344 22.8949 59.1552 23.5085 59.1552 24.2358C59.1552 24.9545 59.0373 25.5653 58.8015 26.0682C58.5657 26.571 58.2447 26.9545 57.8384 27.2188C57.4322 27.483 56.9719 27.6151 56.4577 27.6151C56.0827 27.6151 55.7717 27.5526 55.5245 27.4276C55.2773 27.3026 55.0785 27.152 54.9279 26.9759C54.7802 26.7969 54.6651 26.6278 54.5827 26.4688H54.5188V29.9545H52.9762ZM54.489 24.2273C54.489 24.6506 54.5487 25.0213 54.668 25.3395C54.7901 25.6577 54.9648 25.9062 55.1921 26.0852C55.4222 26.2614 55.7006 26.3494 56.0273 26.3494C56.3683 26.3494 56.6538 26.2585 56.8839 26.0767C57.114 25.892 57.2873 25.6406 57.4038 25.3224C57.5231 25.0014 57.5827 24.6364 57.5827 24.2273C57.5827 23.821 57.5245 23.4602 57.408 23.1449C57.2915 22.8295 57.1183 22.5824 56.8881 22.4034C56.658 22.2244 56.3711 22.1349 56.0273 22.1349C55.6978 22.1349 55.418 22.2216 55.1879 22.3949C54.9577 22.5682 54.783 22.8111 54.6637 23.1236C54.5472 23.4361 54.489 23.804 54.489 24.2273ZM60.4762 29.9545V20.9545H61.9933V22.0369H62.0827C62.1623 21.8778 62.2745 21.7088 62.4194 21.5298C62.5643 21.348 62.7603 21.1932 63.0075 21.0653C63.2546 20.9347 63.57 20.8693 63.9535 20.8693C64.4592 20.8693 64.9151 20.9986 65.3214 21.2571C65.7305 21.5128 66.0543 21.892 66.293 22.3949C66.5344 22.8949 66.6552 23.5085 66.6552 24.2358C66.6552 24.9545 66.5373 25.5653 66.3015 26.0682C66.0657 26.571 65.7447 26.9545 65.3384 27.2188C64.9322 27.483 64.4719 27.6151 63.9577 27.6151C63.5827 27.6151 63.2717 27.5526 63.0245 27.4276C62.7773 27.3026 62.5785 27.152 62.4279 26.9759C62.2802 26.7969 62.1651 26.6278 62.0827 26.4688H62.0188V29.9545H60.4762ZM61.989 24.2273C61.989 24.6506 62.0487 25.0213 62.168 25.3395C62.2901 25.6577 62.4648 25.9062 62.6921 26.0852C62.9222 26.2614 63.2006 26.3494 63.5273 26.3494C63.8683 26.3494 64.1538 26.2585 64.3839 26.0767C64.614 25.892 64.7873 25.6406 64.9038 25.3224C65.0231 25.0014 65.0827 24.6364 65.0827 24.2273C65.0827 23.821 65.0245 23.4602 64.908 23.1449C64.7915 22.8295 64.6183 22.5824 64.3881 22.4034C64.158 22.2244 63.8711 22.1349 63.5273 22.1349C63.1978 22.1349 62.918 22.2216 62.6879 22.3949C62.4577 22.5682 62.283 22.8111 62.1637 23.1236C62.0472 23.4361 61.989 23.804 61.989 24.2273ZM75.7638 21.1719C75.7241 20.7997 75.5565 20.5099 75.261 20.3026C74.9684 20.0952 74.5877 19.9915 74.119 19.9915C73.7894 19.9915 73.5067 20.0412 73.271 20.1406C73.0352 20.2401 72.8548 20.375 72.7298 20.5455C72.6048 20.7159 72.5408 20.9105 72.538 21.1293C72.538 21.3111 72.5792 21.4687 72.6616 21.6023C72.7468 21.7358 72.8619 21.8494 73.0067 21.9432C73.1516 22.0341 73.3121 22.1108 73.4883 22.1733C73.6644 22.2358 73.842 22.2884 74.021 22.331L74.8391 22.5355C75.1687 22.6122 75.4854 22.7159 75.7894 22.8466C76.0962 22.9773 76.3704 23.142 76.6119 23.3409C76.8562 23.5398 77.0494 23.7798 77.1914 24.0611C77.3335 24.3423 77.4045 24.6719 77.4045 25.0497C77.4045 25.5611 77.2738 26.0114 77.0124 26.4006C76.7511 26.7869 76.3732 27.0895 75.8789 27.3082C75.3874 27.5241 74.7923 27.6321 74.0934 27.6321C73.4144 27.6321 72.8249 27.527 72.3249 27.3168C71.8278 27.1065 71.4386 26.7997 71.1573 26.3963C70.8789 25.9929 70.7283 25.5014 70.7056 24.9219H72.261C72.2837 25.2259 72.3775 25.4787 72.5423 25.6804C72.707 25.8821 72.9215 26.0327 73.1857 26.1321C73.4528 26.2315 73.7511 26.2812 74.0806 26.2812C74.4244 26.2812 74.7255 26.2301 74.984 26.1278C75.2454 26.0227 75.4499 25.8778 75.5977 25.6932C75.7454 25.5057 75.8207 25.2869 75.8235 25.0369C75.8207 24.8097 75.7539 24.6222 75.6232 24.4744C75.4925 24.3239 75.3093 24.1989 75.0735 24.0994C74.8406 23.9972 74.5678 23.9062 74.2553 23.8267L73.2624 23.571C72.5437 23.3864 71.9755 23.1065 71.5579 22.7315C71.1431 22.3537 70.9357 21.8523 70.9357 21.2273C70.9357 20.7131 71.0749 20.2628 71.3533 19.8764C71.6346 19.4901 72.0167 19.1903 72.4996 18.9773C72.9826 18.7614 73.5295 18.6534 74.1403 18.6534C74.7596 18.6534 75.3022 18.7614 75.7681 18.9773C76.2369 19.1903 76.6048 19.4872 76.8718 19.8679C77.1388 20.2457 77.2766 20.6804 77.2852 21.1719H75.7638ZM82.0142 20.9545V22.1477H78.2514V20.9545H82.0142ZM79.1804 19.3864H80.723V25.5312C80.723 25.7386 80.7543 25.8977 80.8168 26.0085C80.8821 26.1165 80.9673 26.1903 81.0724 26.2301C81.1776 26.2699 81.294 26.2898 81.4219 26.2898C81.5185 26.2898 81.6065 26.2827 81.6861 26.2685C81.7685 26.2543 81.831 26.2415 81.8736 26.2301L82.1335 27.4361C82.0511 27.4645 81.9332 27.4957 81.7798 27.5298C81.6293 27.5639 81.4446 27.5838 81.2259 27.5895C80.8395 27.6009 80.4915 27.5426 80.1818 27.4148C79.8722 27.2841 79.6264 27.0824 79.4446 26.8097C79.2656 26.5369 79.1776 26.196 79.1804 25.7869V19.3864ZM86.0891 27.6278C85.4499 27.6278 84.896 27.4872 84.4272 27.206C83.9585 26.9247 83.5948 26.5312 83.3363 26.0256C83.0806 25.5199 82.9528 24.929 82.9528 24.2528C82.9528 23.5767 83.0806 22.9844 83.3363 22.4759C83.5948 21.9673 83.9585 21.5724 84.4272 21.2912C84.896 21.0099 85.4499 20.8693 86.0891 20.8693C86.7283 20.8693 87.2823 21.0099 87.7511 21.2912C88.2198 21.5724 88.582 21.9673 88.8377 22.4759C89.0962 22.9844 89.2255 23.5767 89.2255 24.2528C89.2255 24.929 89.0962 25.5199 88.8377 26.0256C88.582 26.5312 88.2198 26.9247 87.7511 27.206C87.2823 27.4872 86.7283 27.6278 86.0891 27.6278ZM86.0977 26.392C86.4442 26.392 86.734 26.2969 86.967 26.1065C87.1999 25.9134 87.3732 25.6548 87.4869 25.331C87.6033 25.0071 87.6616 24.6463 87.6616 24.2486C87.6616 23.848 87.6033 23.4858 87.4869 23.1619C87.3732 22.8352 87.1999 22.5753 86.967 22.3821C86.734 22.1889 86.4442 22.0923 86.0977 22.0923C85.7425 22.0923 85.4471 22.1889 85.2113 22.3821C84.9783 22.5753 84.8036 22.8352 84.6871 23.1619C84.5735 23.4858 84.5167 23.848 84.5167 24.2486C84.5167 24.6463 84.5735 25.0071 84.6871 25.331C84.8036 25.6548 84.9783 25.9134 85.2113 26.1065C85.4471 26.2969 85.7425 26.392 86.0977 26.392ZM90.5348 27.5V20.9545H92.0305V22.0455H92.0987C92.218 21.6676 92.4226 21.3764 92.7124 21.1719C93.005 20.9645 93.3388 20.8608 93.7138 20.8608C93.799 20.8608 93.8942 20.8651 93.9993 20.8736C94.1072 20.8793 94.1967 20.8892 94.2678 20.9034V22.3224C94.2024 22.2997 94.0987 22.2798 93.9567 22.2628C93.8175 22.2429 93.6825 22.233 93.5518 22.233C93.2706 22.233 93.0178 22.294 92.7933 22.4162C92.5717 22.5355 92.397 22.7017 92.2692 22.9148C92.1413 23.1278 92.0774 23.3736 92.0774 23.652V27.5H90.5348ZM97.9208 27.6278C97.2646 27.6278 96.6978 27.4915 96.2205 27.2188C95.7461 26.9432 95.381 26.554 95.1254 26.0511C94.8697 25.5455 94.7418 24.9503 94.7418 24.2656C94.7418 23.5923 94.8697 23.0014 95.1254 22.4929C95.3839 21.9815 95.7447 21.5838 96.2077 21.2997C96.6708 21.0128 97.2148 20.8693 97.8398 20.8693C98.2433 20.8693 98.6239 20.9347 98.9819 21.0653C99.3427 21.1932 99.6609 21.392 99.9364 21.6619C100.215 21.9318 100.434 22.2756 100.593 22.6932C100.752 23.108 100.831 23.6023 100.831 24.1761V24.6491H95.4663V23.6094H99.3526C99.3498 23.3139 99.2859 23.0511 99.1609 22.821C99.0359 22.5881 98.8612 22.4048 98.6367 22.2713C98.4151 22.1378 98.1566 22.071 97.8612 22.071C97.5458 22.071 97.2688 22.1477 97.0302 22.3011C96.7915 22.4517 96.6055 22.6506 96.4719 22.8977C96.3413 23.142 96.2745 23.4105 96.2717 23.7031V24.6108C96.2717 24.9915 96.3413 25.3182 96.4805 25.5909C96.6197 25.8608 96.8143 26.0682 97.0643 26.2131C97.3143 26.3551 97.6069 26.4261 97.9421 26.4261C98.1665 26.4261 98.3697 26.3949 98.5515 26.3324C98.7333 26.267 98.891 26.1719 99.0245 26.0469C99.158 25.9219 99.2589 25.767 99.3271 25.5824L100.767 25.7443C100.676 26.125 100.503 26.4574 100.248 26.7415C99.9947 27.0227 99.6708 27.2415 99.2759 27.3977C98.881 27.5511 98.4293 27.6278 97.9208 27.6278Z" fill="#FCFCFC"/>
<rect x="0.5" y="0.5" width="123" height="35" rx="7.5" stroke="#0B0A0A"/>
<defs>
<clipPath id="clip0_468_1349">
<rect width="16.3439" height="20" fill="white" transform="translate(17.3281 8)"/>
</clipPath>
</defs>
</svg>
