<svg width="108" height="90" viewBox="0 0 108 90" fill="none" xmlns="http://www.w3.org/2000/svg">
<g clip-path="url(#clip0_468_1397)">
<path d="M96.5889 80.2238C96.3796 80.2238 96.2181 80.2238 96.0542 80.2238C92.3685 80.2238 88.6828 80.2238 84.9971 80.2238C84.2895 80.2238 84.451 80.1987 84.2167 80.7357C83.7275 81.8528 83.2202 82.963 82.7356 84.0824C82.4876 84.658 82.2805 85.2518 82.0371 85.8297C81.623 86.8194 81.1953 87.8023 80.7721 88.7874C80.7221 88.9012 80.6629 89.0126 80.606 89.1287H73.6851C73.8011 88.7715 73.883 88.4302 74.0195 88.1071C74.8181 86.2097 75.6371 84.3213 76.4312 82.4238C76.8771 81.3568 77.2798 80.2693 77.7234 79.2C78.0693 78.3627 78.4629 77.5459 78.8087 76.711C79.2887 75.5529 79.7347 74.3812 80.217 73.2232C80.8313 71.7511 81.4797 70.2928 82.0963 68.823C82.4694 67.9357 82.7924 67.028 83.1656 66.1406C83.7025 64.8575 84.2758 63.5879 84.8128 62.3025C85.2587 61.2332 85.6614 60.1479 86.105 59.0786C86.4782 58.1822 86.8877 57.3017 87.2745 56.4121C87.461 55.9844 87.6726 55.5612 87.7955 55.1153C87.8797 54.8127 88.0275 54.7558 88.2937 54.7581C89.1651 54.7649 90.0365 54.7604 90.9079 54.7604C91.5586 54.7604 92.2115 54.7604 92.885 54.7604C97.7151 66.2044 102.536 77.6256 107.359 89.049C106.943 89.1651 101.287 89.206 100.3 89.1014C99.0779 86.1733 97.8448 83.2201 96.5934 80.226L96.5889 80.2238ZM86.7808 74.0581H94.0544C92.8599 70.6272 91.6837 67.2441 90.5074 63.8587C90.4688 63.8541 90.4324 63.8496 90.3937 63.8428C89.2061 67.2373 87.9502 70.609 86.7785 74.0559L86.7808 74.0581Z" fill="#FD7016"/>
<path d="M33.7356 79.7642C32.7618 82.2009 31.2853 84.1393 29.3605 85.7387C26.9352 87.7545 24.1777 89.0968 21.0653 89.6884C19.8186 89.925 18.5604 89.9932 17.2932 89.9978C15.9303 90.0046 14.5903 89.7726 13.2935 89.4381C10.8136 88.7988 8.59984 87.5907 6.64549 85.9253C4.31575 83.9414 2.45241 81.6048 1.30801 78.7472C0.948541 77.8463 0.668699 76.9066 0.436635 75.9625C-0.111674 73.7442 -0.0820974 71.4986 0.186369 69.2417C0.341079 67.9403 0.684625 66.6844 1.13738 65.4763C1.64928 64.109 2.37505 62.8303 3.25553 61.6518C5.52157 58.6168 8.33137 56.2916 11.9534 55.0357C12.802 54.7422 13.6666 54.5284 14.5607 54.3964C15.6687 54.2326 16.7744 54.0688 17.8938 54.112C18.5035 54.1348 19.111 54.2872 19.7207 54.2849C20.4533 54.2826 21.145 54.4533 21.8389 54.6307C22.4645 54.79 23.1016 54.922 23.7113 55.1313C25.1356 55.6204 26.4756 56.2916 27.7406 57.1152C30.2774 58.7692 32.2431 60.9283 33.5422 63.6721C33.6719 63.9474 33.7561 64.2432 33.8835 64.5845C33.6673 64.5981 33.5104 64.6186 33.3511 64.6186C31.2807 64.6232 29.2103 64.6186 27.14 64.6345C26.8192 64.6368 26.6076 64.5299 26.3983 64.2933C25.197 62.9145 23.7432 61.8657 22.0345 61.2241C21.1086 60.876 20.1667 60.5165 19.1428 60.5006C18.5331 60.4892 17.9211 60.3573 17.3136 60.3709C14.1671 60.4414 11.6007 61.7588 9.50307 64.0657C8.66582 64.9849 7.95825 66.0042 7.45089 67.1213C6.99814 68.1155 6.63867 69.1757 6.55904 70.286C6.48396 71.3143 6.44301 72.3495 6.44756 73.3802C6.44756 73.8375 6.57269 74.3016 6.68645 74.7498C7.04364 76.1581 7.62835 77.4686 8.48153 78.6494C9.83297 80.5241 11.5166 81.9938 13.6507 82.9426C15.0635 83.5705 16.5401 83.7503 18.0599 83.7298C21.1859 83.6911 23.7546 82.3874 25.9296 80.2261C26.2822 79.8757 26.6281 79.746 27.1172 79.7506C29.0966 79.7779 31.076 79.7619 33.0553 79.7619H33.7356V79.7642Z" fill="#FD7016"/>
<path d="M59.7408 60.9806H53.4478V54.8468C53.8345 54.7376 71.6421 54.7035 72.4566 54.8127V60.9851H66.0884V89.1172H59.7453C59.7385 88.3482 59.7431 87.5747 59.7408 86.8034C59.7408 86.023 59.7408 85.2427 59.7408 84.4646V60.9806Z" fill="#FD7016"/>
<path d="M46.9451 89.1151H40.5884V54.7969H46.8973C47.0111 55.1677 47.0634 88.0458 46.9451 89.1151Z" fill="#FD7016"/>
<path d="M62.887 36.277C64.5433 37.9538 66.1723 39.6033 67.8354 41.2891C67.6762 41.4666 67.5419 41.6304 67.3963 41.7829C65.2258 44.058 62.6072 45.6301 59.6631 46.6881C58.2571 47.1931 56.8169 47.5708 55.3358 47.7801C54.7534 47.862 54.1664 47.9144 53.5839 47.994C52.3963 48.1555 51.211 48.0486 50.0233 48.0076C48.6901 47.9621 47.3865 47.7323 46.1033 47.3956C45.2751 47.1795 44.4333 46.9838 43.637 46.6767C41.3255 45.7871 39.1641 44.6177 37.2075 43.0865C33.7993 40.42 31.1647 37.1552 29.4265 33.176C28.8554 31.8655 28.4573 30.5073 28.1251 29.1262C27.9659 28.4665 27.7657 27.8067 27.6997 27.1355C27.6018 26.1094 27.5745 25.0742 27.5723 24.0413C27.5723 23.0994 27.5882 22.1507 27.7019 21.2201C27.8134 20.3078 28.0455 19.4091 28.2412 18.5082C28.4823 17.4047 28.7963 16.3149 29.2445 15.282C30.1978 13.0865 31.3718 11.0139 32.8733 9.13459C35.6786 5.6286 39.1482 3.03266 43.3663 1.45599C44.7337 0.944083 46.1374 0.555034 47.5799 0.33662C49.4955 0.0476775 51.4248 -0.125233 53.3587 0.102281C54.4189 0.225138 55.4723 0.404875 56.5257 0.602812C57.661 0.8144 58.7508 1.16705 59.8201 1.5561C62.937 2.69367 65.6968 4.4387 68.138 6.68426C68.204 6.74569 68.2859 6.79119 68.4224 6.88675C66.4794 8.43612 64.6025 9.93544 62.7118 11.4439C62.4183 11.2072 62.1544 10.9888 61.8837 10.7772C60.8553 9.96274 59.7405 9.28475 58.5415 8.75237C57.3857 8.23818 56.1867 7.83776 54.9377 7.63527C53.2199 7.3577 51.4908 7.26215 49.7549 7.48966C47.796 7.74675 45.8849 8.17448 44.108 9.07316C40.8636 10.7135 38.543 13.264 36.8639 16.4378C36.2724 17.5526 35.8424 18.7289 35.5284 19.9574C35.1257 21.5296 35.0233 23.1222 35.078 24.733C35.0916 25.1493 35.0438 25.5748 35.1098 25.982C35.219 26.6463 35.3737 27.3061 35.5512 27.9546C37.0027 33.2602 40.2016 37.0892 45.241 39.3507C46.1624 39.7648 47.1362 40.0173 48.1145 40.2631C49.425 40.593 50.7537 40.6385 52.0915 40.6112C55.7158 40.5383 58.9328 39.3166 61.8086 37.1461C62.1544 36.8845 62.4866 36.6001 62.887 36.2747V36.277Z" fill="#FD7016"/>
<path d="M51.6321 29.3516C49.9735 29.3197 48.5948 28.6963 47.4891 27.4746C46.0148 25.8433 45.7236 23.534 46.7792 21.6116C47.637 20.0485 48.9156 18.9792 50.6697 18.5538C51.2635 18.4104 51.8642 18.4605 52.4853 18.5742C54.319 18.9064 55.5362 20.0235 56.4144 21.5547C57.0742 22.7082 57.2722 23.9663 56.8877 25.2677C56.2734 27.3404 54.9515 28.7032 52.8174 29.2082C52.433 29.2993 52.028 29.3061 51.6344 29.3516H51.6321Z" fill="#FD7016"/>
</g>
<defs>
<clipPath id="clip0_468_1397">
<rect width="107.355" height="90" fill="white"/>
</clipPath>
</defs>
</svg>
