<svg width="124" height="36" viewBox="0 0 124 36" fill="none" xmlns="http://www.w3.org/2000/svg">
<rect x="0.5" y="0.5" width="123" height="35" rx="7.5" fill="#0B0A0A"/>
<g clip-path="url(#clip0_468_1359)">
<path d="M32.155 17.2765L28.5117 15.1741L25.5156 18.0704L28.2538 20.7178L32.155 18.4661C32.3697 18.3423 32.498 18.12 32.498 17.8716C32.498 17.6233 32.3697 17.401 32.155 17.2765Z" fill="#FFD109"/>
<path d="M27.8936 14.8172L23.8839 12.5027L15.0977 8L25.0214 17.5929L27.8936 14.8172Z" fill="#06EF79"/>
<path d="M15.2432 28L23.8992 23.2318L27.6352 21.0748L25.0215 18.5481L15.2432 28Z" fill="#F93646"/>
<path d="M14.5115 8.38818L14.502 27.7619L24.5274 18.0706L14.5115 8.38818Z" fill="#05D5FB"/>
</g>
<path d="M46.1818 9.5C46.1193 9.30871 46.0369 9.13731 45.9347 8.9858C45.8343 8.83239 45.714 8.7017 45.5739 8.59375C45.4356 8.4858 45.2784 8.40341 45.1023 8.34659C44.9261 8.28977 44.733 8.26136 44.5227 8.26136C44.178 8.26136 43.8646 8.35038 43.5824 8.52841C43.3002 8.70644 43.0758 8.96875 42.9091 9.31534C42.7424 9.66193 42.6591 10.0871 42.6591 10.5909C42.6591 11.0947 42.7434 11.5199 42.9119 11.8665C43.0805 12.2131 43.3087 12.4754 43.5966 12.6534C43.8845 12.8314 44.2083 12.9205 44.5682 12.9205C44.9015 12.9205 45.1951 12.8494 45.4489 12.7074C45.7045 12.5634 45.9034 12.3608 46.0455 12.0994C46.1894 11.8362 46.2614 11.5265 46.2614 11.1705L46.4773 11.2159H44.7273V10.5909H46.9432V11.2159C46.9432 11.6951 46.8409 12.1117 46.6364 12.4659C46.4337 12.8201 46.1534 13.0947 45.7955 13.2898C45.4394 13.483 45.0303 13.5795 44.5682 13.5795C44.053 13.5795 43.6004 13.4583 43.2102 13.2159C42.822 12.9735 42.5189 12.6288 42.3011 12.1818C42.0852 11.7348 41.9773 11.2045 41.9773 10.5909C41.9773 10.1307 42.0388 9.71686 42.1619 9.34943C42.2869 8.98011 42.4631 8.66572 42.6903 8.40625C42.9176 8.14678 43.1866 7.94792 43.4972 7.80966C43.8078 7.6714 44.1496 7.60227 44.5227 7.60227C44.8295 7.60227 45.1155 7.64867 45.3807 7.74148C45.6477 7.83239 45.8854 7.96212 46.0938 8.13068C46.304 8.29735 46.4792 8.49716 46.6193 8.73011C46.7595 8.96117 46.8561 9.2178 46.9091 9.5H46.1818ZM49.8885 13.5909C49.468 13.5909 49.1054 13.4981 48.8004 13.3125C48.4974 13.125 48.2635 12.8636 48.0987 12.5284C47.9358 12.1913 47.8544 11.7992 47.8544 11.3523C47.8544 10.9053 47.9358 10.5114 48.0987 10.1705C48.2635 9.82765 48.4927 9.56061 48.7862 9.36932C49.0817 9.17614 49.4264 9.07955 49.8203 9.07955C50.0476 9.07955 50.272 9.11742 50.4936 9.19318C50.7152 9.26894 50.9169 9.39205 51.0987 9.5625C51.2805 9.73106 51.4254 9.95455 51.5334 10.233C51.6413 10.5114 51.6953 10.8542 51.6953 11.2614V11.5455H48.3317V10.9659H51.0135C51.0135 10.7197 50.9643 10.5 50.8658 10.3068C50.7692 10.1136 50.6309 9.96117 50.451 9.84943C50.273 9.73769 50.0627 9.68182 49.8203 9.68182C49.5533 9.68182 49.3222 9.74811 49.1271 9.88068C48.9339 10.0114 48.7853 10.1818 48.6811 10.392C48.5769 10.6023 48.5249 10.8277 48.5249 11.0682V11.4545C48.5249 11.7841 48.5817 12.0634 48.6953 12.2926C48.8108 12.5199 48.9709 12.6932 49.1754 12.8125C49.38 12.9299 49.6177 12.9886 49.8885 12.9886C50.0646 12.9886 50.2237 12.964 50.3658 12.9148C50.5097 12.8636 50.6338 12.7879 50.7379 12.6875C50.8421 12.5852 50.9226 12.4583 50.9794 12.3068L51.6271 12.4886C51.5589 12.7083 51.4444 12.9015 51.2834 13.0682C51.1224 13.233 50.9235 13.3617 50.6868 13.4545C50.45 13.5455 50.1839 13.5909 49.8885 13.5909ZM54.6129 9.13636V9.70455H52.3516V9.13636H54.6129ZM53.0107 8.09091H53.6811V12.25C53.6811 12.4394 53.7086 12.5814 53.7635 12.6761C53.8203 12.7689 53.8923 12.8314 53.9794 12.8636C54.0684 12.8939 54.1622 12.9091 54.2607 12.9091C54.3345 12.9091 54.3951 12.9053 54.4425 12.8977C54.4898 12.8883 54.5277 12.8807 54.5561 12.875L54.6925 13.4773C54.647 13.4943 54.5836 13.5114 54.5021 13.5284C54.4207 13.5473 54.3175 13.5568 54.1925 13.5568C54.0031 13.5568 53.8175 13.5161 53.6357 13.4347C53.4557 13.3532 53.3061 13.2292 53.1868 13.0625C53.0694 12.8958 53.0107 12.6856 53.0107 12.4318V8.09091ZM57.8714 13.5V9.13636H58.5419V13.5H57.8714ZM58.2124 8.40909C58.0817 8.40909 57.969 8.36458 57.8743 8.27557C57.7815 8.18655 57.7351 8.07955 57.7351 7.95455C57.7351 7.82955 57.7815 7.72254 57.8743 7.63352C57.969 7.54451 58.0817 7.5 58.2124 7.5C58.343 7.5 58.4548 7.54451 58.5476 7.63352C58.6423 7.72254 58.6896 7.82955 58.6896 7.95455C58.6896 8.07955 58.6423 8.18655 58.5476 8.27557C58.4548 8.36458 58.343 8.40909 58.2124 8.40909ZM61.6676 9.13636V9.70455H59.4062V9.13636H61.6676ZM60.0653 8.09091H60.7358V12.25C60.7358 12.4394 60.7633 12.5814 60.8182 12.6761C60.875 12.7689 60.947 12.8314 61.0341 12.8636C61.1231 12.8939 61.2169 12.9091 61.3153 12.9091C61.3892 12.9091 61.4498 12.9053 61.4972 12.8977C61.5445 12.8883 61.5824 12.8807 61.6108 12.875L61.7472 13.4773C61.7017 13.4943 61.6383 13.5114 61.5568 13.5284C61.4754 13.5473 61.3722 13.5568 61.2472 13.5568C61.0578 13.5568 60.8722 13.5161 60.6903 13.4347C60.5104 13.3532 60.3608 13.2292 60.2415 13.0625C60.1241 12.8958 60.0653 12.6856 60.0653 12.4318V8.09091ZM66.6989 13.5909C66.3049 13.5909 65.9593 13.4972 65.6619 13.3097C65.3665 13.1222 65.1354 12.8598 64.9688 12.5227C64.804 12.1856 64.7216 11.7917 64.7216 11.3409C64.7216 10.8864 64.804 10.4896 64.9688 10.1506C65.1354 9.81155 65.3665 9.5483 65.6619 9.3608C65.9593 9.1733 66.3049 9.07955 66.6989 9.07955C67.0928 9.07955 67.4375 9.1733 67.733 9.3608C68.0303 9.5483 68.2614 9.81155 68.4261 10.1506C68.5928 10.4896 68.6761 10.8864 68.6761 11.3409C68.6761 11.7917 68.5928 12.1856 68.4261 12.5227C68.2614 12.8598 68.0303 13.1222 67.733 13.3097C67.4375 13.4972 67.0928 13.5909 66.6989 13.5909ZM66.6989 12.9886C66.9981 12.9886 67.2443 12.9119 67.4375 12.7585C67.6307 12.6051 67.7737 12.4034 67.8665 12.1534C67.9593 11.9034 68.0057 11.6326 68.0057 11.3409C68.0057 11.0492 67.9593 10.7775 67.8665 10.5256C67.7737 10.2737 67.6307 10.0701 67.4375 9.91477C67.2443 9.75947 66.9981 9.68182 66.6989 9.68182C66.3996 9.68182 66.1534 9.75947 65.9602 9.91477C65.767 10.0701 65.6241 10.2737 65.5312 10.5256C65.4384 10.7775 65.392 11.0492 65.392 11.3409C65.392 11.6326 65.4384 11.9034 65.5312 12.1534C65.6241 12.4034 65.767 12.6051 65.9602 12.7585C66.1534 12.9119 66.3996 12.9886 66.6989 12.9886ZM70.37 10.875V13.5H69.6996V9.13636H70.3473V9.81818H70.4041C70.5064 9.59659 70.6617 9.41856 70.87 9.28409C71.0784 9.14773 71.3473 9.07955 71.6768 9.07955C71.9723 9.07955 72.2308 9.14015 72.4524 9.26136C72.674 9.38068 72.8464 9.5625 72.9695 9.80682C73.0926 10.0492 73.1541 10.3561 73.1541 10.7273V13.5H72.4837V10.7727C72.4837 10.4299 72.3946 10.1629 72.2166 9.97159C72.0386 9.77841 71.7943 9.68182 71.4837 9.68182C71.2696 9.68182 71.0784 9.72822 70.9098 9.82102C70.7431 9.91383 70.6115 10.0492 70.5149 10.2273C70.4183 10.4053 70.37 10.6212 70.37 10.875Z" fill="#FCFCFC"/>
<path d="M48.2074 21.5597C48.1364 21.3295 48.0384 21.1236 47.9134 20.9418C47.7912 20.7571 47.6435 20.5994 47.4702 20.4688C47.2997 20.3381 47.1037 20.2401 46.8821 20.1747C46.6605 20.1065 46.419 20.0724 46.1577 20.0724C45.6889 20.0724 45.2713 20.1903 44.9048 20.4261C44.5384 20.6619 44.25 21.0085 44.0398 21.4659C43.8324 21.9205 43.7287 22.4744 43.7287 23.1278C43.7287 23.7869 43.8324 24.3452 44.0398 24.8026C44.2472 25.2599 44.5355 25.608 44.9048 25.8466C45.2741 26.0824 45.7031 26.2003 46.1918 26.2003C46.6349 26.2003 47.0185 26.1151 47.3423 25.9446C47.669 25.7741 47.9205 25.5327 48.0966 25.2202C48.2727 24.9048 48.3608 24.5355 48.3608 24.1122L48.7188 24.1676H46.3494V22.9318H49.8906V23.9801C49.8906 24.7273 49.7315 25.3736 49.4134 25.919C49.0952 26.4645 48.6577 26.8849 48.1009 27.1804C47.544 27.473 46.9048 27.6193 46.1832 27.6193C45.3793 27.6193 44.6733 27.4389 44.0653 27.0781C43.4602 26.7145 42.9872 26.1989 42.6463 25.5312C42.3082 24.8608 42.1392 24.0653 42.1392 23.1449C42.1392 22.4403 42.2386 21.8111 42.4375 21.2571C42.6392 20.7031 42.9205 20.233 43.2812 19.8466C43.642 19.4574 44.0653 19.1619 44.5511 18.9602C45.0369 18.7557 45.5653 18.6534 46.1364 18.6534C46.6193 18.6534 47.0696 18.7244 47.4872 18.8665C47.9048 19.0057 48.2756 19.2045 48.5994 19.4631C48.9261 19.7216 49.1946 20.0284 49.4048 20.3835C49.6151 20.7386 49.7528 21.1307 49.8182 21.5597H48.2074ZM54.2063 27.6278C53.5671 27.6278 53.0131 27.4872 52.5444 27.206C52.0756 26.9247 51.712 26.5312 51.4535 26.0256C51.1978 25.5199 51.07 24.929 51.07 24.2528C51.07 23.5767 51.1978 22.9844 51.4535 22.4759C51.712 21.9673 52.0756 21.5724 52.5444 21.2912C53.0131 21.0099 53.5671 20.8693 54.2063 20.8693C54.8455 20.8693 55.3995 21.0099 55.8683 21.2912C56.337 21.5724 56.6992 21.9673 56.9549 22.4759C57.2134 22.9844 57.3427 23.5767 57.3427 24.2528C57.3427 24.929 57.2134 25.5199 56.9549 26.0256C56.6992 26.5312 56.337 26.9247 55.8683 27.206C55.3995 27.4872 54.8455 27.6278 54.2063 27.6278ZM54.2148 26.392C54.5614 26.392 54.8512 26.2969 55.0842 26.1065C55.3171 25.9134 55.4904 25.6548 55.604 25.331C55.7205 25.0071 55.7788 24.6463 55.7788 24.2486C55.7788 23.848 55.7205 23.4858 55.604 23.1619C55.4904 22.8352 55.3171 22.5753 55.0842 22.3821C54.8512 22.1889 54.5614 22.0923 54.2148 22.0923C53.8597 22.0923 53.5643 22.1889 53.3285 22.3821C53.0955 22.5753 52.9208 22.8352 52.8043 23.1619C52.6907 23.4858 52.6339 23.848 52.6339 24.2486C52.6339 24.6463 52.6907 25.0071 52.8043 25.331C52.9208 25.6548 53.0955 25.9134 53.3285 26.1065C53.5643 26.2969 53.8597 26.392 54.2148 26.392ZM61.5071 27.6278C60.8679 27.6278 60.3139 27.4872 59.8452 27.206C59.3764 26.9247 59.0128 26.5312 58.7543 26.0256C58.4986 25.5199 58.3707 24.929 58.3707 24.2528C58.3707 23.5767 58.4986 22.9844 58.7543 22.4759C59.0128 21.9673 59.3764 21.5724 59.8452 21.2912C60.3139 21.0099 60.8679 20.8693 61.5071 20.8693C62.1463 20.8693 62.7003 21.0099 63.169 21.2912C63.6378 21.5724 64 21.9673 64.2557 22.4759C64.5142 22.9844 64.6435 23.5767 64.6435 24.2528C64.6435 24.929 64.5142 25.5199 64.2557 26.0256C64 26.5312 63.6378 26.9247 63.169 27.206C62.7003 27.4872 62.1463 27.6278 61.5071 27.6278ZM61.5156 26.392C61.8622 26.392 62.152 26.2969 62.3849 26.1065C62.6179 25.9134 62.7912 25.6548 62.9048 25.331C63.0213 25.0071 63.0795 24.6463 63.0795 24.2486C63.0795 23.848 63.0213 23.4858 62.9048 23.1619C62.7912 22.8352 62.6179 22.5753 62.3849 22.3821C62.152 22.1889 61.8622 22.0923 61.5156 22.0923C61.1605 22.0923 60.8651 22.1889 60.6293 22.3821C60.3963 22.5753 60.2216 22.8352 60.1051 23.1619C59.9915 23.4858 59.9347 23.848 59.9347 24.2486C59.9347 24.6463 59.9915 25.0071 60.1051 25.331C60.2216 25.6548 60.3963 25.9134 60.6293 26.1065C60.8651 26.2969 61.1605 26.392 61.5156 26.392ZM68.7994 30.0909C68.2454 30.0909 67.7695 30.0156 67.3718 29.8651C66.9741 29.7173 66.6545 29.5185 66.413 29.2685C66.1715 29.0185 66.0039 28.7415 65.9102 28.4375L67.2994 28.1009C67.3619 28.2287 67.4528 28.3551 67.5721 28.4801C67.6914 28.608 67.8519 28.7131 68.0536 28.7955C68.2582 28.8807 68.5153 28.9233 68.8249 28.9233C69.2624 28.9233 69.6246 28.8168 69.9116 28.6037C70.1985 28.3935 70.342 28.0469 70.342 27.5639V26.3239H70.2653C70.1857 26.483 70.0692 26.6463 69.9158 26.8139C69.7653 26.9815 69.565 27.1222 69.315 27.2358C69.0678 27.3494 68.7567 27.4062 68.3817 27.4062C67.8789 27.4062 67.4229 27.2884 67.0138 27.0526C66.6076 26.8139 66.2837 26.4588 66.0423 25.9872C65.8036 25.5128 65.6843 24.919 65.6843 24.206C65.6843 23.4872 65.8036 22.8807 66.0423 22.3864C66.2837 21.8892 66.609 21.5128 67.0181 21.2571C67.4272 20.9986 67.8832 20.8693 68.386 20.8693C68.7695 20.8693 69.0849 20.9347 69.332 21.0653C69.582 21.1932 69.7809 21.348 69.9286 21.5298C70.0763 21.7088 70.1886 21.8778 70.2653 22.0369H70.3505V20.9545H71.8718V27.6065C71.8718 28.1662 71.7383 28.6293 71.4712 28.9957C71.2042 29.3622 70.8391 29.6364 70.3761 29.8182C69.913 30 69.3874 30.0909 68.7994 30.0909ZM68.8121 26.196C69.1388 26.196 69.4173 26.1165 69.6474 25.9574C69.8775 25.7983 70.0522 25.5696 70.1715 25.2713C70.2908 24.973 70.3505 24.6151 70.3505 24.1974C70.3505 23.7855 70.2908 23.4247 70.1715 23.1151C70.055 22.8054 69.8817 22.5653 69.6516 22.3949C69.4244 22.2216 69.1445 22.1349 68.8121 22.1349C68.4684 22.1349 68.1815 22.2244 67.9513 22.4034C67.7212 22.5824 67.5479 22.8281 67.4315 23.1406C67.315 23.4503 67.2567 23.8026 67.2567 24.1974C67.2567 24.598 67.315 24.9489 67.4315 25.25C67.5508 25.5483 67.7255 25.7812 67.9556 25.9489C68.1886 26.1136 68.4741 26.196 68.8121 26.196ZM74.9954 18.7727V27.5H73.4528V18.7727H74.9954ZM79.4794 27.6278C78.8232 27.6278 78.2564 27.4915 77.7791 27.2188C77.3047 26.9432 76.9396 26.554 76.6839 26.0511C76.4283 25.5455 76.3004 24.9503 76.3004 24.2656C76.3004 23.5923 76.4283 23.0014 76.6839 22.4929C76.9425 21.9815 77.3033 21.5838 77.7663 21.2997C78.2294 21.0128 78.7734 20.8693 79.3984 20.8693C79.8018 20.8693 80.1825 20.9347 80.5405 21.0653C80.9013 21.1932 81.2195 21.392 81.495 21.6619C81.7734 21.9318 81.9922 22.2756 82.1513 22.6932C82.3104 23.108 82.3899 23.6023 82.3899 24.1761V24.6491H77.0249V23.6094H80.9112C80.9084 23.3139 80.8445 23.0511 80.7195 22.821C80.5945 22.5881 80.4197 22.4048 80.1953 22.2713C79.9737 22.1378 79.7152 22.071 79.4197 22.071C79.1044 22.071 78.8274 22.1477 78.5888 22.3011C78.3501 22.4517 78.1641 22.6506 78.0305 22.8977C77.8999 23.142 77.8331 23.4105 77.8303 23.7031V24.6108C77.8303 24.9915 77.8999 25.3182 78.0391 25.5909C78.1783 25.8608 78.3729 26.0682 78.6229 26.2131C78.8729 26.3551 79.1655 26.4261 79.5007 26.4261C79.7251 26.4261 79.9283 26.3949 80.1101 26.3324C80.2919 26.267 80.4496 26.1719 80.5831 26.0469C80.7166 25.9219 80.8175 25.767 80.8857 25.5824L82.326 25.7443C82.2351 26.125 82.0618 26.4574 81.8061 26.7415C81.5533 27.0227 81.2294 27.2415 80.8345 27.3977C80.4396 27.5511 79.9879 27.6278 79.4794 27.6278ZM86.7397 27.5V18.7727H90.0124C90.6829 18.7727 91.2454 18.8977 91.6999 19.1477C92.1573 19.3977 92.5025 19.7415 92.7354 20.179C92.9712 20.6136 93.0891 21.108 93.0891 21.6619C93.0891 22.2216 92.9712 22.7187 92.7354 23.1534C92.4996 23.5881 92.1516 23.9304 91.6914 24.1804C91.2312 24.4276 90.6644 24.5511 89.9911 24.5511H87.8221V23.2514H89.7781C90.1701 23.2514 90.4911 23.1832 90.7411 23.0469C90.9911 22.9105 91.1758 22.723 91.2951 22.4844C91.4173 22.2457 91.4783 21.9716 91.4783 21.6619C91.4783 21.3523 91.4173 21.0795 91.2951 20.8438C91.1758 20.608 90.9897 20.4247 90.7369 20.294C90.4869 20.1605 90.1644 20.0938 89.7695 20.0938H88.3207V27.5H86.7397ZM95.9368 18.7727V27.5H94.3942V18.7727H95.9368ZM99.4066 27.6321C98.9918 27.6321 98.6183 27.5582 98.2859 27.4105C97.9563 27.2599 97.695 27.0384 97.5018 26.7457C97.3114 26.4531 97.2163 26.0923 97.2163 25.6634C97.2163 25.294 97.2844 24.9886 97.4208 24.7472C97.5572 24.5057 97.7433 24.3125 97.979 24.1676C98.2148 24.0227 98.4805 23.9134 98.7759 23.8395C99.0742 23.7628 99.3825 23.7074 99.7006 23.6733C100.084 23.6335 100.395 23.598 100.634 23.5668C100.873 23.5327 101.046 23.4815 101.154 23.4134C101.265 23.3423 101.32 23.233 101.32 23.0852V23.0597C101.32 22.7386 101.225 22.4901 101.034 22.3139C100.844 22.1378 100.57 22.0497 100.212 22.0497C99.8342 22.0497 99.5344 22.1321 99.3129 22.2969C99.0941 22.4616 98.9464 22.6562 98.8697 22.8807L97.4293 22.6761C97.543 22.2784 97.7305 21.946 97.9918 21.679C98.2532 21.4091 98.5728 21.2074 98.9506 21.0739C99.3285 20.9375 99.7461 20.8693 100.203 20.8693C100.519 20.8693 100.833 20.9062 101.145 20.9801C101.458 21.054 101.743 21.1761 102.002 21.3466C102.26 21.5142 102.468 21.7429 102.624 22.0327C102.783 22.3224 102.863 22.6847 102.863 23.1193V27.5H101.38V26.6009H101.328C101.235 26.7827 101.103 26.9531 100.932 27.1122C100.765 27.2685 100.553 27.3949 100.297 27.4915C100.044 27.5852 99.7475 27.6321 99.4066 27.6321ZM99.8072 26.4986C100.117 26.4986 100.385 26.4375 100.613 26.3153C100.84 26.1903 101.015 26.0256 101.137 25.821C101.262 25.6165 101.324 25.3935 101.324 25.152V24.3807C101.276 24.4205 101.194 24.4574 101.077 24.4915C100.963 24.5256 100.836 24.5554 100.694 24.581C100.551 24.6065 100.411 24.6293 100.272 24.6491C100.132 24.669 100.012 24.6861 99.9094 24.7003C99.6793 24.7315 99.4734 24.7827 99.2915 24.8537C99.1097 24.9247 98.9663 25.0241 98.8612 25.152C98.756 25.277 98.7035 25.4389 98.7035 25.6378C98.7035 25.9219 98.8072 26.1364 99.0146 26.2812C99.2219 26.4261 99.4862 26.4986 99.8072 26.4986ZM105.138 29.9545C104.928 29.9545 104.733 29.9375 104.554 29.9034C104.378 29.8722 104.238 29.8352 104.132 29.7926L104.49 28.5909C104.715 28.6563 104.915 28.6875 105.091 28.6847C105.267 28.6818 105.422 28.6264 105.556 28.5185C105.692 28.4134 105.807 28.2372 105.901 27.9901L106.033 27.6364L103.659 20.9545H105.296L106.804 25.8977H106.873L108.385 20.9545H110.026L107.405 28.2926C107.283 28.6392 107.121 28.9361 106.919 29.1832C106.718 29.4332 106.471 29.6236 106.178 29.7543C105.888 29.8878 105.542 29.9545 105.138 29.9545Z" fill="#FCFCFC"/>
<rect x="0.5" y="0.5" width="123" height="35" rx="7.5" stroke="#0B0A0A"/>
<defs>
<clipPath id="clip0_468_1359">
<rect width="17.9961" height="20" fill="white" transform="translate(14.502 8)"/>
</clipPath>
</defs>
</svg>
