<svg width="32" height="32" viewBox="0 0 32 32" fill="none" xmlns="http://www.w3.org/2000/svg">
<g clip-path="url(#clip0_468_1381)">
<path d="M16 32C24.8366 32 32 24.8366 32 16C32 7.16344 24.8366 0 16 0C7.16344 0 0 7.16344 0 16C0 24.8366 7.16344 32 16 32Z" fill="#4467AD"/>
<path d="M17.2375 13.817C17.5006 13.5207 17.7164 13.222 17.9866 12.9684C18.8162 12.1862 19.7975 11.7927 20.9448 11.8022C21.5753 11.8069 22.1964 11.8519 22.8032 12.0274C24.1922 12.4279 24.9981 13.3856 25.3845 14.7414C25.6737 15.7583 25.7258 16.8036 25.7282 17.8514C25.7329 20.0605 25.7211 22.2721 25.7282 24.4813C25.7282 24.6875 25.6713 24.742 25.4675 24.742C24.3297 24.7325 23.1895 24.7325 22.0518 24.742C21.8503 24.742 21.8076 24.6828 21.8076 24.4931C21.8147 22.3906 21.8147 20.2881 21.8076 18.1832C21.8076 17.657 21.7721 17.1284 21.6251 16.6164C21.3525 15.673 20.6769 15.1918 19.6885 15.2439C18.3374 15.3151 17.6358 15.9835 17.4651 17.3559C17.4248 17.6831 17.4035 18.0125 17.4058 18.342C17.4058 20.3877 17.4058 22.4333 17.4106 24.4789C17.4106 24.6828 17.3608 24.742 17.1522 24.742C16.0049 24.7325 14.8577 24.7325 13.7104 24.742C13.5255 24.742 13.4734 24.6946 13.4734 24.5074C13.4781 20.4588 13.4781 16.4078 13.4734 12.3592C13.4734 12.1577 13.5398 12.1127 13.7294 12.1127C14.8174 12.1198 15.9078 12.1222 16.9958 12.1127C17.1972 12.1127 17.247 12.1767 17.2446 12.3663C17.2328 12.8499 17.2399 13.3334 17.2399 13.8194L17.2375 13.817Z" fill="#FCFCFC"/>
<path d="M10.9986 18.444C10.9986 20.4469 10.9962 22.4499 11.0033 24.4529C11.0033 24.6757 10.9488 24.7421 10.7189 24.7397C9.58113 24.7278 8.44335 24.7302 7.3032 24.7397C7.12068 24.7397 7.06616 24.6946 7.06616 24.5074C7.0709 20.4517 7.0709 16.396 7.06616 12.3379C7.06616 12.1696 7.10646 12.1104 7.28424 12.1104C8.43861 12.1175 9.59298 12.1198 10.7473 12.1104C10.9702 12.1104 10.9986 12.1933 10.9986 12.3853C10.9939 14.4049 10.9962 16.4244 10.9962 18.444H10.9986Z" fill="#FCFCFC"/>
<path d="M11.3139 8.09256C11.3139 9.35123 10.2946 10.3752 9.03834 10.3752C7.79863 10.3752 6.76989 9.35123 6.76515 8.11152C6.76041 6.85997 7.78915 5.82886 9.04308 5.82886C10.2875 5.82886 11.3115 6.85049 11.3139 8.09019V8.09256Z" fill="#FCFCFC"/>
</g>
<defs>
<clipPath id="clip0_468_1381">
<rect width="32" height="32" fill="white"/>
</clipPath>
</defs>
</svg>
