<svg width="32" height="32" viewBox="0 0 32 32" fill="none" xmlns="http://www.w3.org/2000/svg">
<g clip-path="url(#clip0_468_1387)">
<path d="M16 32C24.8366 32 32 24.8366 32 16C32 7.16344 24.8366 0 16 0C7.16344 0 0 7.16344 0 16C0 24.8366 7.16344 32 16 32Z" fill="#0068FF"/>
<path opacity="0.12" fill-rule="evenodd" clip-rule="evenodd" d="M31.4 16.3999L6.5 26.3499L10.85 30.9999C12.4 31.4999 14.05 31.7999 15.75 31.7999C24.35 31.7999 31.3 24.9499 31.4 16.3999Z" fill="url(#paint0_linear_468_1387)"/>
<path fill-rule="evenodd" clip-rule="evenodd" d="M27.15 26.7999C29.8 23.9999 31.6 20.2999 31.6 16.1499C31.6 7.4499 24.55 0.399902 15.85 0.399902C12.4 0.399902 9.4 1.6999 6.8 3.5499C3.8 9.1499 3.95 17.3999 7.65 22.3499V22.3999C8.35 23.3999 7.65 25.1999 6.65 26.1999C6.5 26.3499 6.55 26.4499 6.8 26.4999C8.25 26.6499 10.1 26.2499 11.4 25.5999C15.85 28.0499 22 28.3999 27.15 26.7999Z" fill="#FCFCFC"/>
<path d="M14.7 12H9.59995V13.1H13.15L9.64995 17.4C9.54995 17.55 9.44995 17.7 9.44995 18.05V18.35H14.25C14.5 18.35 14.7 18.15 14.7 17.9V17.3H11L14.25 13.2C14.3 13.15 14.4 13.05 14.45 13V12.95C14.65 12.65 14.7 12.45 14.7 12.15V12Z" fill="#0068FF"/>
<path d="M21.2001 18.3H21.9V12H20.8V17.95C20.85 18.15 21.0001 18.3 21.2001 18.3Z" fill="#0068FF"/>
<path d="M17.45 13.3999C16.1 13.3999 14.95 14.4999 14.95 15.8999C14.95 17.2999 16.05 18.3999 17.45 18.3999C18.85 18.3999 19.95 17.2999 19.95 15.8999C19.95 14.4999 18.85 13.3999 17.45 13.3999ZM17.45 17.3499C16.65 17.3499 16 16.6999 16 15.8999C16 15.0999 16.65 14.4499 17.45 14.4499C18.25 14.4499 18.9 15.0999 18.9 15.8999C18.9 16.6999 18.3 17.3499 17.45 17.3499Z" fill="#0068FF"/>
<path d="M25.1499 13.3501C23.7499 13.3501 22.6499 14.4501 22.6499 15.8501C22.6499 17.2501 23.7499 18.3501 25.1499 18.3501C26.5499 18.3501 27.6499 17.2501 27.6499 15.8501C27.6499 14.4501 26.4999 13.3501 25.1499 13.3501ZM25.1499 17.3501C24.3499 17.3501 23.6999 16.7001 23.6999 15.9001C23.6999 15.1001 24.3499 14.4501 25.1499 14.4501C25.9499 14.4501 26.5999 15.1001 26.5999 15.9001C26.5999 16.6501 25.9499 17.3501 25.1499 17.3501Z" fill="#0068FF"/>
<path d="M19.35 18.3H19.95V13.5H18.95V17.85C18.95 18.1 19.15 18.3 19.35 18.3Z" fill="#0068FF"/>
</g>
<defs>
<linearGradient id="paint0_linear_468_1387" x1="18.805" y1="21.1399" x2="20.905" y2="24.5299" gradientUnits="userSpaceOnUse">
<stop/>
<stop offset="0.94" stop-opacity="0.06"/>
<stop offset="1" stop-opacity="0"/>
</linearGradient>
<clipPath id="clip0_468_1387">
<rect width="32" height="32" fill="white"/>
</clipPath>
</defs>
</svg>
