<svg width="32" height="32" viewBox="0 0 32 32" fill="none" xmlns="http://www.w3.org/2000/svg">
<g clip-path="url(#clip0_468_1378)">
<path d="M16 32C24.8366 32 32 24.8366 32 16C32 7.16344 24.8366 0 16 0C7.16344 0 0 7.16344 0 16C0 24.8366 7.16344 32 16 32Z" fill="#DA0000"/>
<path d="M26.221 10.8659C25.9768 9.94856 25.2538 9.2256 24.3341 8.97908C22.6701 8.53345 15.9999 8.53345 15.9999 8.53345C15.9999 8.53345 9.3297 8.53345 7.6657 8.97908C6.74836 9.2256 6.0254 9.94619 5.77888 10.8659C5.33325 12.5299 5.33325 16.0001 5.33325 16.0001C5.33325 16.0001 5.33325 19.4703 5.77888 21.1343C6.02303 22.0517 6.74599 22.7746 7.6657 23.0212C9.3297 23.4668 15.9999 23.4668 15.9999 23.4668C15.9999 23.4668 22.6701 23.4668 24.3341 23.0212C25.2515 22.7746 25.9744 22.054 26.221 21.1343C26.6666 19.4703 26.6666 16.0001 26.6666 16.0001C26.6666 16.0001 26.6666 12.5299 26.221 10.8659ZM13.8666 19.2001V12.8001L19.4085 16.0001L13.8666 19.2001Z" fill="#FCFCFC"/>
</g>
<defs>
<clipPath id="clip0_468_1378">
<rect width="32" height="32" fill="white"/>
</clipPath>
</defs>
</svg>
