<svg width="110" height="104" viewBox="0 0 110 104" fill="none" xmlns="http://www.w3.org/2000/svg">
<rect x="25" width="60" height="60" rx="30" fill="#D4E2FC"/>
<path d="M67.4118 10.9216C63.7318 10.9216 60.7451 13.9083 60.7451 17.5883C60.7451 21.2683 63.7318 24.255 67.4118 24.255C71.0918 24.255 74.0785 21.2683 74.0785 17.5883C74.0785 13.9083 71.0918 10.9216 67.4118 10.9216ZM67.4118 22.0327C64.9585 22.0327 62.9673 20.0416 62.9673 17.5883C62.9673 15.135 64.9585 13.1439 67.4118 13.1439C69.8651 13.1439 71.8562 15.135 71.8562 17.5883C71.8562 20.0416 69.8651 22.0327 67.4118 22.0327Z" fill="#276EF1"/>
<path d="M65.1896 15.3661H55.763C54.5852 15.3661 53.4519 15.8328 52.6207 16.6683L37.2252 32.0639C35.4874 33.8016 35.4874 36.615 37.2252 38.3483L46.6519 47.775C48.3896 49.5128 51.203 49.5128 52.9363 47.775L68.3319 32.3794C69.1674 31.5439 69.6341 30.415 69.6341 29.2372V19.8105C69.6341 17.3572 67.643 15.3661 65.1896 15.3661ZM62.9674 24.255C61.7408 24.255 60.7452 23.2594 60.7452 22.0328C60.7452 20.8061 61.7408 19.8105 62.9674 19.8105C64.1941 19.8105 65.1896 20.8061 65.1896 22.0328C65.1896 23.2594 64.1941 24.255 62.9674 24.255Z" fill="#7DA8F7"/>
<path d="M62.9674 17.5883C60.5141 17.5883 58.5229 19.5794 58.5229 22.0327C58.5229 24.486 60.5141 26.4771 62.9674 26.4771C65.4207 26.4771 67.4118 24.486 67.4118 22.0327C67.4118 19.5794 65.4207 17.5883 62.9674 17.5883ZM62.9674 24.2549C61.7407 24.2549 60.7452 23.2594 60.7452 22.0327C60.7452 20.806 61.7407 19.8105 62.9674 19.8105C64.1941 19.8105 65.1896 20.806 65.1896 22.0327C65.1896 23.2594 64.1941 24.2549 62.9674 24.2549Z" fill="#174291"/>
<path d="M49.2475 37.895C49.0786 37.7261 48.8875 37.6373 48.6741 37.6328C48.4608 37.6284 48.1897 37.6995 47.8608 37.8506C47.5319 38.0017 47.2608 38.1084 47.0519 38.1661C46.3586 38.3617 45.7675 38.2195 45.283 37.735C44.9541 37.4061 44.7808 37.0373 44.7586 36.6328C44.7363 36.2284 44.8741 35.8417 45.1675 35.4684L44.5186 34.8195L44.9763 34.3617L45.6297 35.015C46.0119 34.7306 46.4163 34.6195 46.8386 34.6817C47.2608 34.7439 47.6697 34.9661 48.0563 35.3573L47.363 36.0506C47.1141 35.8017 46.8608 35.6595 46.6119 35.6239C46.363 35.5884 46.1408 35.6639 45.9586 35.8461C45.7763 36.0284 45.683 36.2239 45.683 36.4328C45.683 36.6417 45.7808 36.8373 45.9719 37.0328C46.1452 37.2061 46.3319 37.2906 46.5408 37.295C46.7497 37.2995 47.0208 37.2239 47.3586 37.0728C47.6963 36.9217 47.9763 36.815 48.1941 36.7573C48.4119 36.6995 48.6208 36.6684 48.8208 36.6773C49.0208 36.6861 49.2075 36.7261 49.3941 36.8106C49.5808 36.895 49.7586 37.0239 49.9363 37.2017C50.2697 37.535 50.443 37.9084 50.4563 38.3128C50.4697 38.7173 50.3141 39.1173 49.9986 39.5084L50.5763 40.0861L50.1186 40.5439L49.5408 39.9661C49.1185 40.2995 48.6875 40.4506 48.2475 40.415C47.8075 40.3795 47.3897 40.1661 46.9986 39.775L47.6963 39.0773C47.9452 39.3261 48.1985 39.4595 48.4563 39.4773C48.7141 39.495 48.9541 39.3884 49.1763 39.1661C49.3985 38.9439 49.5052 38.7261 49.5097 38.5039C49.5141 38.2817 49.4252 38.0817 49.2475 37.8995V37.895Z" fill="#FCFCFC"/>
<path d="M52.5809 34.5617C52.4121 34.3928 52.221 34.3039 52.0076 34.2994C51.7943 34.295 51.5232 34.3661 51.1943 34.5172C50.8654 34.6683 50.5943 34.775 50.3854 34.8328C49.6921 35.0283 49.101 34.8861 48.6165 34.4017C48.2876 34.0728 48.1143 33.7039 48.0921 33.2994C48.0698 32.895 48.2076 32.5083 48.5009 32.135L47.8521 31.4861L48.3098 31.0283L48.9632 31.6817C49.3454 31.3972 49.7498 31.2861 50.1721 31.3483C50.5943 31.4105 51.0032 31.6328 51.3898 32.0239L50.6965 32.7172C50.4476 32.4683 50.1943 32.3261 49.9454 32.2905C49.6965 32.255 49.4743 32.3305 49.292 32.5128C49.1098 32.695 49.0165 32.8905 49.0165 33.0994C49.0165 33.3083 49.1143 33.5039 49.3054 33.6994C49.4787 33.8728 49.6654 33.9572 49.8743 33.9617C50.0832 33.9661 50.3543 33.8905 50.6921 33.7394C51.0298 33.5883 51.3098 33.4817 51.5276 33.4239C51.7454 33.3661 51.9543 33.335 52.1543 33.3439C52.3543 33.3528 52.541 33.3928 52.7276 33.4772C52.9143 33.5617 53.0921 33.6905 53.2698 33.8683C53.6032 34.2017 53.7765 34.575 53.7898 34.9794C53.8032 35.3839 53.6476 35.7839 53.3321 36.175L53.9098 36.7528L53.4521 37.2105L52.8743 36.6328C52.452 36.9661 52.0209 37.1172 51.5809 37.0816C51.1409 37.0461 50.7232 36.8328 50.3321 36.4417L51.0298 35.7439C51.2787 35.9928 51.532 36.1261 51.7898 36.1439C52.0476 36.1617 52.2876 36.055 52.5098 35.8328C52.732 35.6105 52.8387 35.3928 52.8432 35.1705C52.8476 34.9483 52.7587 34.7483 52.5809 34.5661V34.5617Z" fill="#FCFCFC"/>
<path d="M55.9183 31.2239C55.7495 31.055 55.5583 30.9661 55.345 30.9617C55.1317 30.9572 54.8606 31.0283 54.5317 31.1794C54.2028 31.3305 53.9317 31.4372 53.7228 31.495C53.0295 31.6905 52.4383 31.5483 51.9539 31.0639C51.625 30.735 51.4517 30.3661 51.4294 29.9617C51.4072 29.5572 51.545 29.1705 51.8384 28.7972L51.1895 28.1483L51.6472 27.6906L52.3006 28.3439C52.6828 28.0594 53.0872 27.9483 53.5094 28.0106C53.9317 28.0728 54.3406 28.295 54.7272 28.6861L54.0339 29.3794C53.785 29.1305 53.5317 28.9883 53.2828 28.9528C53.0339 28.9172 52.8117 28.9928 52.6294 29.175C52.4472 29.3572 52.3539 29.5528 52.3539 29.7617C52.3539 29.9706 52.4517 30.1661 52.6428 30.3617C52.8161 30.535 53.0028 30.6194 53.2117 30.6239C53.4206 30.6283 53.6917 30.5528 54.0295 30.4017C54.3672 30.2505 54.6472 30.1439 54.865 30.0861C55.0828 30.0283 55.2917 29.9972 55.4917 30.0061C55.6917 30.015 55.8783 30.055 56.065 30.1394C56.2517 30.2239 56.4295 30.3528 56.6072 30.5305C56.9406 30.8639 57.1139 31.2372 57.1272 31.6417C57.1406 32.0461 56.985 32.4461 56.6695 32.8372L57.2472 33.415L56.7894 33.8728L56.2117 33.295C55.7894 33.6283 55.3583 33.7794 54.9183 33.7439C54.4783 33.7083 54.0606 33.495 53.6695 33.1039L54.3672 32.4061C54.6161 32.655 54.8694 32.7883 55.1272 32.8061C55.385 32.8239 55.625 32.7172 55.8472 32.495C56.0694 32.2728 56.1761 32.055 56.1806 31.8328C56.185 31.6105 56.0961 31.4105 55.9183 31.2283V31.2239Z" fill="#FCFCFC"/>
<path d="M67.4208 10.9216C66.0608 10.9216 64.7941 11.3261 63.7408 12.0239C63.1541 12.4105 63.0652 13.2416 63.563 13.7394C63.9452 14.1216 64.5319 14.1572 64.9808 13.8639C65.7852 13.3394 66.7719 13.0639 67.8252 13.1616C69.8963 13.3483 71.5986 15.015 71.8252 17.0816C72.123 19.7616 70.0297 22.0327 67.4074 22.0327C66.5052 22.0327 65.6652 21.7661 64.9674 21.3038C64.523 21.0105 63.9363 21.0594 63.5586 21.4372C63.0563 21.9394 63.1541 22.775 63.7497 23.1661C64.7986 23.855 66.0563 24.255 67.403 24.255C71.1897 24.255 74.2386 21.0994 74.0608 17.2727C73.9008 13.7616 70.923 10.9261 67.4074 10.9216H67.4208Z" fill="#276EF1"/>
</svg>
