<svg width="110" height="86" viewBox="0 0 110 86" fill="none" xmlns="http://www.w3.org/2000/svg">
<rect x="25" width="60" height="60" rx="30" fill="#DAF1E0"/>
<path d="M37.2222 47.7777V38.8888H46.1111L37.2222 47.7777Z" fill="#24774C"/>
<path d="M41.6666 12.2222H68.3333C70.7866 12.2222 72.7777 14.2133 72.7777 16.6666V38.8888C72.7777 41.3422 70.7866 43.3333 68.3333 43.3333H37.2222V16.6666C37.2222 14.2133 39.2133 12.2222 41.6666 12.2222Z" fill="#88CDA4"/>
<path d="M70.5554 27.7778C70.5554 29.0044 71.551 30 72.7776 30V25.5555C71.551 25.5555 70.5554 26.5511 70.5554 27.7778Z" fill="#1D5F3F"/>
<path d="M39.4444 27.7778C39.4444 26.5511 38.4488 25.5555 37.2222 25.5555V30C38.4488 30 39.4444 29.0044 39.4444 27.7778Z" fill="#1D5F3F"/>
<path fill-rule="evenodd" clip-rule="evenodd" d="M53.8889 20.0786C50.1183 20.6173 47.2222 23.8575 47.2222 27.7777C47.2222 32.0752 50.7025 35.5555 55 35.5555C59.2975 35.5555 62.7778 32.0752 62.7778 27.7777C62.7778 27.1641 63.2752 26.6666 63.8889 26.6666C64.5025 26.6666 65 27.1641 65 27.7777C65 33.3025 60.5248 37.7777 55 37.7777C49.4752 37.7777 45 33.3025 45 27.7777C45 22.2529 49.4752 17.7777 55 17.7777C55.6137 17.7777 56.1111 18.2752 56.1111 18.8888V21.111C56.1111 21.7247 55.6137 22.2222 55 22.2222C54.3863 22.2222 53.8889 21.7247 53.8889 21.111V20.0786Z" fill="#3AA76D"/>
<path d="M54.2 30.8887H51.0934C50.8222 30.8887 50.6045 30.662 50.6045 30.382C50.6045 30.2531 50.6489 30.1331 50.7334 30.0398L52.5822 27.9553C52.8667 27.6264 53.0711 27.3509 53.1911 27.1331C53.3111 26.9153 53.3734 26.6931 53.3734 26.4709C53.3734 26.1776 53.2933 25.942 53.1333 25.7642C52.9733 25.5865 52.76 25.4931 52.4889 25.4931C52.1689 25.4931 51.92 25.5953 51.7422 25.7953C51.6356 25.9198 51.56 26.0709 51.5156 26.2487C51.4622 26.4709 51.2667 26.6265 51.0444 26.6265C50.7244 26.6265 50.4756 26.3109 50.5689 25.9998C50.6089 25.8664 50.6622 25.7376 50.7289 25.6176C50.8934 25.3198 51.1289 25.0842 51.4356 24.9198C51.7422 24.7553 52.0933 24.6709 52.4933 24.6709C53.0711 24.6709 53.5245 24.822 53.8578 25.1198C54.1911 25.4176 54.3556 25.8309 54.3556 26.3598C54.3556 26.6664 54.2711 26.9865 54.1067 27.3242C53.9422 27.662 53.6667 28.0398 53.2845 28.4709L51.8311 30.0753H54.1956C54.4133 30.0753 54.5911 30.2576 54.5911 30.4842C54.5911 30.7109 54.4133 30.8931 54.1956 30.8931L54.2 30.8887Z" fill="#FCFCFC"/>
<path d="M58.7067 28.702H59.0489C59.2667 28.702 59.4489 28.8842 59.4489 29.1109C59.4489 29.3376 59.2711 29.5198 59.0489 29.5198H58.7067V30.3731C58.7067 30.6576 58.4845 30.8842 58.2089 30.8842C57.9334 30.8842 57.7111 30.6531 57.7111 30.3731V29.5198H55.6C55.3467 29.5198 55.1378 29.3153 55.1245 29.0531C55.1201 28.9509 55.1467 28.8531 55.2 28.7642L57.4845 25.062C57.6045 24.8665 57.8178 24.7465 58.0401 24.7465C58.4045 24.7465 58.7023 25.0531 58.7023 25.4309V28.6976L58.7067 28.702ZM56.16 28.702H57.7156V26.1376L57.64 26.2709L56.16 28.6976V28.702Z" fill="#FCFCFC"/>
<path d="M20.9968 75.2536H19.1374C19.0844 74.9486 18.9866 74.6785 18.8441 74.4432C18.7016 74.2045 18.5243 74.0024 18.3121 73.8366C18.1 73.6709 17.8581 73.5466 17.5863 73.4638C17.3178 73.3776 17.0278 73.3345 16.7163 73.3345C16.1628 73.3345 15.6722 73.4737 15.2447 73.7521C14.8171 74.0272 14.4824 74.4316 14.2404 74.9652C13.9985 75.4955 13.8775 76.1435 13.8775 76.9091C13.8775 77.688 13.9985 78.3442 14.2404 78.8778C14.4857 79.4081 14.8204 79.8092 15.2447 80.081C15.6722 80.3494 16.1611 80.4837 16.7113 80.4837C17.0162 80.4837 17.3013 80.4439 17.5664 80.3643C17.8349 80.2815 18.0752 80.1605 18.2873 80.0014C18.5027 79.8423 18.6834 79.6468 18.8292 79.4148C18.9783 79.1828 19.0811 78.9176 19.1374 78.6193L20.9968 78.6293C20.9272 79.1132 20.7764 79.5672 20.5444 79.9915C20.3157 80.4157 20.0157 80.7902 19.6445 81.1151C19.2733 81.4366 18.8391 81.6884 18.342 81.8707C17.8448 82.0497 17.293 82.1392 16.6864 82.1392C15.7915 82.1392 14.9928 81.9321 14.2901 81.5178C13.5875 81.1035 13.034 80.5052 12.6296 79.723C12.2253 78.9408 12.0231 78.0028 12.0231 76.9091C12.0231 75.812 12.2269 74.8741 12.6346 74.0952C13.0423 73.313 13.5974 72.7147 14.3001 72.3004C15.0027 71.8861 15.7982 71.679 16.6864 71.679C17.2532 71.679 17.7802 71.7585 18.2674 71.9176C18.7546 72.0767 19.1888 72.3104 19.57 72.6186C19.9511 72.9235 20.2643 73.2981 20.5096 73.7422C20.7582 74.183 20.9206 74.6868 20.9968 75.2536ZM24.4061 77.5256V82H22.6064V71.8182H24.3663V75.6612H24.4558C24.6348 75.2304 24.9115 74.8906 25.286 74.642C25.6639 74.3902 26.1445 74.2642 26.7278 74.2642C27.2581 74.2642 27.7205 74.3752 28.1149 74.5973C28.5093 74.8194 28.8142 75.1442 29.0297 75.5717C29.2484 75.9993 29.3578 76.5213 29.3578 77.1378V82H27.5581V77.4162C27.5581 76.9025 27.4255 76.5031 27.1603 76.218C26.8985 75.9297 26.5306 75.7855 26.0566 75.7855C25.7385 75.7855 25.4534 75.8551 25.2015 75.9943C24.9529 76.1302 24.7574 76.3274 24.6149 76.5859C24.4757 76.8445 24.4061 77.1577 24.4061 77.5256ZM34.5233 82.1491C33.7775 82.1491 33.1312 81.9851 32.5843 81.657C32.0375 81.3288 31.6132 80.8698 31.3116 80.2798C31.0133 79.6899 30.8642 79.0005 30.8642 78.2116C30.8642 77.4228 31.0133 76.7318 31.3116 76.1385C31.6132 75.5452 32.0375 75.0845 32.5843 74.7564C33.1312 74.4283 33.7775 74.2642 34.5233 74.2642C35.269 74.2642 35.9153 74.4283 36.4622 74.7564C37.0091 75.0845 37.4316 75.5452 37.7299 76.1385C38.0315 76.7318 38.1824 77.4228 38.1824 78.2116C38.1824 79.0005 38.0315 79.6899 37.7299 80.2798C37.4316 80.8698 37.0091 81.3288 36.4622 81.657C35.9153 81.9851 35.269 82.1491 34.5233 82.1491ZM34.5332 80.7074C34.9376 80.7074 35.2756 80.5964 35.5474 80.3743C35.8192 80.1489 36.0214 79.8473 36.1539 79.4695C36.2898 79.0916 36.3578 78.6707 36.3578 78.2067C36.3578 77.7393 36.2898 77.3168 36.1539 76.9389C36.0214 76.5578 35.8192 76.2545 35.5474 76.0291C35.2756 75.8037 34.9376 75.6911 34.5332 75.6911C34.1189 75.6911 33.7742 75.8037 33.4991 76.0291C33.2273 76.2545 33.0235 76.5578 32.8876 76.9389C32.755 77.3168 32.6887 77.7393 32.6887 78.2067C32.6887 78.6707 32.755 79.0916 32.8876 79.4695C33.0235 79.8473 33.2273 80.1489 33.4991 80.3743C33.7742 80.5964 34.1189 80.7074 34.5332 80.7074ZM34.5282 84.7493C34.2399 84.7493 33.993 84.6532 33.7875 84.4609C33.5853 84.2687 33.4842 84.0384 33.4842 83.7699C33.4842 83.5014 33.5853 83.2711 33.7875 83.0788C33.993 82.8866 34.2382 82.7905 34.5233 82.7905C34.8116 82.7905 35.0569 82.8866 35.2591 83.0788C35.4645 83.2711 35.5673 83.5014 35.5673 83.7699C35.5673 84.0384 35.4645 84.2687 35.2591 84.4609C35.0569 84.6532 34.8133 84.7493 34.5282 84.7493ZM41.5096 77.5256V82H39.7099V74.3636H41.43V75.6612H41.5195C41.6952 75.2337 41.9753 74.8939 42.3597 74.642C42.7475 74.3902 43.2264 74.2642 43.7965 74.2642C44.3235 74.2642 44.7826 74.3769 45.1737 74.6023C45.5681 74.8277 45.873 75.1541 46.0884 75.5817C46.3072 76.0092 46.4149 76.5279 46.4116 77.1378V82H44.6119V77.4162C44.6119 76.9058 44.4793 76.5064 44.2141 76.218C43.9523 75.9297 43.5894 75.7855 43.1254 75.7855C42.8105 75.7855 42.5304 75.8551 42.2852 75.9943C42.0432 76.1302 41.8526 76.3274 41.7134 76.5859C41.5775 76.8445 41.5096 77.1577 41.5096 77.5256ZM51.7138 82V74.3636H53.4339V75.6612H53.5234C53.6825 75.2237 53.946 74.8823 54.3139 74.6371C54.6818 74.3885 55.121 74.2642 55.6314 74.2642C56.1484 74.2642 56.5843 74.3902 56.9389 74.642C57.2969 74.8906 57.5488 75.2304 57.6946 75.6612H57.7741C57.9432 75.237 58.2282 74.8989 58.6293 74.647C59.0336 74.3918 59.5125 74.2642 60.0661 74.2642C60.7687 74.2642 61.3421 74.4863 61.7862 74.9304C62.2304 75.3745 62.4524 76.0225 62.4524 76.8743V82H60.6477V77.1527C60.6477 76.6787 60.5218 76.3324 60.2699 76.1136C60.018 75.8916 59.7098 75.7805 59.3452 75.7805C58.911 75.7805 58.5713 75.9164 58.326 76.1882C58.084 76.4567 57.9631 76.8063 57.9631 77.2372V82H56.1982V77.0781C56.1982 76.6837 56.0788 76.3688 55.8402 76.1335C55.6049 75.8982 55.2966 75.7805 54.9155 75.7805C54.657 75.7805 54.4216 75.8468 54.2095 75.9794C53.9974 76.1087 53.8284 76.2926 53.7024 76.5312C53.5765 76.7666 53.5135 77.0417 53.5135 77.3565V82H51.7138ZM69.1454 78.7884V74.3636H70.9451V82H69.2001V80.6428H69.1206C68.9482 81.0703 68.6648 81.42 68.2704 81.6918C67.8793 81.9635 67.3971 82.0994 66.8237 82.0994C66.3232 82.0994 65.8807 81.9884 65.4963 81.7663C65.1151 81.541 64.8168 81.2145 64.6014 80.7869C64.3859 80.3561 64.2782 79.8357 64.2782 79.2259V74.3636H66.0779V78.9474C66.0779 79.4313 66.2105 79.8158 66.4757 80.1009C66.7408 80.3859 67.0888 80.5284 67.5197 80.5284C67.7849 80.5284 68.0417 80.4638 68.2903 80.3345C68.5389 80.2053 68.7427 80.013 68.9018 79.7578C69.0642 79.4993 69.1454 79.1761 69.1454 78.7884ZM74.9933 82.1541C74.5094 82.1541 74.0735 82.0679 73.6857 81.8956C73.3013 81.7199 72.9963 81.4614 72.771 81.12C72.5489 80.7786 72.4379 80.3577 72.4379 79.8572C72.4379 79.4264 72.5174 79.0701 72.6765 78.7884C72.8356 78.5066 73.0527 78.2812 73.3278 78.1122C73.6029 77.9432 73.9128 77.8156 74.2575 77.7294C74.6055 77.6399 74.9651 77.5753 75.3363 77.5355C75.7837 77.4891 76.1467 77.4477 76.4251 77.4112C76.7035 77.3714 76.9057 77.3118 77.0316 77.2322C77.1609 77.1494 77.2255 77.0218 77.2255 76.8494V76.8196C77.2255 76.4451 77.1145 76.1551 76.8924 75.9496C76.6703 75.7441 76.3505 75.6413 75.9329 75.6413C75.4921 75.6413 75.1424 75.7375 74.8839 75.9297C74.6287 76.1219 74.4563 76.349 74.3668 76.6108L72.6864 76.3722C72.819 75.9081 73.0378 75.5204 73.3427 75.2088C73.6476 74.8939 74.0205 74.6586 74.4613 74.5028C74.9021 74.3438 75.3893 74.2642 75.9229 74.2642C76.2908 74.2642 76.6571 74.3073 77.0217 74.3935C77.3862 74.4796 77.7193 74.6222 78.021 74.821C78.3226 75.0166 78.5645 75.2834 78.7468 75.6214C78.9324 75.9595 79.0252 76.3821 79.0252 76.8892V82H77.2951V80.951H77.2354C77.1261 81.1631 76.9719 81.362 76.7731 81.5476C76.5775 81.7299 76.3306 81.8774 76.0323 81.9901C75.7373 82.0994 75.391 82.1541 74.9933 82.1541ZM75.4606 80.8317C75.8219 80.8317 76.1351 80.7604 76.4002 80.6179C76.6654 80.4721 76.8692 80.2798 77.0117 80.0412C77.1576 79.8026 77.2305 79.5424 77.2305 79.2607V78.3608C77.1741 78.4072 77.078 78.4503 76.9421 78.4901C76.8095 78.5298 76.6604 78.5646 76.4947 78.5945C76.329 78.6243 76.1649 78.6508 76.0025 78.674C75.8401 78.6972 75.6992 78.7171 75.5799 78.7337C75.3114 78.7701 75.0711 78.8298 74.859 78.9126C74.6469 78.9955 74.4795 79.1115 74.3569 79.2607C74.2343 79.4065 74.1729 79.5954 74.1729 79.8274C74.1729 80.1589 74.2939 80.4091 74.5359 80.5781C74.7778 80.7472 75.0861 80.8317 75.4606 80.8317ZM86.1072 71.8182V82H84.3075V71.8182H86.1072ZM90.1554 82.1541C89.6715 82.1541 89.2356 82.0679 88.8478 81.8956C88.4634 81.7199 88.1584 81.4614 87.9331 81.12C87.711 80.7786 87.6 80.3577 87.6 79.8572C87.6 79.4264 87.6795 79.0701 87.8386 78.7884C87.9977 78.5066 88.2148 78.2812 88.4899 78.1122C88.765 77.9432 89.0749 77.8156 89.4196 77.7294C89.7676 77.6399 90.1272 77.5753 90.4984 77.5355C90.9458 77.4891 91.3088 77.4477 91.5872 77.4112C91.8656 77.3714 92.0678 77.3118 92.1937 77.2322C92.323 77.1494 92.3876 77.0218 92.3876 76.8494V76.8196C92.3876 76.4451 92.2766 76.1551 92.0545 75.9496C91.8324 75.7441 91.5126 75.6413 91.095 75.6413C90.6542 75.6413 90.3045 75.7375 90.046 75.9297C89.7908 76.1219 89.6184 76.349 89.5289 76.6108L87.8485 76.3722C87.9811 75.9081 88.1999 75.5204 88.5048 75.2088C88.8097 74.8939 89.1826 74.6586 89.6234 74.5028C90.0642 74.3438 90.5514 74.2642 91.085 74.2642C91.4529 74.2642 91.8192 74.3073 92.1838 74.3935C92.5484 74.4796 92.8815 74.6222 93.1831 74.821C93.4847 75.0166 93.7266 75.2834 93.9089 75.6214C94.0945 75.9595 94.1873 76.3821 94.1873 76.8892V82H92.4572V80.951H92.3975C92.2882 81.1631 92.1341 81.362 91.9352 81.5476C91.7396 81.7299 91.4927 81.8774 91.1944 81.9901C90.8994 82.0994 90.5531 82.1541 90.1554 82.1541ZM90.6227 80.8317C90.984 80.8317 91.2972 80.7604 91.5623 80.6179C91.8275 80.4721 92.0313 80.2798 92.1738 80.0412C92.3197 79.8026 92.3926 79.5424 92.3926 79.2607V78.3608C92.3362 78.4072 92.2401 78.4503 92.1042 78.4901C91.9717 78.5298 91.8225 78.5646 91.6568 78.5945C91.4911 78.6243 91.327 78.6508 91.1646 78.674C91.0022 78.6972 90.8613 78.7171 90.742 78.7337C90.4735 78.7701 90.2333 78.8298 90.0211 78.9126C89.809 78.9955 89.6416 79.1115 89.519 79.2607C89.3964 79.4065 89.335 79.5954 89.335 79.8274C89.335 80.1589 89.456 80.4091 89.698 80.5781C89.9399 80.7472 90.2482 80.8317 90.6227 80.8317ZM91.095 84.7493C90.8066 84.7493 90.5597 84.6532 90.3542 84.4609C90.152 84.2687 90.051 84.0384 90.051 83.7699C90.051 83.5014 90.152 83.2711 90.3542 83.0788C90.5597 82.8866 90.805 82.7905 91.09 82.7905C91.3784 82.7905 91.6236 82.8866 91.8258 83.0788C92.0313 83.2711 92.1341 83.5014 92.1341 83.7699C92.1341 84.0384 92.0313 84.2687 91.8258 84.4609C91.6236 84.6532 91.38 84.7493 91.095 84.7493ZM95.997 82V74.3636H97.7967V82H95.997ZM96.9018 73.2798C96.6168 73.2798 96.3715 73.1854 96.166 72.9964C95.9605 72.8042 95.8578 72.5739 95.8578 72.3054C95.8578 72.0336 95.9605 71.8033 96.166 71.6143C96.3715 71.4221 96.6168 71.326 96.9018 71.326C97.1902 71.326 97.4354 71.4221 97.6376 71.6143C97.8431 71.8033 97.9458 72.0336 97.9458 72.3054C97.9458 72.5739 97.8431 72.8042 97.6376 72.9964C97.4354 73.1854 97.1902 73.2798 96.9018 73.2798Z" fill="#0B0A0A"/>
</svg>
