<svg width="110" height="104" viewBox="0 0 110 104" fill="none" xmlns="http://www.w3.org/2000/svg">
<rect x="25" width="60" height="60" rx="30" fill="#FAD2CE"/>
<path d="M66.5111 47.7778H43.4888C42.431 47.7778 41.5155 47.0311 41.3111 45.9911L37.2222 25.5555H72.7777L68.6888 45.9911C68.4799 47.0311 67.5688 47.7778 66.5111 47.7778Z" fill="#F5B3AC"/>
<path d="M56.3333 33.3333C56.3333 32.7196 55.8358 32.2222 55.2222 32.2222C54.6085 32.2222 54.1111 32.7196 54.1111 33.3333V44.4444C54.1111 45.058 54.6085 45.5555 55.2222 45.5555C55.8358 45.5555 56.3333 45.058 56.3333 44.4444V33.3333Z" fill="#CC4536"/>
<path d="M47.4444 33.3333C47.4444 32.7196 46.9469 32.2222 46.3333 32.2222C45.7196 32.2222 45.2222 32.7196 45.2222 33.3333V44.4444C45.2222 45.058 45.7196 45.5555 46.3333 45.5555C46.9469 45.5555 47.4444 45.058 47.4444 44.4444V33.3333Z" fill="#CC4536"/>
<path d="M65.2222 33.3333C65.2222 32.7196 64.7248 32.2222 64.1111 32.2222C63.4975 32.2222 63 32.7196 63 33.3333V44.4444C63 45.058 63.4975 45.5555 64.1111 45.5555C64.7248 45.5555 65.2222 45.058 65.2222 44.4444V33.3333Z" fill="#CC4536"/>
<path d="M72.7778 25.5555H37.2222C35.9949 25.5555 35 26.5495 35 27.7755C35 29.0016 35.9949 29.9955 37.2222 29.9955H72.7778C74.0051 29.9955 75 29.0016 75 27.7755C75 26.5495 74.0051 25.5555 72.7778 25.5555Z" fill="#CC4536"/>
<path fill-rule="evenodd" clip-rule="evenodd" d="M46.3333 26.8889C46.9469 26.8889 47.4444 27.3864 47.4444 28V32.2222C47.4444 36.5197 50.9247 40 55.2222 40C59.5196 40 62.9999 36.5197 62.9999 32.2222V28C62.9999 27.3864 63.4974 26.8889 64.1111 26.8889C64.7247 26.8889 65.2222 27.3864 65.2222 28V32.2222C65.2222 37.747 60.7469 42.2222 55.2222 42.2222C49.6974 42.2222 45.2222 37.747 45.2222 32.2222V28C45.2222 27.3864 45.7196 26.8889 46.3333 26.8889Z" fill="#FCFCFC"/>
<path d="M68.3334 34.4444C72.0153 34.4444 75.0001 31.4597 75.0001 27.7778C75.0001 24.0959 72.0153 21.1111 68.3334 21.1111C64.6515 21.1111 61.6667 24.0959 61.6667 27.7778C61.6667 31.4597 64.6515 34.4444 68.3334 34.4444Z" fill="#E06153"/>
<path fill-rule="evenodd" clip-rule="evenodd" d="M64.7468 27.7777C64.7468 27.5322 64.9458 27.3333 65.1913 27.3333H71.4757C71.7212 27.3333 71.9202 27.5322 71.9202 27.7777C71.9202 28.0232 71.7212 28.2221 71.4757 28.2221H65.1913C64.9458 28.2221 64.7468 28.0232 64.7468 27.7777Z" fill="#FCFCFC"/>
<path fill-rule="evenodd" clip-rule="evenodd" d="M68.3336 24.191C68.5791 24.191 68.778 24.39 68.778 24.6355V30.9199C68.778 31.1654 68.5791 31.3644 68.3336 31.3644C68.0881 31.3644 67.8892 31.1654 67.8892 30.9199V24.6355C67.8892 24.39 68.0881 24.191 68.3336 24.191Z" fill="#FCFCFC"/>
<path d="M53.222 12.2222H56.7776C57.022 12.2222 57.222 12.4222 57.222 12.6666V18.8888H52.7776V12.6666C52.7776 12.4222 52.9776 12.2222 53.222 12.2222Z" fill="#AE372A"/>
<path d="M50.3955 16.6666H59.6088C59.9866 16.6666 60.191 17.1066 59.951 17.3955L55.3466 22.9244C55.1688 23.1377 54.8399 23.1377 54.6621 22.9244L50.0577 17.3955C49.8177 17.1066 50.0221 16.6666 50.3999 16.6666H50.3955Z" fill="#AE372A"/>
</svg>
