<svg width="60" height="60" viewBox="0 0 60 60" fill="none" xmlns="http://www.w3.org/2000/svg">
<rect width="60" height="60" rx="30" fill="#FAD2CE"/>
<path d="M41.5111 47.7778H18.4888C17.431 47.7778 16.5155 47.0311 16.3111 45.9911L12.2222 25.5555H47.7777L43.6888 45.9911C43.4799 47.0311 42.5688 47.7778 41.5111 47.7778Z" fill="#F5B3AC"/>
<path d="M31.3333 33.3333C31.3333 32.7196 30.8358 32.2222 30.2222 32.2222C29.6085 32.2222 29.1111 32.7196 29.1111 33.3333V44.4444C29.1111 45.058 29.6085 45.5555 30.2222 45.5555C30.8358 45.5555 31.3333 45.058 31.3333 44.4444V33.3333Z" fill="#CC4536"/>
<path d="M22.4444 33.3333C22.4444 32.7196 21.9469 32.2222 21.3333 32.2222C20.7196 32.2222 20.2222 32.7196 20.2222 33.3333V44.4444C20.2222 45.058 20.7196 45.5555 21.3333 45.5555C21.9469 45.5555 22.4444 45.058 22.4444 44.4444V33.3333Z" fill="#CC4536"/>
<path d="M40.2222 33.3333C40.2222 32.7196 39.7248 32.2222 39.1111 32.2222C38.4975 32.2222 38 32.7196 38 33.3333V44.4444C38 45.058 38.4975 45.5555 39.1111 45.5555C39.7248 45.5555 40.2222 45.058 40.2222 44.4444V33.3333Z" fill="#CC4536"/>
<path d="M47.7778 25.5555H12.2222C10.9949 25.5555 10 26.5495 10 27.7755C10 29.0016 10.9949 29.9955 12.2222 29.9955H47.7778C49.0051 29.9955 50 29.0016 50 27.7755C50 26.5495 49.0051 25.5555 47.7778 25.5555Z" fill="#CC4536"/>
<path fill-rule="evenodd" clip-rule="evenodd" d="M21.3333 26.8889C21.9469 26.8889 22.4444 27.3864 22.4444 28V32.2222C22.4444 36.5197 25.9247 40 30.2222 40C34.5196 40 37.9999 36.5197 37.9999 32.2222V28C37.9999 27.3864 38.4974 26.8889 39.1111 26.8889C39.7247 26.8889 40.2222 27.3864 40.2222 28V32.2222C40.2222 37.747 35.7469 42.2222 30.2222 42.2222C24.6974 42.2222 20.2222 37.747 20.2222 32.2222V28C20.2222 27.3864 20.7196 26.8889 21.3333 26.8889Z" fill="#FCFCFC"/>
<path d="M43.3334 34.4444C47.0153 34.4444 50.0001 31.4597 50.0001 27.7778C50.0001 24.0959 47.0153 21.1111 43.3334 21.1111C39.6515 21.1111 36.6667 24.0959 36.6667 27.7778C36.6667 31.4597 39.6515 34.4444 43.3334 34.4444Z" fill="#E06153"/>
<path fill-rule="evenodd" clip-rule="evenodd" d="M39.7468 27.7777C39.7468 27.5322 39.9458 27.3333 40.1913 27.3333H46.4757C46.7212 27.3333 46.9202 27.5322 46.9202 27.7777C46.9202 28.0232 46.7212 28.2221 46.4757 28.2221H40.1913C39.9458 28.2221 39.7468 28.0232 39.7468 27.7777Z" fill="#FCFCFC"/>
<path fill-rule="evenodd" clip-rule="evenodd" d="M43.3336 24.191C43.5791 24.191 43.778 24.39 43.778 24.6355V30.9199C43.778 31.1654 43.5791 31.3644 43.3336 31.3644C43.0881 31.3644 42.8892 31.1654 42.8892 30.9199V24.6355C42.8892 24.39 43.0881 24.191 43.3336 24.191Z" fill="#FCFCFC"/>
<path d="M28.222 12.2222H31.7776C32.022 12.2222 32.222 12.4222 32.222 12.6666V18.8888H27.7776V12.6666C27.7776 12.4222 27.9776 12.2222 28.222 12.2222Z" fill="#AE372A"/>
<path d="M25.3955 16.6666H34.6088C34.9866 16.6666 35.191 17.1066 34.951 17.3955L30.3466 22.9244C30.1688 23.1377 29.8399 23.1377 29.6621 22.9244L25.0577 17.3955C24.8177 17.1066 25.0221 16.6666 25.3999 16.6666H25.3955Z" fill="#AE372A"/>
</svg>
