<svg width="40" height="40" viewBox="0 0 40 40" fill="none" xmlns="http://www.w3.org/2000/svg">
<g id="Group 819">
<path id="Vector" d="M32.4118 0.921631C28.7318 0.921631 25.7451 3.9083 25.7451 7.5883C25.7451 11.2683 28.7318 14.255 32.4118 14.255C36.0918 14.255 39.0785 11.2683 39.0785 7.5883C39.0785 3.9083 36.0918 0.921631 32.4118 0.921631ZM32.4118 12.0327C29.9585 12.0327 27.9673 10.0416 27.9673 7.5883C27.9673 5.13496 29.9585 3.14385 32.4118 3.14385C34.8651 3.14385 36.8562 5.13496 36.8562 7.5883C36.8562 10.0416 34.8651 12.0327 32.4118 12.0327Z" fill="#276EF1"/>
<g id="Group">
<path id="Vector_2" d="M30.1896 5.36609H20.763C19.5852 5.36609 18.4519 5.83275 17.6207 6.66831L2.22521 22.0639C0.487431 23.8016 0.487431 26.615 2.22521 28.3483L11.6519 37.775C13.3896 39.5128 16.203 39.5128 17.9363 37.775L33.3319 22.3794C34.1674 21.5439 34.6341 20.415 34.6341 19.2372V9.81053C34.6341 7.3572 32.643 5.36609 30.1896 5.36609ZM27.9674 14.255C26.7408 14.255 25.7452 13.2594 25.7452 12.0328C25.7452 10.8061 26.7408 9.81053 27.9674 9.81053C29.1941 9.81053 30.1896 10.8061 30.1896 12.0328C30.1896 13.2594 29.1941 14.255 27.9674 14.255Z" fill="#7DA8F7"/>
<path id="Vector_3" d="M27.9674 7.58826C25.5141 7.58826 23.5229 9.57937 23.5229 12.0327C23.5229 14.486 25.5141 16.4771 27.9674 16.4771C30.4207 16.4771 32.4118 14.486 32.4118 12.0327C32.4118 9.57937 30.4207 7.58826 27.9674 7.58826ZM27.9674 14.2549C26.7407 14.2549 25.7452 13.2594 25.7452 12.0327C25.7452 10.806 26.7407 9.81048 27.9674 9.81048C29.1941 9.81048 30.1896 10.806 30.1896 12.0327C30.1896 13.2594 29.1941 14.2549 27.9674 14.2549Z" fill="#174291"/>
<g id="Group_2">
<path id="Vector_4" d="M14.2475 27.895C14.0786 27.7261 13.8875 27.6373 13.6741 27.6328C13.4608 27.6284 13.1897 27.6995 12.8608 27.8506C12.5319 28.0017 12.2608 28.1084 12.0519 28.1661C11.3586 28.3617 10.7675 28.2195 10.283 27.735C9.95412 27.4061 9.78079 27.0373 9.75857 26.6328C9.73635 26.2284 9.87412 25.8417 10.1675 25.4684L9.51855 24.8195L9.97635 24.3617L10.6297 25.015C11.0119 24.7306 11.4163 24.6195 11.8386 24.6817C12.2608 24.7439 12.6697 24.9661 13.0563 25.3573L12.363 26.0506C12.1141 25.8017 11.8608 25.6595 11.6119 25.6239C11.363 25.5884 11.1408 25.6639 10.9586 25.8461C10.7763 26.0284 10.683 26.2239 10.683 26.4328C10.683 26.6417 10.7808 26.8373 10.9719 27.0328C11.1452 27.2061 11.3319 27.2906 11.5408 27.295C11.7497 27.2995 12.0208 27.2239 12.3586 27.0728C12.6963 26.9217 12.9763 26.815 13.1941 26.7573C13.4119 26.6995 13.6208 26.6684 13.8208 26.6773C14.0208 26.6861 14.2075 26.7261 14.3941 26.8106C14.5808 26.895 14.7586 27.0239 14.9363 27.2017C15.2697 27.535 15.443 27.9084 15.4563 28.3128C15.4697 28.7173 15.3141 29.1173 14.9986 29.5084L15.5763 30.0861L15.1186 30.5439L14.5408 29.9661C14.1185 30.2995 13.6875 30.4506 13.2475 30.415C12.8075 30.3795 12.3897 30.1661 11.9986 29.775L12.6963 29.0773C12.9452 29.3261 13.1985 29.4595 13.4563 29.4773C13.7141 29.495 13.9541 29.3884 14.1763 29.1661C14.3985 28.9439 14.5052 28.7261 14.5097 28.5039C14.5141 28.2817 14.4252 28.0817 14.2475 27.8995V27.895Z" fill="#FCFCFC"/>
<path id="Vector_5" d="M17.5809 24.5617C17.4121 24.3928 17.221 24.3039 17.0076 24.2994C16.7943 24.295 16.5232 24.3661 16.1943 24.5172C15.8654 24.6683 15.5943 24.775 15.3854 24.8328C14.6921 25.0283 14.101 24.8861 13.6165 24.4017C13.2876 24.0728 13.1143 23.7039 13.0921 23.2994C13.0698 22.895 13.2076 22.5083 13.5009 22.135L12.8521 21.4861L13.3098 21.0283L13.9632 21.6817C14.3454 21.3972 14.7498 21.2861 15.1721 21.3483C15.5943 21.4105 16.0032 21.6328 16.3898 22.0239L15.6965 22.7172C15.4476 22.4683 15.1943 22.3261 14.9454 22.2905C14.6965 22.255 14.4743 22.3305 14.292 22.5128C14.1098 22.695 14.0165 22.8905 14.0165 23.0994C14.0165 23.3083 14.1143 23.5039 14.3054 23.6994C14.4787 23.8728 14.6654 23.9572 14.8743 23.9617C15.0832 23.9661 15.3543 23.8905 15.6921 23.7394C16.0298 23.5883 16.3098 23.4817 16.5276 23.4239C16.7454 23.3661 16.9543 23.335 17.1543 23.3439C17.3543 23.3528 17.541 23.3928 17.7276 23.4772C17.9143 23.5617 18.0921 23.6905 18.2698 23.8683C18.6032 24.2017 18.7765 24.575 18.7898 24.9794C18.8032 25.3839 18.6476 25.7839 18.3321 26.175L18.9098 26.7528L18.4521 27.2105L17.8743 26.6328C17.452 26.9661 17.0209 27.1172 16.5809 27.0816C16.1409 27.0461 15.7232 26.8328 15.3321 26.4417L16.0298 25.7439C16.2787 25.9928 16.532 26.1261 16.7898 26.1439C17.0476 26.1617 17.2876 26.055 17.5098 25.8328C17.732 25.6105 17.8387 25.3928 17.8432 25.1705C17.8476 24.9483 17.7587 24.7483 17.5809 24.5661V24.5617Z" fill="#FCFCFC"/>
<path id="Vector_6" d="M20.9183 21.2239C20.7495 21.055 20.5583 20.9661 20.345 20.9617C20.1317 20.9572 19.8606 21.0283 19.5317 21.1794C19.2028 21.3305 18.9317 21.4372 18.7228 21.495C18.0295 21.6905 17.4383 21.5483 16.9539 21.0639C16.625 20.735 16.4517 20.3661 16.4294 19.9617C16.4072 19.5572 16.545 19.1705 16.8384 18.7972L16.1895 18.1483L16.6472 17.6906L17.3006 18.3439C17.6828 18.0594 18.0872 17.9483 18.5094 18.0106C18.9317 18.0728 19.3406 18.295 19.7272 18.6861L19.0339 19.3794C18.785 19.1305 18.5317 18.9883 18.2828 18.9528C18.0339 18.9172 17.8117 18.9928 17.6294 19.175C17.4472 19.3572 17.3539 19.5528 17.3539 19.7617C17.3539 19.9706 17.4517 20.1661 17.6428 20.3617C17.8161 20.535 18.0028 20.6194 18.2117 20.6239C18.4206 20.6283 18.6917 20.5528 19.0295 20.4017C19.3672 20.2505 19.6472 20.1439 19.865 20.0861C20.0828 20.0283 20.2917 19.9972 20.4917 20.0061C20.6917 20.015 20.8783 20.055 21.065 20.1394C21.2517 20.2239 21.4295 20.3528 21.6072 20.5305C21.9406 20.8639 22.1139 21.2372 22.1272 21.6417C22.1406 22.0461 21.985 22.4461 21.6695 22.8372L22.2472 23.415L21.7894 23.8728L21.2117 23.295C20.7894 23.6283 20.3583 23.7794 19.9183 23.7439C19.4783 23.7083 19.0606 23.495 18.6695 23.1039L19.3672 22.4061C19.6161 22.655 19.8694 22.7883 20.1272 22.8061C20.385 22.8239 20.625 22.7172 20.8472 22.495C21.0694 22.2728 21.1761 22.055 21.1806 21.8328C21.185 21.6105 21.0961 21.4105 20.9183 21.2283V21.2239Z" fill="#FCFCFC"/>
</g>
</g>
<path id="Vector_7" d="M32.4208 0.921631C31.0608 0.921631 29.7941 1.32608 28.7408 2.02386C28.1541 2.41052 28.0652 3.24163 28.563 3.73941C28.9452 4.12163 29.5319 4.15718 29.9808 3.86385C30.7852 3.33941 31.7719 3.06386 32.8252 3.16163C34.8963 3.3483 36.5986 5.01496 36.8252 7.08162C37.123 9.76162 35.0297 12.0327 32.4074 12.0327C31.5052 12.0327 30.6652 11.7661 29.9674 11.3038C29.523 11.0105 28.9363 11.0594 28.5586 11.4372C28.0563 11.9394 28.1541 12.775 28.7497 13.1661C29.7986 13.855 31.0563 14.255 32.403 14.255C36.1897 14.255 39.2386 11.0994 39.0608 7.27275C38.9008 3.76163 35.923 0.926075 32.4074 0.921631H32.4208Z" fill="#276EF1"/>
</g>
</svg>
