<svg width="60" height="60" viewBox="0 0 60 60" fill="none" xmlns="http://www.w3.org/2000/svg">
<rect width="60" height="60" rx="30" fill="#D4E2FC"/>
<path d="M42.4118 10.9216C38.7318 10.9216 35.7451 13.9083 35.7451 17.5883C35.7451 21.2683 38.7318 24.255 42.4118 24.255C46.0918 24.255 49.0785 21.2683 49.0785 17.5883C49.0785 13.9083 46.0918 10.9216 42.4118 10.9216ZM42.4118 22.0327C39.9585 22.0327 37.9673 20.0416 37.9673 17.5883C37.9673 15.135 39.9585 13.1439 42.4118 13.1439C44.8651 13.1439 46.8562 15.135 46.8562 17.5883C46.8562 20.0416 44.8651 22.0327 42.4118 22.0327Z" fill="#276EF1"/>
<path d="M40.1896 15.3661H30.763C29.5852 15.3661 28.4519 15.8328 27.6207 16.6683L12.2252 32.0639C10.4874 33.8016 10.4874 36.615 12.2252 38.3483L21.6519 47.775C23.3896 49.5128 26.203 49.5128 27.9363 47.775L43.3319 32.3794C44.1674 31.5439 44.6341 30.415 44.6341 29.2372V19.8105C44.6341 17.3572 42.643 15.3661 40.1896 15.3661ZM37.9674 24.255C36.7408 24.255 35.7452 23.2594 35.7452 22.0328C35.7452 20.8061 36.7408 19.8105 37.9674 19.8105C39.1941 19.8105 40.1896 20.8061 40.1896 22.0328C40.1896 23.2594 39.1941 24.255 37.9674 24.255Z" fill="#7DA8F7"/>
<path d="M37.9674 17.5883C35.5141 17.5883 33.5229 19.5794 33.5229 22.0327C33.5229 24.486 35.5141 26.4771 37.9674 26.4771C40.4207 26.4771 42.4118 24.486 42.4118 22.0327C42.4118 19.5794 40.4207 17.5883 37.9674 17.5883ZM37.9674 24.2549C36.7407 24.2549 35.7452 23.2594 35.7452 22.0327C35.7452 20.806 36.7407 19.8105 37.9674 19.8105C39.1941 19.8105 40.1896 20.806 40.1896 22.0327C40.1896 23.2594 39.1941 24.2549 37.9674 24.2549Z" fill="#174291"/>
<path d="M24.2475 37.895C24.0786 37.7261 23.8875 37.6373 23.6741 37.6328C23.4608 37.6284 23.1897 37.6995 22.8608 37.8506C22.5319 38.0017 22.2608 38.1084 22.0519 38.1661C21.3586 38.3617 20.7675 38.2195 20.283 37.735C19.9541 37.4061 19.7808 37.0373 19.7586 36.6328C19.7363 36.2284 19.8741 35.8417 20.1675 35.4684L19.5186 34.8195L19.9763 34.3617L20.6297 35.015C21.0119 34.7306 21.4163 34.6195 21.8386 34.6817C22.2608 34.7439 22.6697 34.9661 23.0563 35.3573L22.363 36.0506C22.1141 35.8017 21.8608 35.6595 21.6119 35.6239C21.363 35.5884 21.1408 35.6639 20.9586 35.8461C20.7763 36.0284 20.683 36.2239 20.683 36.4328C20.683 36.6417 20.7808 36.8373 20.9719 37.0328C21.1452 37.2061 21.3319 37.2906 21.5408 37.295C21.7497 37.2995 22.0208 37.2239 22.3586 37.0728C22.6963 36.9217 22.9763 36.815 23.1941 36.7573C23.4119 36.6995 23.6208 36.6684 23.8208 36.6773C24.0208 36.6861 24.2075 36.7261 24.3941 36.8106C24.5808 36.895 24.7586 37.0239 24.9363 37.2017C25.2697 37.535 25.443 37.9084 25.4563 38.3128C25.4697 38.7173 25.3141 39.1173 24.9986 39.5084L25.5763 40.0861L25.1186 40.5439L24.5408 39.9661C24.1185 40.2995 23.6875 40.4506 23.2475 40.415C22.8075 40.3795 22.3897 40.1661 21.9986 39.775L22.6963 39.0773C22.9452 39.3261 23.1985 39.4595 23.4563 39.4773C23.7141 39.495 23.9541 39.3884 24.1763 39.1661C24.3985 38.9439 24.5052 38.7261 24.5097 38.5039C24.5141 38.2817 24.4252 38.0817 24.2475 37.8995V37.895Z" fill="#FCFCFC"/>
<path d="M27.5809 34.5617C27.4121 34.3928 27.221 34.3039 27.0076 34.2994C26.7943 34.295 26.5232 34.3661 26.1943 34.5172C25.8654 34.6683 25.5943 34.775 25.3854 34.8328C24.6921 35.0283 24.101 34.8861 23.6165 34.4017C23.2876 34.0728 23.1143 33.7039 23.0921 33.2994C23.0698 32.895 23.2076 32.5083 23.5009 32.135L22.8521 31.4861L23.3098 31.0283L23.9632 31.6817C24.3454 31.3972 24.7498 31.2861 25.1721 31.3483C25.5943 31.4105 26.0032 31.6328 26.3898 32.0239L25.6965 32.7172C25.4476 32.4683 25.1943 32.3261 24.9454 32.2905C24.6965 32.255 24.4743 32.3305 24.292 32.5128C24.1098 32.695 24.0165 32.8905 24.0165 33.0994C24.0165 33.3083 24.1143 33.5039 24.3054 33.6994C24.4787 33.8728 24.6654 33.9572 24.8743 33.9617C25.0832 33.9661 25.3543 33.8905 25.6921 33.7394C26.0298 33.5883 26.3098 33.4817 26.5276 33.4239C26.7454 33.3661 26.9543 33.335 27.1543 33.3439C27.3543 33.3528 27.541 33.3928 27.7276 33.4772C27.9143 33.5617 28.0921 33.6905 28.2698 33.8683C28.6032 34.2017 28.7765 34.575 28.7898 34.9794C28.8032 35.3839 28.6476 35.7839 28.3321 36.175L28.9098 36.7528L28.4521 37.2105L27.8743 36.6328C27.452 36.9661 27.0209 37.1172 26.5809 37.0816C26.1409 37.0461 25.7232 36.8328 25.3321 36.4417L26.0298 35.7439C26.2787 35.9928 26.532 36.1261 26.7898 36.1439C27.0476 36.1617 27.2876 36.055 27.5098 35.8328C27.732 35.6105 27.8387 35.3928 27.8432 35.1705C27.8476 34.9483 27.7587 34.7483 27.5809 34.5661V34.5617Z" fill="#FCFCFC"/>
<path d="M30.9183 31.2239C30.7495 31.055 30.5583 30.9661 30.345 30.9617C30.1317 30.9572 29.8606 31.0283 29.5317 31.1794C29.2028 31.3305 28.9317 31.4372 28.7228 31.495C28.0295 31.6905 27.4383 31.5483 26.9539 31.0639C26.625 30.735 26.4517 30.3661 26.4294 29.9617C26.4072 29.5572 26.545 29.1705 26.8384 28.7972L26.1895 28.1483L26.6472 27.6906L27.3006 28.3439C27.6828 28.0594 28.0872 27.9483 28.5094 28.0106C28.9317 28.0728 29.3406 28.295 29.7272 28.6861L29.0339 29.3794C28.785 29.1305 28.5317 28.9883 28.2828 28.9528C28.0339 28.9172 27.8117 28.9928 27.6294 29.175C27.4472 29.3572 27.3539 29.5528 27.3539 29.7617C27.3539 29.9706 27.4517 30.1661 27.6428 30.3617C27.8161 30.535 28.0028 30.6194 28.2117 30.6239C28.4206 30.6283 28.6917 30.5528 29.0295 30.4017C29.3672 30.2505 29.6472 30.1439 29.865 30.0861C30.0828 30.0283 30.2917 29.9972 30.4917 30.0061C30.6917 30.015 30.8783 30.055 31.065 30.1394C31.2517 30.2239 31.4295 30.3528 31.6072 30.5305C31.9406 30.8639 32.1139 31.2372 32.1272 31.6417C32.1406 32.0461 31.985 32.4461 31.6695 32.8372L32.2472 33.415L31.7894 33.8728L31.2117 33.295C30.7894 33.6283 30.3583 33.7794 29.9183 33.7439C29.4783 33.7083 29.0606 33.495 28.6695 33.1039L29.3672 32.4061C29.6161 32.655 29.8694 32.7883 30.1272 32.8061C30.385 32.8239 30.625 32.7172 30.8472 32.495C31.0694 32.2728 31.1761 32.055 31.1806 31.8328C31.185 31.6105 31.0961 31.4105 30.9183 31.2283V31.2239Z" fill="#FCFCFC"/>
<path d="M42.4208 10.9216C41.0608 10.9216 39.7941 11.3261 38.7408 12.0239C38.1541 12.4105 38.0652 13.2416 38.563 13.7394C38.9452 14.1216 39.5319 14.1572 39.9808 13.8639C40.7852 13.3394 41.7719 13.0639 42.8252 13.1616C44.8963 13.3483 46.5986 15.015 46.8252 17.0816C47.123 19.7616 45.0297 22.0327 42.4074 22.0327C41.5052 22.0327 40.6652 21.7661 39.9674 21.3038C39.523 21.0105 38.9363 21.0594 38.5586 21.4372C38.0563 21.9394 38.1541 22.775 38.7497 23.1661C39.7986 23.855 41.0563 24.255 42.403 24.255C46.1897 24.255 49.2386 21.0994 49.0608 17.2727C48.9008 13.7616 45.923 10.9261 42.4074 10.9216H42.4208Z" fill="#276EF1"/>
</svg>
