<svg width="60" height="60" viewBox="0 0 60 60" fill="none" xmlns="http://www.w3.org/2000/svg">
<rect width="60" height="60" rx="30" fill="#FFEEC6"/>
<g opacity="0.9">
<path d="M15.3086 42.5926H44.6913C47.0084 42.5926 48.8889 40.7121 48.8889 38.395V34.1975C45.4133 34.1975 42.5926 31.3768 42.5926 27.9012C42.5926 24.4256 45.4133 21.6049 48.8889 21.6049V17.4074C48.8889 15.0903 47.0084 13.2098 44.6913 13.2098H15.3086C12.9916 13.2098 11.1111 15.0903 11.1111 17.4074V38.395C11.1111 40.7121 12.9916 42.5926 15.3086 42.5926Z" fill="#FFC043"/>
<path d="M44.6914 42.5926C47.0085 42.5926 48.889 40.7121 48.889 38.395V34.1975C45.4134 34.1975 42.5927 31.3768 42.5927 27.9012C42.5927 24.4256 45.4134 21.6049 48.889 21.6049V17.4074C48.889 15.0903 47.0085 13.2098 44.6914 13.2098H40.4939V42.5926H44.6914Z" fill="#DD6102"/>
<path d="M33.87 21.6427C34.3027 21.2099 34.3034 20.509 33.8715 20.077C33.4395 19.6451 32.7385 19.6457 32.3058 20.0785L18.2251 34.1592C17.7923 34.5919 17.7917 35.2929 18.2236 35.7249C18.6556 36.1568 19.3565 36.1561 19.7893 35.7234L33.87 21.6427Z" fill="#FCFCFC"/>
<path d="M20.1736 19.7537C18.6457 19.7537 17.4075 20.9919 17.4075 22.5198C17.4075 24.0477 18.6457 25.286 20.1736 25.286C21.7015 25.286 22.9398 24.0477 22.9398 22.5198C22.9398 20.9919 21.7015 19.7537 20.1736 19.7537ZM20.1736 23.905C19.4097 23.905 18.7885 23.2838 18.7885 22.5198C18.7885 21.7559 19.4097 21.1347 20.1736 21.1347C20.9376 21.1347 21.5588 21.7559 21.5588 22.5198C21.5588 23.2838 20.9376 23.905 20.1736 23.905Z" fill="#B74106"/>
<path d="M31.4312 30.516C29.9033 30.516 28.665 31.7543 28.665 33.2822C28.665 34.8101 29.9033 36.0483 31.4312 36.0483C32.9592 36.0483 34.1974 34.8101 34.1974 33.2822C34.1974 31.7543 32.9592 30.516 31.4312 30.516ZM31.4312 34.6673C30.6673 34.6673 30.046 34.0461 30.046 33.2822C30.046 32.5182 30.6673 31.897 31.4312 31.897C32.1952 31.897 32.8164 32.5182 32.8164 33.2822C32.8164 34.0461 32.1952 34.6673 31.4312 34.6673Z" fill="#B74106"/>
<path d="M40.0111 46.7901C43.4885 46.7901 46.3074 43.9712 46.3074 40.4938C46.3074 37.0165 43.4885 34.1975 40.0111 34.1975C36.5338 34.1975 33.7148 37.0165 33.7148 40.4938C33.7148 43.9712 36.5338 46.7901 40.0111 46.7901Z" fill="#F98707"/>
<path d="M40.88 42.0511C40.88 41.8118 40.817 41.6187 40.6869 41.476C40.5568 41.3333 40.3385 41.2032 40.0279 41.0814C39.7173 40.9597 39.4529 40.8422 39.2304 40.7205C39.0079 40.5987 38.8148 40.4644 38.6553 40.3091C38.4958 40.1538 38.3699 39.9733 38.2817 39.7634C38.1936 39.5535 38.1474 39.3059 38.1474 39.0163C38.1474 38.521 38.2985 38.1096 38.605 37.7948C38.9114 37.4758 39.3186 37.2911 39.8265 37.2407V36.2963H40.5064V37.2533C41.0102 37.3289 41.4005 37.5429 41.6859 37.9039C41.9714 38.2649 42.1099 38.7308 42.1099 39.3059H40.88C40.88 38.9533 40.8087 38.6889 40.6702 38.5126C40.5316 38.3363 40.3427 38.2481 40.1077 38.2481C39.8726 38.2481 39.6963 38.3153 39.5662 38.4538C39.4361 38.5923 39.3731 38.7812 39.3731 39.0205C39.3731 39.2429 39.4361 39.4234 39.562 39.5577C39.6879 39.6921 39.9188 39.8306 40.2588 39.9733C40.5988 40.116 40.8758 40.2461 41.0941 40.3721C41.3124 40.498 41.4971 40.6365 41.6482 40.796C41.7993 40.9555 41.9126 41.1318 41.9923 41.3333C42.0721 41.5348 42.1099 41.7698 42.1099 42.0385C42.1099 42.538 41.9588 42.9452 41.6608 43.2558C41.3627 43.5664 40.9472 43.7511 40.4183 43.8056V44.6829H39.7425V43.8098C39.1632 43.7469 38.7099 43.5328 38.3909 43.1676C38.0719 42.8024 37.9124 42.3197 37.9124 41.7195H39.1423C39.1423 42.0679 39.222 42.3365 39.3815 42.5254C39.541 42.7143 39.7719 42.8066 40.0741 42.8066C40.3217 42.8066 40.519 42.7395 40.666 42.601C40.8129 42.4624 40.8842 42.2777 40.8842 42.0469L40.88 42.0511Z" fill="#FCFCFC"/>
</g>
</svg>
