<svg width="60" height="60" viewBox="0 0 60 60" fill="none" xmlns="http://www.w3.org/2000/svg">
<rect width="60" height="60" rx="30" fill="#DAF1E0"/>
<path d="M12.2222 47.7777V38.8888H21.1111L12.2222 47.7777Z" fill="#24774C"/>
<path d="M16.6666 12.2222H43.3333C45.7866 12.2222 47.7777 14.2133 47.7777 16.6666V38.8888C47.7777 41.3422 45.7866 43.3333 43.3333 43.3333H12.2222V16.6666C12.2222 14.2133 14.2133 12.2222 16.6666 12.2222Z" fill="#88CDA4"/>
<path d="M45.5554 27.7778C45.5554 29.0044 46.551 30 47.7776 30V25.5555C46.551 25.5555 45.5554 26.5511 45.5554 27.7778Z" fill="#1D5F3F"/>
<path d="M14.4444 27.7778C14.4444 26.5511 13.4488 25.5555 12.2222 25.5555V30C13.4488 30 14.4444 29.0044 14.4444 27.7778Z" fill="#1D5F3F"/>
<path fill-rule="evenodd" clip-rule="evenodd" d="M28.8889 20.0786C25.1183 20.6173 22.2222 23.8575 22.2222 27.7777C22.2222 32.0752 25.7025 35.5555 30 35.5555C34.2975 35.5555 37.7778 32.0752 37.7778 27.7777C37.7778 27.1641 38.2752 26.6666 38.8889 26.6666C39.5025 26.6666 40 27.1641 40 27.7777C40 33.3025 35.5248 37.7777 30 37.7777C24.4752 37.7777 20 33.3025 20 27.7777C20 22.2529 24.4752 17.7777 30 17.7777C30.6137 17.7777 31.1111 18.2752 31.1111 18.8888V21.111C31.1111 21.7247 30.6137 22.2222 30 22.2222C29.3863 22.2222 28.8889 21.7247 28.8889 21.111V20.0786Z" fill="#3AA76D"/>
<path d="M29.2 30.8887H26.0934C25.8222 30.8887 25.6045 30.662 25.6045 30.382C25.6045 30.2531 25.6489 30.1331 25.7334 30.0398L27.5822 27.9553C27.8667 27.6264 28.0711 27.3509 28.1911 27.1331C28.3111 26.9153 28.3734 26.6931 28.3734 26.4709C28.3734 26.1776 28.2933 25.942 28.1333 25.7642C27.9733 25.5865 27.76 25.4931 27.4889 25.4931C27.1689 25.4931 26.92 25.5953 26.7422 25.7953C26.6356 25.9198 26.56 26.0709 26.5156 26.2487C26.4622 26.4709 26.2667 26.6265 26.0444 26.6265C25.7244 26.6265 25.4756 26.3109 25.5689 25.9998C25.6089 25.8664 25.6622 25.7376 25.7289 25.6176C25.8934 25.3198 26.1289 25.0842 26.4356 24.9198C26.7422 24.7553 27.0933 24.6709 27.4933 24.6709C28.0711 24.6709 28.5245 24.822 28.8578 25.1198C29.1911 25.4176 29.3556 25.8309 29.3556 26.3598C29.3556 26.6664 29.2711 26.9865 29.1067 27.3242C28.9422 27.662 28.6667 28.0398 28.2845 28.4709L26.8311 30.0753H29.1956C29.4133 30.0753 29.5911 30.2576 29.5911 30.4842C29.5911 30.7109 29.4133 30.8931 29.1956 30.8931L29.2 30.8887Z" fill="#FCFCFC"/>
<path d="M33.7067 28.702H34.0489C34.2667 28.702 34.4489 28.8842 34.4489 29.1109C34.4489 29.3376 34.2711 29.5198 34.0489 29.5198H33.7067V30.3731C33.7067 30.6576 33.4845 30.8842 33.2089 30.8842C32.9334 30.8842 32.7111 30.6531 32.7111 30.3731V29.5198H30.6C30.3467 29.5198 30.1378 29.3153 30.1245 29.0531C30.1201 28.9509 30.1467 28.8531 30.2 28.7642L32.4845 25.062C32.6045 24.8665 32.8178 24.7465 33.0401 24.7465C33.4045 24.7465 33.7023 25.0531 33.7023 25.4309V28.6976L33.7067 28.702ZM31.16 28.702H32.7156V26.1376L32.64 26.2709L31.16 28.6976V28.702Z" fill="#FCFCFC"/>
</svg>
